<?xml version="1.0" encoding="UTF-8" standalone="no" ?>
<!DOCTYPE svg PUBLIC "-//W3C//DTD SVG 1.1//EN" "http://www.w3.org/Graphics/SVG/1.1/DTD/svg11.dtd">
<svg xmlns="http://www.w3.org/2000/svg" xmlns:xlink="http://www.w3.org/1999/xlink" version="1.1" width="1080" height="1080" viewBox="0 0 1080 1080" xml:space="preserve">
<desc>Created with Fabric.js 5.2.4</desc>
<defs>
</defs>
<rect x="0" y="0" width="100%" height="100%" fill="transparent"></rect>
<g transform="matrix(1 0 0 1 540 540)" id="4b3b4514-c5c7-4580-939e-5291bcc6a428"  >
<rect style="stroke: none; stroke-width: 1; stroke-dasharray: none; stroke-linecap: butt; stroke-dashoffset: 0; stroke-linejoin: miter; stroke-miterlimit: 4; fill: rgb(255,255,255); fill-rule: nonzero; opacity: 1; visibility: hidden;" vector-effect="non-scaling-stroke"  x="-540" y="-540" rx="0" ry="0" width="1080" height="1080" />
</g>
<g transform="matrix(1 0 0 1 540 540)" id="2d720358-be16-473f-8135-4e00b3b476c7"  >
</g>
<g transform="matrix(0.29 0 0 0.27 522.36 540)"  >
<g style=""   >
		<g transform="matrix(1 0 0 1 912.83 -1029.65)"  >
<path style="stroke: none; stroke-width: 1; stroke-dasharray: none; stroke-linecap: butt; stroke-dashoffset: 0; stroke-linejoin: miter; stroke-miterlimit: 4; fill: rgb(0,0,0); fill-rule: nonzero; opacity: 1;" vector-effect="non-scaling-stroke"  transform=" translate(-2225.83, -170.85)" d="M 2154.53125 3.488281 C 2120.460938 13.941406 2101.160156 33.371094 2096.039062 62 C 2094.191406 72.859375 2094.390625 77.039062 2097.269531 87.699219 C 2101.371094 102.75 2113.070312 121.761719 2125.789062 134.5 C 2130.929688 139.519531 2135.03125 143.910156 2135.03125 144.53125 C 2135.03125 144.949219 2129.691406 146 2123.128906 146.621094 C 2116.558594 147.039062 2107.941406 149.339844 2104.039062 151.21875 C 2074.890625 166.679688 2066.070312 193.640625 2080.851562 221.429688 C 2090.699219 239.609375 2113.890625 249.21875 2137.488281 244.621094 C 2148.160156 242.53125 2148.160156 242.53125 2139.128906 254.648438 C 2130.929688 265.519531 2127.441406 273.25 2124.96875 286.410156 C 2122.308594 301.871094 2124.96875 311.070312 2135.230469 322.558594 C 2148.160156 336.769531 2160.269531 341.160156 2187.371094 341.160156 C 2216.511719 341.359375 2228.621094 336.769531 2245.859375 319.628906 C 2255.910156 309.609375 2258.378906 305.429688 2262.070312 293.519531 C 2264.539062 285.78125 2266.378906 274.921875 2266.589844 269.488281 L 2266.589844 259.871094 L 2270.691406 270.320312 C 2280.339844 295.390625 2304.140625 304.378906 2327.949219 292.261719 C 2359.148438 276.171875 2378.851562 238.351562 2371.058594 209.730469 C 2368.179688 199.28125 2356.28125 184.230469 2345.199219 177.339844 L 2338.21875 172.738281 L 2345.398438 168.980469 C 2357.300781 162.710938 2366.738281 154.558594 2372.488281 145.371094 C 2377.210938 137.851562 2378.03125 134.300781 2377.828125 121.96875 C 2377.828125 113.609375 2376.390625 104 2374.539062 99.398438 C 2369 86.03125 2354.21875 69.109375 2341.289062 60.75 C 2329.589844 53.429688 2328.160156 53.019531 2311.328125 53.019531 C 2295.320312 53.019531 2293.058594 53.640625 2286.5 58.660156 C 2276.441406 66.390625 2267.199219 81.21875 2261.871094 98.359375 C 2259.398438 106.089844 2256.730469 112.570312 2255.910156 112.570312 C 2251.398438 112.570312 2249.351562 105.039062 2249.761719 88.75 C 2250.378906 68.058594 2247.5 55.730469 2238.46875 37.140625 C 2231.078125 21.878906 2217.949219 10.179688 2202.140625 4.328125 C 2188.601562 -0.480469 2168.691406 -0.679688 2154.53125 3.488281 Z M 2253.660156 154.140625 C 2262.070312 158.53125 2270.488281 171.488281 2270.488281 180.269531 C 2270.488281 190.089844 2264.328125 201.78125 2255.910156 207.640625 C 2248.941406 212.648438 2246.46875 213.28125 2236.621094 212.441406 C 2227.179688 211.609375 2224.101562 210.359375 2217.949219 204.5 C 2209.320312 195.730469 2205.839844 184.648438 2208.710938 173.578125 C 2211.378906 163.761719 2214.25 160 2223.28125 154.558594 C 2232.308594 149.128906 2243.601562 148.921875 2253.660156 154.140625 Z M 2253.660156 154.140625" stroke-linecap="round" />
</g>
		<g transform="matrix(1 0 0 1 -459.31 -647.79)"  >
<path style="stroke: none; stroke-width: 1; stroke-dasharray: none; stroke-linecap: butt; stroke-dashoffset: 0; stroke-linejoin: miter; stroke-miterlimit: 4; fill: rgb(0,0,0); fill-rule: nonzero; opacity: 1;" vector-effect="non-scaling-stroke"  transform=" translate(-853.69, -552.71)" d="M 742.074219 385.03125 C 735.917969 387.121094 732.839844 387.121094 731.402344 385.660156 C 728.53125 382.738281 710.675781 400.078125 703.695312 412.410156 C 696.101562 425.359375 693.230469 442.289062 696.101562 454.621094 C 703.082031 482.820312 731.609375 508.519531 773.273438 523.988281 L 789.074219 529.839844 L 775.941406 531.300781 C 747.824219 534.230469 728.941406 545.929688 718.0625 567.03125 C 712.109375 578.730469 711.699219 581.03125 711.699219 600.460938 C 711.90625 618.851562 712.523438 622.820312 717.449219 633.058594 C 734.070312 667.75 766.910156 675.269531 800.773438 652.28125 C 807.957031 647.269531 813.910156 643.300781 814.113281 643.300781 C 814.113281 643.300781 814.320312 652.28125 814.523438 662.941406 C 814.730469 679.859375 815.550781 684.25 820.273438 694.28125 C 829.710938 713.710938 846.132812 723.738281 866.039062 722.28125 C 898.878906 719.769531 924.738281 693.230469 927.613281 658.96875 C 928.433594 648.941406 926.175781 629.089844 923.300781 622.398438 C 922.273438 619.691406 924.945312 619.269531 940.953125 619.058594 C 966.402344 618.851562 981.179688 615.300781 994.519531 606.308594 C 1008.070312 597.328125 1012.378906 588.96875 1012.378906 572.671875 C 1012.378906 542.789062 978.511719 512.28125 940.746094 507.898438 L 927.199219 506.429688 L 939.515625 498.078125 C 961.066406 483.449219 969.683594 461.71875 962.089844 441.660156 C 950.804688 411.359375 915.503906 391.089844 887.179688 398.828125 C 880.40625 400.710938 874.867188 404.46875 866.449219 413.03125 C 855.164062 424.941406 852.90625 429.960938 847.363281 455.449219 C 846.746094 458.589844 844.285156 461.511719 842.230469 462.140625 C 838.742188 462.96875 837.511719 461.089844 833.816406 450.230469 C 829.097656 435.601562 813.910156 414.078125 798.722656 400.078125 C 783.125 385.871094 759.109375 379.390625 742.074219 385.03125 Z M 895.390625 523.78125 C 905.855469 529 915.914062 545.300781 915.914062 557 C 915.914062 572.25 905.652344 587.929688 892.722656 592.941406 C 865.015625 603.808594 836.074219 578.730469 842.230469 549.480469 C 846.953125 526.5 874.660156 513.121094 895.390625 523.78125 Z M 895.390625 523.78125" stroke-linecap="round" />
</g>
		<g transform="matrix(1 0 0 1 -238.13 227.58)"  >
<path style="stroke: none; stroke-width: 1; stroke-dasharray: none; stroke-linecap: butt; stroke-dashoffset: 0; stroke-linejoin: miter; stroke-miterlimit: 4; fill: rgb(0,0,0); fill-rule: nonzero; opacity: 1;" vector-effect="non-scaling-stroke"  transform=" translate(-1074.87, -1428.08)" d="M 1761.5 457.328125 C 1713.878906 461.71875 1659.898438 480.109375 1623.371094 504.761719 C 1594.640625 523.78125 1559.75 563.269531 1544.96875 592.941406 C 1528.960938 625.328125 1519.109375 661.269531 1515.210938 701.808594 C 1512.539062 728.761719 1515.410156 779.320312 1521.160156 806.910156 L 1524.859375 825.078125 L 1272.621094 1078.121094 C 1080.71875 1270.558594 1019.558594 1330.738281 1016.890625 1329.691406 C 1015.039062 1329.070312 1010.941406 1327.820312 1007.660156 1327.191406 C 1004.160156 1326.558594 836.28125 1186.359375 564.339844 957.769531 C 323.800781 755.089844 126.566406 589.601562 126.15625 590.019531 C 125.949219 590.21875 127.59375 595.660156 130.054688 601.710938 C 132.3125 607.980469 143.804688 640.789062 155.503906 674.640625 C 167.203125 708.488281 180.339844 746.519531 184.855469 759.269531 C 193.679688 783.289062 212.972656 828.429688 216.664062 833.019531 C 217.691406 834.480469 218.308594 835.949219 217.898438 836.371094 C 217.488281 836.988281 174.179688 830.308594 121.640625 821.738281 C 69.097656 813.378906 24.355469 806.28125 22.097656 806.28125 C 19.429688 806.28125 42.210938 830.929688 92.703125 882.339844 C 151.605469 942.308594 166.585938 958.601562 163.507812 959.441406 C 161.25 960.058594 123.898438 964.660156 79.976562 969.679688 C 36.261719 974.480469 0.550781 979.078125 0.550781 979.710938 C 0.550781 980.328125 129.234375 1061.609375 286.242188 1160.441406 C 932.949219 1567.273438 895.183594 1543.453125 895.390625 1548.257812 C 895.390625 1549.71875 758.085938 1734.222656 722.785156 1779.980469 C 711.699219 1794.398438 691.585938 1819.683594 678.042969 1836.398438 C 664.496094 1853.113281 653.414062 1867.324219 653.207031 1868.160156 C 653.207031 1868.996094 656.695312 1868.160156 661.007812 1866.277344 C 688.507812 1854.785156 911.601562 1753.027344 952.652344 1733.386719 L 1002.929688 1709.355469 L 1028.179688 1734.011719 C 1121.558594 1825.324219 1253.53125 1882.578125 1388.578125 1890.515625 C 1405.199219 1891.351562 1419.359375 1892.816406 1420.179688 1893.441406 C 1420.800781 1894.277344 1422.03125 1919.558594 1423.058594 1949.648438 C 1423.878906 1979.945312 1425.730469 2010.246094 1426.960938 2017.140625 C 1430.859375 2038.035156 1439.070312 2068.332031 1446.449219 2088.183594 C 1450.148438 2098.421875 1454.460938 2111.167969 1455.691406 2116.390625 C 1459.179688 2130.390625 1465.128906 2146.269531 1471.699219 2158.597656 C 1474.78125 2164.65625 1479.089844 2173.851562 1480.929688 2178.867188 C 1485.25 2189.523438 1511.109375 2231.523438 1519.308594 2240.714844 C 1525.679688 2248.027344 1530.808594 2260.355469 1532.449219 2271.847656 C 1533.679688 2281.878906 1529.371094 2301.730469 1520.339844 2326.386719 C 1516.640625 2336.625 1510.691406 2355.847656 1507.199219 2368.800781 L 1501.050781 2392.414062 L 1507.621094 2396.382812 C 1517.671875 2402.652344 1526.699219 2401.816406 1534.089844 2393.875 C 1542.511719 2384.683594 1545.589844 2377.996094 1554.410156 2350.414062 L 1562 2326.386719 L 1576.160156 2356.683594 C 1583.96875 2373.398438 1591.558594 2390.113281 1593 2393.875 C 1596.28125 2401.605469 1597.511719 2401.605469 1615.78125 2392.621094 C 1631.789062 2384.683594 1631.578125 2381.964844 1613.929688 2345.816406 C 1598.941406 2315.308594 1596.480469 2307.160156 1603.050781 2309.25 C 1607.570312 2310.714844 1629.320312 2319.699219 1647.378906 2327.636719 C 1655.179688 2330.980469 1663.601562 2333.699219 1666.269531 2333.699219 C 1673.449219 2333.699219 1679.398438 2324.503906 1679.398438 2312.804688 C 1679.398438 2295.460938 1672.421875 2290.238281 1632.609375 2277.28125 C 1621.730469 2273.730469 1611.878906 2269.96875 1610.640625 2269.132812 C 1609.621094 2268.296875 1603.261719 2265.371094 1596.890625 2262.863281 C 1586.628906 2258.683594 1583.140625 2255.550781 1570.21875 2239.253906 C 1538.808594 2199.761719 1525.058594 2179.285156 1511.308594 2151.910156 C 1496.738281 2122.660156 1493.449219 2113.882812 1485.449219 2083.375 C 1482.78125 2073.347656 1478.679688 2059.554688 1476.21875 2052.660156 C 1462.46875 2012.542969 1455.691406 1967.410156 1455.691406 1912.039062 L 1455.691406 1890.726562 L 1467.800781 1890.726562 C 1491.808594 1890.726562 1548.871094 1881.949219 1592.789062 1871.5 C 1607.769531 1867.949219 1620.5 1865.652344 1621.109375 1866.070312 C 1621.730469 1866.695312 1622.960938 1882.160156 1623.980469 1900.335938 C 1625.011719 1918.722656 1626.238281 1936.277344 1626.859375 1939.828125 C 1627.679688 1943.171875 1630.558594 1959.261719 1633.21875 1975.351562 C 1640 2012.960938 1646.96875 2042.839844 1655.800781 2070.839844 C 1659.691406 2083.167969 1662.980469 2094.449219 1662.980469 2095.703125 C 1662.980469 2101.554688 1722.710938 2226.925781 1731.53125 2239.671875 C 1739.941406 2251.582031 1744.660156 2278.746094 1747.949219 2333.699219 L 1750.210938 2372.355469 L 1763.960938 2372.980469 C 1771.550781 2373.398438 1779.558594 2372.5625 1781.808594 2371.519531 C 1788.378906 2367.757812 1791.050781 2351.25 1788.179688 2330.355469 C 1785.71875 2311.550781 1786.539062 2304.445312 1791.25 2304.445312 C 1792.898438 2304.445312 1807.261719 2311.132812 1823.269531 2319.070312 C 1839.28125 2327.21875 1853.851562 2333.699219 1855.910156 2333.699219 C 1857.960938 2333.699219 1862.46875 2329.519531 1866.171875 2323.878906 C 1878.691406 2304.445312 1872.730469 2295.042969 1839.480469 2282.085938 C 1831.070312 2278.746094 1824.300781 2275.191406 1824.5 2274.148438 C 1824.710938 2271.640625 1834.148438 2268.714844 1862.058594 2262.445312 C 1887.71875 2256.804688 1894.488281 2253.878906 1897.160156 2246.566406 C 1899.210938 2240.925781 1897.980469 2225.878906 1894.898438 2220.867188 C 1892.640625 2217.105469 1874.171875 2220.03125 1832.300781 2231.105469 C 1782.019531 2244.058594 1784.691406 2244.058594 1774.839844 2231.3125 C 1759.859375 2211.878906 1757.390625 2207.703125 1757.390625 2203.730469 C 1757.390625 2201.433594 1751.851562 2190.359375 1744.871094 2178.867188 C 1731.121094 2156.089844 1708.949219 2103.644531 1699.71875 2071.882812 C 1696.429688 2060.601562 1689.871094 2040.332031 1685.351562 2026.960938 C 1680.839844 2013.585938 1675.300781 1995.828125 1673.238281 1987.46875 C 1667.289062 1963.441406 1662.371094 1919.558594 1662.160156 1885.710938 L 1661.949219 1854.367188 L 1688.640625 1845.800781 C 1732.761719 1831.382812 1785.71875 1807.355469 1825.941406 1783.742188 C 1840.921875 1774.757812 1873.761719 1751.773438 1891.820312 1737.566406 C 1911.929688 1721.683594 1960.78125 1673 1976.378906 1652.941406 C 2029.328125 1585.867188 2070.378906 1498.945312 2087.820312 1417.453125 C 2101.371094 1353.730469 2105.679688 1275.578125 2099.320312 1216.859375 C 2087 1106.328125 2056.21875 1016.480469 2006.140625 944.179688 C 1997.730469 932.070312 1988.078125 919.109375 1984.589844 915.351562 L 1978.019531 908.449219 L 1981.921875 901.769531 C 2000.390625 870.011719 2011.070312 845.769531 2020.511719 814.011719 C 2028.71875 785.800781 2030.769531 774.101562 2032.199219 741.5 L 2033.441406 713.5 L 2092.550781 699.921875 C 2138.308594 689.480469 2151.039062 685.921875 2148.980469 684.039062 C 2147.550781 682.578125 2122.921875 666.699219 2094.601562 648.730469 C 2066.070312 630.550781 2042.671875 615.089844 2042.671875 614.25 C 2042.671875 613.210938 2063.609375 588.550781 2089.058594 559.511719 C 2114.710938 530.25 2137.078125 504.761719 2138.71875 502.679688 C 2141.800781 499.121094 2141.390625 499.121094 2132.980469 502.878906 C 2117.171875 509.988281 1994.640625 566.398438 1991.160156 568.28125 C 1988.488281 569.75 1986.230469 567.660156 1980.480469 558.878906 C 1965.5 535.898438 1928.359375 501.210938 1900.03125 484.078125 C 1869.039062 465.058594 1855.699219 459.839844 1833.539062 457.539062 C 1810.339844 455.03125 1788.179688 455.03125 1761.5 457.328125 Z M 1761.5 457.328125" stroke-linecap="round" />
</g>
		<g transform="matrix(1 0 0 1 -74.41 -531.09)"  >
<path style="stroke: none; stroke-width: 1; stroke-dasharray: none; stroke-linecap: butt; stroke-dashoffset: 0; stroke-linejoin: miter; stroke-miterlimit: 4; fill: rgb(0,0,0); fill-rule: nonzero; opacity: 1;" vector-effect="non-scaling-stroke"  transform=" translate(-1238.59, -669.41)" d="M 1226.640625 545.929688 C 1214.941406 551.148438 1201.398438 576.851562 1198.121094 600.460938 C 1196.679688 609.660156 1194.628906 612.160156 1191.960938 607.78125 C 1191.140625 606.519531 1186.210938 603.179688 1180.671875 600.460938 C 1165.890625 592.941406 1151.121094 593.148438 1140.039062 601.511719 C 1118.691406 617.179688 1111.710938 645.390625 1124.019531 667.53125 C 1130.800781 679.859375 1139.621094 684.039062 1160.148438 684.460938 C 1176.359375 684.878906 1177.589844 685.300781 1178.210938 689.480469 C 1178.820312 692.398438 1176.570312 696.578125 1171.839844 701.589844 C 1150.5 724.160156 1150.710938 751.109375 1172.25 768.460938 C 1182.308594 776.609375 1190.320312 779.109375 1205.910156 779.109375 C 1221.101562 779.109375 1231.980469 772.640625 1237.320312 760.308594 C 1239.371094 755.710938 1241.628906 751.949219 1242.238281 751.949219 C 1242.859375 751.949219 1244.699219 756.339844 1245.941406 761.769531 C 1250.039062 777.230469 1255.578125 784.550781 1268.101562 790.820312 C 1286.570312 800.011719 1304.429688 796.039062 1324.128906 777.859375 C 1344.25 759.46875 1348.351562 733.558594 1335.011719 709.320312 L 1328.648438 698.039062 L 1336.238281 696.578125 C 1341.171875 695.738281 1346.5 692.398438 1351.429688 686.96875 C 1358.820312 679.238281 1359.230469 677.769531 1359.230469 665.660156 C 1359.019531 648.519531 1354.101562 637.660156 1339.320312 622.609375 C 1320.230469 603.601562 1298.679688 596.488281 1283.5 604.640625 L 1277.75 607.570312 L 1276.519531 595.449219 C 1274.261719 573.511719 1264.199219 551.570312 1253.941406 545.71875 C 1247.988281 542.371094 1234.648438 542.371094 1226.640625 545.929688 Z M 1269.328125 657.300781 C 1290.679688 669.828125 1281.851562 703.890625 1257.429688 703.890625 C 1245.53125 703.890625 1234.03125 691.558594 1234.03125 678.820312 C 1234.03125 670.878906 1240.191406 660.429688 1246.960938 657.089844 C 1255.578125 652.910156 1261.738281 652.910156 1269.328125 657.300781 Z M 1269.328125 657.300781" stroke-linecap="round" />
</g>
		<g transform="matrix(1 0 0 1 1150.63 -79.6)"  >
<path style="stroke: none; stroke-width: 1; stroke-dasharray: none; stroke-linecap: butt; stroke-dashoffset: 0; stroke-linejoin: miter; stroke-miterlimit: 4; fill: rgb(0,0,0); fill-rule: nonzero; opacity: 1;" vector-effect="non-scaling-stroke"  transform=" translate(-2463.63, -1120.9)" d="M 2367.148438 942.511719 C 2349.710938 947.53125 2331.851562 965.5 2324.058594 985.769531 C 2317.898438 1001.640625 2319.128906 1016.691406 2327.949219 1035.289062 C 2334.730469 1049.5 2354.019531 1069.558594 2371.261719 1080.421875 C 2379.878906 1085.851562 2381.320312 1087.519531 2381.320312 1093.371094 L 2381.320312 1100.269531 L 2370.640625 1096.511719 C 2358.539062 1092.121094 2333.5 1091.289062 2324.46875 1094.839844 C 2321.390625 1095.878906 2315.839844 1099.851562 2312.148438 1103.398438 C 2300.25 1115.109375 2298.199219 1143.109375 2307.640625 1161.910156 C 2312.96875 1172.570312 2326.929688 1188.03125 2334.929688 1192.210938 C 2342.53125 1196.179688 2368.390625 1194.921875 2375.570312 1190.328125 C 2378.238281 1188.660156 2382.75 1185.519531 2385.828125 1183.640625 L 2391.371094 1179.878906 L 2385.421875 1198.269531 C 2376.589844 1224.589844 2375.570312 1239.011719 2381.320312 1257.820312 C 2386.859375 1276.828125 2396.089844 1288.738281 2410.460938 1296.058594 C 2438.78125 1310.46875 2473.671875 1295.851562 2488.859375 1263.25 C 2494.398438 1251.339844 2498.300781 1231.488281 2498.300781 1215.191406 C 2498.300781 1209.761719 2498.921875 1205.371094 2499.738281 1205.371094 C 2500.558594 1205.371094 2504.871094 1209.128906 2509.589844 1213.519531 C 2514.109375 1218.121094 2524.371094 1225.429688 2532.160156 1229.820312 C 2545.710938 1237.339844 2547.558594 1237.761719 2563.980469 1237.761719 C 2577.929688 1237.550781 2583.070312 1236.710938 2589.628906 1232.949219 C 2599.691406 1227.519531 2609.128906 1218.949219 2614.878906 1210.390625 C 2620.21875 1202.441406 2625.550781 1182.589844 2625.550781 1170.679688 C 2625.550781 1159.398438 2613.640625 1134.75 2603.789062 1126.179688 C 2594.761719 1118.03125 2576.910156 1108.839844 2561.519531 1104.238281 L 2549.820312 1100.890625 L 2565.820312 1085.230469 C 2600.71875 1051.171875 2604.820312 1022.539062 2578.339844 996.210938 C 2555.148438 973.019531 2518.621094 965.710938 2487.011719 977.820312 C 2470.589844 984.089844 2456.019531 998.71875 2446.789062 1018.148438 L 2438.78125 1034.871094 L 2438.78125 1018.988281 C 2438.78125 969.679688 2418.671875 939.589844 2386.039062 940.210938 C 2379.46875 940.210938 2371.058594 941.261719 2367.148438 942.511719 Z M 2482.289062 1104.238281 C 2491.121094 1108.839844 2494.199219 1115.109375 2494.199219 1128.691406 C 2494.199219 1139.339844 2493.378906 1141.640625 2488.449219 1146.871094 C 2473.878906 1161.488281 2450.480469 1157.730469 2442.070312 1139.550781 C 2437.550781 1129.941406 2438.988281 1119.699219 2446.171875 1110.089844 C 2454.179688 1099.429688 2468.339844 1097.140625 2482.289062 1104.238281 Z M 2482.289062 1104.238281" stroke-linecap="round" />
</g>
		<g transform="matrix(1 0 0 1 -966.24 383.95)"  >
<path style="stroke: none; stroke-width: 1; stroke-dasharray: none; stroke-linecap: butt; stroke-dashoffset: 0; stroke-linejoin: miter; stroke-miterlimit: 4; fill: rgb(0,0,0); fill-rule: nonzero; opacity: 1;" vector-effect="non-scaling-stroke"  transform=" translate(-346.76, -1584.45)" d="M 247.246094 1435.214844 C 235.957031 1443.363281 233.289062 1448.378906 230.417969 1464.46875 C 226.925781 1484.320312 231.238281 1508.140625 242.9375 1531.75 C 246.21875 1538.4375 248.886719 1544.285156 248.886719 1544.914062 C 248.886719 1545.539062 241.292969 1545.957031 232.058594 1545.957031 C 218.511719 1545.957031 212.972656 1547.003906 204.761719 1550.972656 C 184.441406 1560.585938 174.796875 1576.464844 174.589844 1600.078125 C 174.386719 1618.464844 177.464844 1628.703125 187.933594 1644.582031 C 194.703125 1654.820312 199.015625 1659 207.839844 1663.597656 C 217.898438 1668.820312 220.566406 1669.449219 232.058594 1668.402344 C 248.066406 1666.941406 260.792969 1661.507812 273.105469 1650.433594 L 282.546875 1641.867188 L 287.0625 1646.671875 C 291.167969 1650.851562 291.578125 1652.523438 289.9375 1659.835938 C 283.164062 1688.671875 291.578125 1718.132812 309.636719 1729.835938 C 323.800781 1738.820312 331.597656 1740.910156 348.632812 1739.863281 C 384.753906 1737.355469 409.179688 1712.910156 406.304688 1682.195312 C 405.691406 1675.714844 404.664062 1668.613281 403.84375 1666.730469 C 403.023438 1664.640625 406.921875 1667.359375 412.257812 1672.582031 C 426.828125 1686.582031 439.757812 1692.222656 456.792969 1692.222656 C 466.441406 1692.222656 473.007812 1690.96875 478.34375 1688.253906 C 488.402344 1683.03125 503.792969 1666.105469 510.15625 1653.148438 C 517.132812 1639.148438 521.035156 1612.613281 517.75 1600.285156 C 511.59375 1576.675781 496.40625 1558.496094 475.0625 1548.675781 C 468.699219 1545.75 463.15625 1543.035156 462.746094 1542.617188 C 462.335938 1542.40625 465.414062 1537.390625 469.519531 1531.75 C 474.035156 1525.273438 477.730469 1516.707031 479.164062 1509.601562 C 481.421875 1498.734375 481.21875 1497.691406 475.472656 1485.988281 C 470.75 1476.378906 466.851562 1471.992188 456.792969 1465.304688 C 437.503906 1451.929688 420.261719 1446.917969 395.632812 1446.707031 C 377.367188 1446.707031 373.878906 1447.335938 363.410156 1452.558594 C 351.917969 1458.410156 343.09375 1467.601562 339.191406 1478.257812 L 336.933594 1484.109375 L 333.035156 1477.632812 C 330.984375 1474.078125 322.980469 1464.46875 315.589844 1456.320312 C 290.757812 1429.574219 265.308594 1421.84375 247.246094 1435.214844 Z M 374.289062 1559.75 C 384.550781 1569.777344 385.988281 1587.332031 377.574219 1598.40625 C 373.878906 1603.417969 362.796875 1608.644531 355.816406 1608.644531 C 339.398438 1608.644531 325.441406 1592.972656 327.496094 1576.882812 C 330.367188 1554.945312 358.691406 1544.496094 374.289062 1559.75 Z M 374.289062 1559.75" stroke-linecap="round" />
</g>
</g>
</g>
</svg>