<?xml version="1.0" encoding="UTF-8"?>
<svg xmlns="http://www.w3.org/2000/svg" xmlns:xlink="http://www.w3.org/1999/xlink" width="3000" height="3000" viewBox="0 0 3000 3000">
<path fill-rule="nonzero" fill="rgb(77.929688%, 42.700195%, 29.393005%)" fill-opacity="1" d="M 1154.371094 393.601562 C 1018.441406 563.371094 903.148438 734.339844 760.320312 865.679688 C 711.570312 910.53125 659.671875 950.730469 602.578125 984.660156 C 586.921875 993.988281 570.71875 1002.839844 553.949219 1010.160156 C 527.789062 1021.648438 500.28125 1029.480469 471.808594 1029.601562 C 425.160156 1029.808594 375.660156 1004.28125 360.898438 960 C 343.410156 907.558594 377.820312 853.5 388.800781 799.289062 C 399.210938 747.75 387.988281 694.679688 384.238281 642.238281 C 380.488281 589.800781 386.308594 531.929688 423 494.25 C 463.378906 452.699219 532.800781 444.691406 564.269531 396.058594 C 590.789062 355.078125 581.789062 296.671875 613.558594 259.589844 C 634.199219 235.441406 667.800781 226.320312 699.539062 225.121094 C 731.308594 223.890625 763.050781 229.230469 794.820312 228.03125 C 838.828125 226.378906 881.671875 212.28125 925.648438 210.929688 C 1018.890625 208.109375 1109.191406 270.898438 1143.511719 356.851562 C 1144.679688 359.730469 1145.761719 362.609375 1146.78125 365.578125 C 1149.929688 374.730469 1152.511719 384.089844 1154.371094 393.601562 Z M 2302.019531 981.480469 C 2315.039062 935.011719 2351.941406 894.570312 2350.320312 846.300781 C 2349.121094 810.359375 2326.289062 778.738281 2300.519531 753.660156 C 2274.75 728.609375 2244.898438 707.371094 2223.121094 678.78125 C 2176.199219 617.25 2172.058594 529.621094 2120.039062 472.351562 C 2073.871094 421.5 1997.578125 406.171875 1930.171875 419.550781 C 1862.820312 432.960938 1802.941406 471.089844 1749.058594 513.660156 C 1749.480469 630.089844 1775.730469 725.21875 1813.890625 812.429688 C 1831.078125 851.730469 1850.671875 889.800781 1870.828125 927.691406 C 1895.460938 973.859375 1920.898438 1019.671875 1943.878906 1066.679688 C 1961.550781 1102.769531 1977.78125 1139.789062 1997.820312 1174.558594 C 2004.71875 1186.589844 2012.101562 1198.351562 2020.109375 1209.691406 C 2051.308594 1253.820312 2094.238281 1292.308594 2146.589844 1305.929688 C 2198.941406 1319.519531 2261.070312 1303.199219 2290.859375 1258.019531 C 2316.75 1218.808594 2314.199219 1167.691406 2307.121094 1121.191406 C 2300.011719 1074.78125 2289.359375 1026.78125 2302.019531 981.480469 "/>
<path fill-rule="nonzero" fill="rgb(36.108398%, 21.604919%, 16.50238%)" fill-opacity="1" d="M 1163.160156 358.589844 C 1157.640625 360.839844 1152.179688 363.148438 1146.78125 365.609375 C 1051.378906 408.691406 971.789062 483 910.679688 568.230469 C 846.058594 658.351562 800.578125 760.648438 760.890625 864.210938 C 760.710938 864.691406 760.5 865.199219 760.320312 865.679688 C 711.570312 910.53125 659.671875 950.730469 602.578125 984.660156 C 586.921875 993.988281 570.71875 1002.839844 553.949219 1010.160156 C 603.179688 943.589844 640.738281 867.691406 676.5 792.511719 C 726.570312 687.210938 776.011719 579.148438 854.550781 492.929688 C 928.621094 411.601562 1034.640625 351.421875 1143.570312 356.878906 C 1150.019531 357.210938 1156.589844 357.78125 1163.160156 358.589844 Z M 1776.539062 542.878906 C 1834.289062 666.988281 1847.460938 799.621094 1870.800781 927.71875 C 1895.429688 973.890625 1920.871094 1019.699219 1943.851562 1066.710938 C 1961.519531 1102.800781 1977.75 1139.820312 1997.789062 1174.589844 C 2034.328125 937.53125 1958.878906 704.699219 1776.539062 542.878906 "/>
<path fill-rule="nonzero" fill="rgb(80.076599%, 70.506287%, 64.646912%)" fill-opacity="1" d="M 1234.320312 2216.128906 C 1275.390625 2236.171875 1311.300781 2265.238281 1346.191406 2294.761719 C 1378.621094 2322.210938 1411.921875 2352.300781 1424.96875 2392.738281 C 1434.78125 2423.191406 1431.929688 2456.070312 1428.960938 2487.898438 C 1423.828125 2543.128906 1418.699219 2598.328125 1413.539062 2653.558594 C 1409.761719 2694.148438 1425.238281 2720.910156 1395.300781 2748.570312 C 1369.199219 2772.71875 1331.101562 2777.699219 1295.609375 2779.800781 C 1264.109375 2781.660156 1232.519531 2782.109375 1200.960938 2781.210938 C 1179.328125 2780.578125 1156.199219 2778.78125 1139.128906 2765.460938 C 1109.128906 2742.03125 1102.320312 2723.28125 1096.828125 2676.75 C 1089.300781 2520.929688 1085.28125 2367.480469 1081.289062 2214.058594 C 1146.089844 2185.589844 1193.25 2196.089844 1234.320312 2216.128906 Z M 1797.570312 2374.949219 C 1812.960938 2476.679688 1887.148438 2567.371094 1983.839844 2602.621094 C 1995.71875 2606.941406 2008.109375 2610.601562 2017.410156 2619.691406 C 2023.050781 2625.179688 2026.800781 2632.558594 2026.53125 2640.421875 C 2025.871094 2658.691406 2005.589844 2667.75 1990.800781 2678.128906 C 1971.179688 2691.871094 1958.308594 2714.28125 1954.921875 2737.921875 C 1952.398438 2755.410156 1966.140625 2771.039062 1983.808594 2771.011719 C 2027.761719 2770.980469 2113.679688 2770.859375 2155.980469 2770.378906 C 2169.898438 2770.230469 2181.691406 2760.210938 2184.300781 2746.53125 C 2200.109375 2663.28125 2244.960938 2584.171875 2237.96875 2499.808594 C 2233.621094 2447.25 2209.351562 2398.710938 2185.53125 2351.671875 C 2158.261719 2297.820312 2126.910156 2239.980469 2071.53125 2215.949219 C 2022.449219 2194.648438 1963.710938 2205.839844 1918.289062 2234.128906 C 1872.871094 2262.421875 1838.910156 2305.800781 1797.570312 2374.949219 "/>
<path fill-rule="nonzero" fill="rgb(97.65625%, 87.109375%, 80.46875%)" fill-opacity="1" d="M 2619.839844 2366.429688 C 2591.730469 2318.910156 2542.378906 2289.179688 2496.480469 2258.789062 C 2454.480469 2230.921875 2415.449219 2202.601562 2398.320312 2159.460938 C 2412.570312 2168.070312 2426.820312 2176.679688 2441.039062 2185.351562 C 2422.859375 2126.820312 2416.980469 2064.511719 2423.878906 2003.609375 C 2432.101562 2023.589844 2440.351562 2043.539062 2448.570312 2063.460938 C 2450.339844 1949.550781 2410.589844 1835.429688 2338.410156 1747.261719 C 2336.371094 1744.800781 2334.328125 1742.339844 2332.261719 1739.910156 C 2330.191406 1737.480469 2328.058594 1735.050781 2325.929688 1732.648438 C 2324.910156 1731.449219 2323.859375 1730.28125 2322.75 1729.140625 C 2316 1721.640625 2309.011719 1714.410156 2301.78125 1707.449219 C 2299.949219 1705.648438 2298.148438 1703.910156 2296.289062 1702.199219 C 2296.261719 1702.140625 2296.230469 1702.078125 2296.171875 1702.078125 C 2294.730469 1700.699219 2293.261719 1699.351562 2291.761719 1698 C 2290.589844 1696.921875 2289.480469 1695.839844 2288.308594 1694.878906 C 2287.171875 1693.800781 2286.03125 1692.78125 2284.859375 1691.789062 C 2280.71875 1688.101562 2276.488281 1684.5 2272.230469 1681.019531 C 2270.191406 1679.339844 2268.148438 1677.691406 2266.078125 1676.039062 C 2264.398438 1674.660156 2262.691406 1673.339844 2260.980469 1671.988281 C 2253 1665.75 2244.808594 1659.78125 2236.441406 1654.109375 C 2235.839844 1653.691406 2235.210938 1653.269531 2234.578125 1652.851562 C 2234.429688 1652.699219 2234.25 1652.609375 2234.101562 1652.488281 L 2234.070312 1652.488281 C 2242.921875 1650.238281 2251.738281 1647.570312 2260.410156 1644.539062 C 2272.679688 1640.398438 2284.738281 1635.601562 2296.648438 1630.621094 C 2351.28125 1607.820312 2404.828125 1580.429688 2448.691406 1540.679688 C 2492.519531 1500.898438 2526.148438 1447.558594 2532.960938 1388.761719 C 2520.089844 1410.839844 2498.851562 1427.878906 2474.488281 1435.679688 C 2513.398438 1372.710938 2532.210938 1297.558594 2527.558594 1223.699219 C 2522.910156 1149.839844 2494.828125 1077.601562 2448.359375 1020 C 2447.128906 1028.339844 2445.71875 1036.679688 2444.128906 1044.929688 C 2430.480469 1115.371094 2402.878906 1183.078125 2363.308594 1242.898438 C 2361.480469 1225.140625 2357.96875 1207.589844 2352.839844 1190.519531 C 2303.910156 1343.460938 2211 1481.941406 2088.300781 1585.5 C 2086.230469 1584.898438 2084.160156 1584.359375 2082.03125 1583.851562 C 2081.699219 1583.730469 2081.371094 1583.640625 2081.011719 1583.578125 C 2078.371094 1582.921875 2075.730469 1582.230469 2073.058594 1581.601562 C 2065.46875 1579.800781 2057.789062 1578.179688 2050.140625 1576.738281 C 1983.808594 1564.46875 1914.511719 1565.789062 1850.851562 1543.410156 C 1821.210938 1532.96875 1792.53125 1515.121094 1770.691406 1491.570312 C 1770.691406 1491.539062 1770.660156 1491.539062 1770.660156 1491.539062 C 1754.070312 1473.660156 1741.5 1452.539062 1735.5 1428.839844 C 1732.441406 1416.75 1731.089844 1404 1731.808594 1390.679688 C 1787.488281 1368.03125 1837.078125 1330.558594 1874.160156 1283.28125 C 1878.480469 1298.550781 1882.800781 1313.851562 1887.148438 1329.148438 C 1931.761719 1290.449219 1959 1232.519531 1961.429688 1168.769531 C 1963.289062 1138.5 1964.160156 1107.628906 1963.859375 1076.488281 C 1961.820312 888.359375 1915.351562 689.578125 1776.539062 542.851562 C 1766.730469 532.441406 1756.410156 522.300781 1745.671875 512.460938 C 1629.210938 405.988281 1477.980469 335.160156 1320.449219 326.160156 C 1162.890625 317.191406 1000.320312 373.109375 889.828125 485.789062 C 735.179688 643.648438 697.5 885.898438 557.519531 1051.5 C 570.449219 1055.191406 583.410156 1058.910156 595.320312 1063.769531 C 645.238281 1240.019531 807.871094 1378.648438 997.648438 1411.648438 C 993 1421.21875 988.289062 1430.789062 983.519531 1440.269531 C 931.078125 1545.691406 873.511719 1648.589844 811.078125 1748.429688 C 831.089844 1742.460938 851.101562 1736.519531 871.109375 1730.550781 C 846.390625 1807.800781 843.601562 1891.921875 863.191406 1970.609375 C 871.5 1959.238281 879.78125 1947.898438 888.121094 1936.53125 C 894.359375 2069.398438 950.398438 2199.359375 1042.890625 2295.03125 C 1046.550781 2276.339844 1050.210938 2257.679688 1053.871094 2238.988281 C 1131.78125 2353.921875 1246.441406 2443.441406 1376.101562 2498.101562 C 1383.390625 2501.191406 1390.710938 2504.160156 1398.089844 2507.011719 C 1395.71875 2575.230469 1395.210938 2643.539062 1396.589844 2711.820312 C 1397.070312 2735.550781 1427.070312 2778.148438 1501.46875 2787.121094 C 1553.128906 2793.359375 1607.488281 2785.261719 1651.199219 2757 C 1703.699219 2723.070312 1716.089844 2693.398438 1733.039062 2633.21875 C 1750.019531 2573.039062 1752.238281 2509.800781 1743.660156 2447.519531 C 1753.199219 2445.480469 1762.648438 2443.230469 1772.070312 2440.769531 C 1856.070312 2418.71875 1935.75 2379.148438 2007.449219 2323.410156 C 2014.621094 2317.828125 2021.699219 2312.128906 2028.691406 2306.21875 C 2095.621094 2475.03125 2262.660156 2599.589844 2443.289062 2620.078125 C 2443.980469 2629.589844 2444.671875 2639.039062 2442.539062 2648.96875 C 2416.558594 2660.160156 2397.179688 2684.039062 2389.109375 2711.039062 C 2381.761719 2735.671875 2400.179688 2760.359375 2425.859375 2760.179688 C 2476.859375 2759.820312 2528.308594 2759.851562 2582.21875 2761.648438 C 2600.101562 2762.25 2616.03125 2750.429688 2620.53125 2733.148438 C 2652.328125 2611.320312 2651.488281 2481.449219 2619.839844 2366.429688 "/>
<path fill-rule="nonzero" fill="rgb(77.929688%, 42.700195%, 29.393005%)" fill-opacity="1" d="M 1350.300781 997.441406 C 1338.75 927.75 1345.199219 856.320312 1356.691406 786.660156 C 1367.371094 721.980469 1386.539062 651.75 1441.019531 615.269531 C 1475.699219 592.078125 1519.230469 586.710938 1560.929688 586.648438 C 1602.628906 586.589844 1644.628906 591.121094 1685.910156 585.03125 C 1719.390625 580.109375 1753.320312 566.789062 1776.539062 542.878906 C 1915.351562 689.578125 1961.820312 888.359375 1963.859375 1076.519531 C 1927.53125 1090.171875 1886.371094 1086.511719 1848.78125 1097.070312 C 1770.601562 1118.96875 1719.871094 1197.839844 1643.398438 1225.171875 C 1576.890625 1248.898438 1499.371094 1227.988281 1446.03125 1181.699219 C 1392.691406 1135.378906 1361.789062 1067.101562 1350.300781 997.441406 Z M 1013.519531 584.011719 C 970.921875 566.070312 920.789062 575.25 880.140625 597.210938 C 839.460938 619.171875 806.398438 652.558594 773.941406 685.5 C 701.21875 759.269531 678.691406 873.539062 672.71875 976.980469 C 670.199219 1020.808594 675.660156 1069.859375 708.601562 1098.871094 C 746.070312 1131.871094 806.011719 1125.058594 848.101562 1098.238281 C 890.191406 1071.421875 919.378906 1029.058594 950.308594 989.878906 C 983.429688 947.910156 1019.851562 908.28125 1048.46875 863.101562 C 1077.089844 817.921875 1097.851562 765.691406 1095.238281 712.289062 C 1092.628906 658.890625 1062.808594 604.769531 1013.519531 584.011719 Z M 2398.320312 2159.488281 C 2412.570312 2168.101562 2426.820312 2176.710938 2441.039062 2185.378906 C 2422.859375 2126.851562 2416.980469 2064.539062 2423.878906 2003.640625 C 2432.101562 2023.621094 2440.351562 2043.570312 2448.570312 2063.488281 C 2450.339844 1949.578125 2410.589844 1835.460938 2338.410156 1747.289062 C 2336.371094 1744.828125 2334.328125 1742.371094 2332.261719 1739.941406 C 2330.191406 1737.511719 2328.058594 1735.078125 2325.929688 1732.679688 C 2324.910156 1731.480469 2323.859375 1730.308594 2322.75 1729.171875 C 2316 1721.671875 2309.011719 1714.441406 2301.78125 1707.480469 C 2299.949219 1705.679688 2298.148438 1703.941406 2296.289062 1702.230469 C 2296.261719 1702.171875 2296.230469 1702.109375 2296.171875 1702.109375 C 2294.730469 1700.730469 2293.261719 1699.378906 2291.761719 1698.03125 C 2290.589844 1696.949219 2289.480469 1695.871094 2288.308594 1694.910156 C 2287.171875 1693.828125 2286.03125 1692.808594 2284.859375 1691.820312 C 2280.71875 1688.128906 2276.488281 1684.53125 2272.230469 1681.050781 C 2270.191406 1679.371094 2268.148438 1677.71875 2266.078125 1676.070312 C 2264.398438 1674.691406 2262.691406 1673.371094 2260.980469 1672.019531 C 2253 1665.78125 2244.808594 1659.808594 2236.441406 1654.140625 C 2235.839844 1653.71875 2235.210938 1653.300781 2234.578125 1652.878906 C 2234.429688 1652.730469 2234.25 1652.640625 2234.101562 1652.519531 L 2234.070312 1652.519531 C 2233.441406 1652.070312 2232.808594 1651.648438 2232.179688 1651.261719 C 2230.351562 1650.03125 2228.488281 1648.800781 2226.628906 1647.570312 C 2224.769531 1646.339844 2222.910156 1645.140625 2220.988281 1643.96875 C 2220.960938 1643.96875 2220.960938 1643.941406 2220.929688 1643.941406 C 2277.480469 1586.339844 2323.078125 1518.03125 2354.460938 1443.691406 C 2334.121094 1453.5 2313.839844 1463.308594 2293.5 1473.121094 C 2398.351562 1358.339844 2453.21875 1199.910156 2444.128906 1044.929688 C 2430.480469 1115.371094 2402.878906 1183.078125 2363.308594 1242.898438 C 2361.480469 1225.140625 2357.96875 1207.589844 2352.839844 1190.519531 C 2303.910156 1343.460938 2210.96875 1481.96875 2088.300781 1585.5 C 2086.230469 1584.898438 2084.160156 1584.390625 2082.058594 1583.851562 C 2081.730469 1583.730469 2081.398438 1583.640625 2081.039062 1583.578125 C 2078.398438 1582.921875 2075.761719 1582.230469 2073.089844 1581.601562 C 2065.5 1579.800781 2057.820312 1578.179688 2050.171875 1576.738281 C 1983.839844 1564.46875 1914.539062 1565.789062 1850.878906 1543.410156 C 1821.238281 1532.96875 1792.558594 1515.121094 1770.71875 1491.570312 C 1771.109375 1521.808594 1757.488281 1553.820312 1741.320312 1580.609375 C 1717.859375 1619.550781 1688.191406 1658.488281 1687.53125 1703.910156 C 1686.570312 1768.859375 1745.878906 1830.929688 1723.261719 1891.800781 C 1705.441406 1939.890625 1647.449219 1956.449219 1606.289062 1986.929688 C 1557.089844 2023.378906 1517.578125 2071.46875 1493.070312 2127.570312 C 1482.628906 2151.480469 1470.359375 2178.628906 1459.558594 2206.050781 C 1459.558594 2206.078125 1459.53125 2206.078125 1459.53125 2206.109375 C 1449.78125 2230.828125 1441.199219 2255.761719 1436.21875 2278.738281 C 1425.78125 2326.769531 1421.878906 2356.738281 1424.128906 2379.929688 L 1424.128906 2379.960938 C 1426.320312 2402.941406 1434.511719 2419.171875 1448.191406 2439.75 C 1478.128906 2484.808594 1568.550781 2493.601562 1622.371094 2488.050781 C 1672.980469 2482.800781 1719.628906 2449.53125 1741.710938 2403.78125 L 1741.710938 2403.75 C 1743.121094 2400.898438 1744.378906 2397.960938 1745.578125 2394.988281 C 1752.179688 2378.550781 1755.839844 2360.941406 1760.039062 2343.601562 C 1764.71875 2324.398438 1770.03125 2305.53125 1780.710938 2289.058594 C 1815.601562 2235.328125 1894.351562 2225.761719 1932.359375 2174.160156 C 1960.171875 2136.390625 1959.511719 2085.660156 1962.148438 2038.769531 C 1964.761719 1991.910156 1975.53125 1939.261719 2015.339844 1914.449219 C 2054.761719 1889.851562 2109.601562 1904.28125 2142.359375 1937.25 C 2175.148438 1970.160156 2189.699219 2017.019531 2197.199219 2062.890625 C 2204.699219 2108.730469 2206.230469 2155.679688 2218.441406 2200.53125 C 2230.648438 2245.351562 2255.699219 2289.480469 2296.949219 2310.75 C 2339.878906 2332.949219 2393.460938 2326.171875 2436.210938 2303.609375 C 2458.53125 2291.820312 2478.390625 2276.28125 2496.539062 2258.730469 C 2454.480469 2230.949219 2415.449219 2202.601562 2398.320312 2159.488281 "/>
<path fill-rule="nonzero" fill="rgb(95.3125%, 39.208984%, 48.193359%)" fill-opacity="1" d="M 1260 1230.929688 C 1227.058594 1230.539062 1198.019531 1252.621094 1176.148438 1277.28125 C 1154.28125 1301.941406 1136.308594 1330.5 1110.238281 1350.691406 C 1084.171875 1370.878906 1046.101562 1380.808594 1018.378906 1363.019531 C 1001.371094 1352.101562 991.410156 1332.839844 986.128906 1313.339844 C 975.328125 1273.46875 981.71875 1229.28125 1003.320312 1194.089844 C 1024.921875 1158.898438 1061.460938 1133.21875 1101.871094 1124.789062 C 1109.578125 1156.261719 1129.949219 1184.460938 1157.429688 1201.679688 C 1184.910156 1218.898438 1219.171875 1224.929688 1260 1230.929688 "/>
<path fill-rule="nonzero" fill="rgb(36.108398%, 21.604919%, 16.50238%)" fill-opacity="1" d="M 915.71875 1100.21875 C 913.980469 1096.171875 912.570312 1091.160156 915.300781 1087.679688 C 918.121094 1084.050781 924.058594 1084.46875 927.75 1087.199219 C 931.441406 1089.929688 933.570312 1094.25 935.941406 1098.179688 C 957.570312 1134.570312 1008.03125 1147.738281 1047.628906 1132.800781 C 1082.878906 1119.480469 1108.800781 1087.710938 1120.949219 1051.828125 C 1079.25 1033.710938 1057.078125 999.179688 1041.148438 967.679688 C 1032.148438 949.890625 1026.839844 926.96875 1038.78125 911.011719 C 1046.578125 900.601562 1059.839844 895.921875 1072.589844 893.191406 C 1134.898438 879.808594 1199.550781 899.578125 1257.601562 925.890625 C 1280.578125 936.300781 1305.089844 949.980469 1313.339844 973.800781 C 1320.929688 995.761719 1311.660156 1021.109375 1294.800781 1037.128906 C 1277.96875 1053.148438 1254.871094 1061.101562 1231.890625 1064.699219 C 1206.71875 1068.660156 1180.800781 1067.910156 1155.871094 1062.601562 C 1152.058594 1070.308594 1145.519531 1077.988281 1141.078125 1085.878906 C 1121.640625 1120.378906 1138.351562 1167.480469 1171.019531 1189.828125 C 1203.71875 1212.179688 1247.339844 1213.199219 1285.289062 1201.921875 C 1323.269531 1190.640625 1356.898438 1168.5 1389.988281 1146.75 C 1395.871094 1142.878906 1402.078125 1138.890625 1409.128906 1138.289062 C 1416.148438 1137.691406 1424.101562 1141.769531 1425.269531 1148.730469 C 1426.050781 1153.320312 1423.769531 1157.851562 1421.28125 1161.808594 C 1397.851562 1199.21875 1353.71875 1217.640625 1311.511719 1230.570312 C 1271.101562 1242.960938 1228.289062 1252.5 1186.769531 1244.671875 C 1145.21875 1236.871094 1105.199219 1207.921875 1095.871094 1166.699219 C 1094.609375 1161.089844 1093.980469 1155.480469 1093.800781 1149.871094 C 1081.078125 1159.230469 1066.589844 1166.128906 1051.050781 1169.550781 C 997.378906 1181.488281 937.441406 1150.738281 915.71875 1100.21875 Z M 998.101562 844.890625 C 996.570312 793.53125 954.960938 744.03125 903.660156 741.03125 C 866.609375 738.871094 831.570312 759.300781 804.75 784.980469 C 781.648438 807.089844 762.238281 834.75 757.140625 866.308594 C 750.839844 905.28125 768.960938 947.160156 801.660156 969.269531 C 834.390625 991.378906 879.78125 992.191406 921.179688 969.539062 C 966.269531 944.851562 999.628906 896.21875 998.101562 844.890625 Z M 1540.109375 810.960938 C 1567.5 817.351562 1592.371094 834 1608.691406 856.890625 C 1612.320312 821.339844 1587.539062 784.949219 1553.128906 775.320312 C 1518.691406 765.691406 1478.640625 783.960938 1458.300781 821.851562 C 1483.050781 808.53125 1512.71875 804.601562 1540.109375 810.960938 Z M 919.890625 670.859375 C 945.421875 672.660156 971.339844 681.148438 995.339844 696.871094 C 989.011719 666.179688 958.621094 643.890625 927.328125 641.761719 C 896.070312 639.628906 865.351562 654.960938 843.601562 677.519531 C 868.828125 673.289062 894.359375 669.058594 919.890625 670.859375 Z M 997.679688 1411.648438 C 993.03125 1421.21875 988.320312 1430.789062 983.550781 1440.269531 C 1118.21875 1465.140625 1256.28125 1472.011719 1392.539062 1459.46875 C 1259.28125 1454.398438 1128.03125 1439.609375 997.679688 1411.648438 Z M 1731.839844 1390.738281 C 1679.578125 1407.390625 1626.75 1422.300781 1572.660156 1431.359375 C 1626.449219 1441.078125 1682.070312 1440.179688 1735.53125 1428.898438 C 1732.46875 1416.78125 1731.148438 1404.058594 1731.839844 1390.738281 Z M 1587.988281 1056.058594 C 1616.519531 1017.988281 1625.910156 964.738281 1604.878906 922.949219 C 1583.820312 881.160156 1529.671875 856.648438 1485.269531 874.351562 C 1453.171875 887.128906 1431.511719 917.789062 1418.761719 949.53125 C 1407.78125 976.859375 1402.050781 1007.339844 1409.910156 1035.390625 C 1419.601562 1070.039062 1450.980469 1097.488281 1487.101562 1102.859375 C 1523.191406 1108.230469 1561.800781 1091.039062 1587.988281 1056.058594 Z M 2407.679688 2716.949219 C 2405.039062 2720.429688 2403.359375 2724.660156 2402.878906 2729.011719 C 2402.371094 2733.480469 2403.449219 2737.921875 2404.679688 2742.179688 C 2405.398438 2743.828125 2405.339844 2746.140625 2406.929688 2747.21875 C 2408.699219 2748.328125 2411.101562 2746.5 2410.46875 2744.488281 C 2407.621094 2736.570312 2405.789062 2731.140625 2408.070312 2724.539062 C 2408.941406 2721.75 2410.378906 2719.320312 2412.691406 2716.078125 C 2413.109375 2715.121094 2414.21875 2715.148438 2413.769531 2713.289062 C 2411.578125 2710.078125 2409.148438 2715.421875 2407.679688 2716.949219 Z M 2443.140625 2710.648438 C 2441.699219 2709.78125 2440.289062 2710.828125 2439.390625 2711.941406 C 2437.648438 2713.679688 2436.148438 2715.628906 2434.769531 2717.671875 C 2431.078125 2722.738281 2430.148438 2729.371094 2430.929688 2735.488281 C 2431.289062 2738.578125 2432.039062 2741.578125 2433.03125 2744.519531 C 2433.511719 2745.808594 2433.660156 2747.460938 2435.011719 2748.179688 C 2437.171875 2749.53125 2440.078125 2747.308594 2439.328125 2744.851562 C 2433.808594 2730.210938 2437.050781 2722.828125 2444.101562 2713.558594 C 2444.640625 2712.539062 2444.128906 2711.21875 2443.140625 2710.648438 Z M 1979.039062 2718.960938 C 1976.851562 2719.859375 1976.25 2722.648438 1974.988281 2724.480469 C 1972.949219 2728.800781 1971.328125 2733.511719 1971.148438 2738.308594 C 1971.179688 2744.941406 1972.199219 2751.539062 1974.058594 2757.898438 C 1974.300781 2759.25 1974.988281 2760.808594 1976.550781 2760.898438 C 1978.351562 2761.261719 1980.03125 2759.308594 1979.460938 2757.570312 C 1977.058594 2748.121094 1974.988281 2741.160156 1977.511719 2732.28125 C 1978.738281 2728.378906 1979.011719 2727.71875 1981.078125 2724.269531 C 1983.179688 2722.019531 1982.609375 2718.421875 1979.039062 2718.960938 Z M 1441.289062 2688.988281 C 1434.390625 2693.820312 1427.96875 2699.820312 1425.808594 2708.25 C 1422.71875 2717.820312 1424.398438 2735.789062 1429.140625 2744.191406 C 1430.761719 2746.589844 1434.808594 2745.75 1435.5 2742.960938 C 1435.859375 2740.078125 1434.210938 2737.261719 1433.910156 2734.378906 C 1432.46875 2725.441406 1432.410156 2711.699219 1438.230469 2704.261719 C 1438.5 2703.839844 1440.328125 2701.621094 1443.121094 2699.21875 C 1444.621094 2697.691406 1446.929688 2696.730469 1447.769531 2694.691406 C 1449.628906 2690.910156 1444.859375 2686.738281 1441.289062 2688.988281 Z M 2003.730469 2718.808594 C 2001.511719 2721.808594 1999.410156 2724.960938 1998.390625 2728.621094 C 1995.179688 2737.230469 1996.46875 2746.589844 2000.128906 2754.839844 C 2001.210938 2760.480469 2008.828125 2758.738281 2006.609375 2753.429688 C 2002.410156 2744.671875 2001.210938 2734.320312 2004.960938 2725.171875 C 2005.980469 2722.859375 2007.300781 2720.671875 2008.710938 2718.570312 C 2009.011719 2718.121094 2009.101562 2717.550781 2008.949219 2717.011719 C 2007.089844 2713.589844 2005.050781 2716.921875 2003.730469 2718.808594 Z M 1485.179688 2690.578125 C 1479.628906 2695.261719 1473.839844 2700.480469 1471.949219 2707.800781 C 1467.929688 2720.789062 1471.078125 2740.53125 1475.429688 2749.320312 C 1477.140625 2751.839844 1481.339844 2750.941406 1482.058594 2748.03125 C 1482.511719 2745.480469 1480.828125 2743.050781 1480.53125 2740.5 C 1478.160156 2731.289062 1477.980469 2723.671875 1479.78125 2716.199219 C 1481.460938 2709.871094 1481.21875 2709.210938 1484.429688 2704.558594 C 1485.03125 2703.839844 1486.171875 2702.460938 1486.621094 2702.039062 C 1488.421875 2699.761719 1491.300781 2698.230469 1492.621094 2695.621094 C 1494.839844 2691.210938 1488.511719 2686.980469 1485.179688 2690.578125 Z M 1459.589844 2206.140625 C 1416.660156 2298.238281 1388.429688 2397.269531 1376.128906 2498.128906 C 1383.421875 2501.21875 1390.738281 2504.191406 1398.121094 2507.039062 C 1405.621094 2464.171875 1414.320312 2421.929688 1424.160156 2380.019531 C 1442.191406 2302.46875 1463.96875 2226.179688 1488.359375 2149.410156 C 1478.128906 2167.980469 1468.5 2186.910156 1459.589844 2206.140625 Z M 1733.519531 2215.800781 C 1736.460938 2278.679688 1738.890625 2341.140625 1741.679688 2403.871094 C 1742.308594 2418.421875 1742.96875 2433 1743.660156 2447.578125 C 1753.199219 2445.539062 1762.648438 2443.289062 1772.070312 2440.828125 C 1769.21875 2408.339844 1765.171875 2375.941406 1760.011719 2343.71875 C 1753.171875 2300.699219 1744.289062 2257.980469 1733.519531 2215.800781 Z M 2024.730469 2115.359375 C 1992.300781 2178.628906 1991.128906 2253.871094 2007.449219 2323.441406 C 2014.621094 2317.859375 2021.699219 2312.160156 2028.691406 2306.25 C 2013.421875 2243.191406 2011.800781 2178.960938 2024.730469 2115.359375 Z M 2101.050781 1589.25 C 2101.019531 1589.21875 2101.019531 1589.21875 2100.988281 1589.21875 C 2100.421875 1589.101562 2099.851562 1588.980469 2099.308594 1588.859375 C 2143.171875 1602.058594 2182.558594 1620.058594 2220.929688 1644.089844 C 2224.679688 1646.398438 2228.460938 1648.800781 2232.210938 1651.289062 C 2232.839844 1651.679688 2233.46875 1652.101562 2234.101562 1652.550781 C 2242.949219 1650.300781 2251.769531 1647.628906 2260.441406 1644.601562 C 2251.320312 1640.070312 2242.140625 1635.691406 2232.839844 1631.578125 C 2190.570312 1612.828125 2146.320312 1598.578125 2101.050781 1589.25 Z M 1144.199219 2692.800781 C 1139.039062 2698.5 1134.03125 2704.710938 1132.019531 2712.238281 C 1129.078125 2724.871094 1131.601562 2744.21875 1138.589844 2751.421875 C 1140.78125 2753.339844 1144.441406 2751.449219 1144.378906 2748.601562 C 1144.050781 2746.230469 1143.121094 2745.121094 1142.640625 2743.53125 C 1140.058594 2736.871094 1140.511719 2735.308594 1140.179688 2728.078125 C 1140.390625 2719.289062 1140.449219 2716.261719 1144.050781 2709.539062 C 1146.988281 2703.871094 1148.339844 2704.050781 1152.238281 2698.230469 C 1154.609375 2693.488281 1147.800781 2688.960938 1144.199219 2692.800781 Z M 1198.261719 2690.96875 C 1180.410156 2710.710938 1182.480469 2736.601562 1192.828125 2754.269531 C 1195.050781 2757.570312 1200.539062 2756.371094 1201.46875 2752.589844 C 1202.128906 2750.160156 1200.601562 2747.878906 1199.96875 2745.628906 C 1194.71875 2732.160156 1196.699219 2717.820312 1201.171875 2708.160156 C 1203.660156 2703.449219 1204.828125 2702.128906 1206.121094 2700.421875 C 1207.410156 2698.949219 1208.671875 2697.328125 1208.578125 2695.261719 C 1208.820312 2690.039062 1201.859375 2687.160156 1198.261719 2690.96875 "/>
<path fill-rule="nonzero" fill="rgb(97.65625%, 87.109375%, 80.46875%)" fill-opacity="1" d="M 969.75 831.421875 C 964.019531 844.320312 947.28125 851.011719 934.230469 845.609375 C 921.179688 840.210938 914.070312 823.648438 919.140625 810.480469 C 924.210938 797.308594 940.589844 789.78125 953.878906 794.488281 C 969.808594 800.128906 975.480469 818.519531 969.75 831.421875 Z M 946.46875 858.78125 C 937.261719 857.820312 928.859375 868.230469 931.800781 877.019531 C 934.710938 885.808594 947.671875 889.140625 954.480469 882.839844 C 961.261719 876.570312 959.699219 860.191406 946.46875 858.78125 Z M 1548.179688 898.710938 C 1535.160156 900.03125 1524.238281 912.691406 1525.019531 925.558594 C 1525.828125 938.429688 1538.191406 949.320312 1551.269531 948.628906 C 1564.351562 947.96875 1575.898438 935.851562 1575.75 922.949219 C 1575.601562 910.050781 1563.808594 897.121094 1548.179688 898.710938 Z M 1566.691406 954.71875 C 1558.53125 957.539062 1555.5 969.421875 1561.320312 975.539062 C 1567.140625 981.660156 1579.378906 979.320312 1582.679688 971.429688 C 1586.011719 963.601562 1578.390625 950.671875 1566.691406 954.71875 "/>
</svg>
