<?xml version="1.0" encoding="UTF-8" standalone="no" ?>
<!DOCTYPE svg PUBLIC "-//W3C//DTD SVG 1.1//EN" "http://www.w3.org/Graphics/SVG/1.1/DTD/svg11.dtd">
<svg xmlns="http://www.w3.org/2000/svg" xmlns:xlink="http://www.w3.org/1999/xlink" version="1.1" width="1080" height="1080" viewBox="0 0 1080 1080" xml:space="preserve">
<desc>Created with Fabric.js 5.2.4</desc>
<defs>
</defs>
<rect x="0" y="0" width="100%" height="100%" fill="transparent"></rect>
<g transform="matrix(1 0 0 1 540 540)" id="2cdaf6ca-2a3a-4274-bd73-dc36c6a332cd"  >
</g>
<g transform="matrix(1 0 0 1 540 540)" id="31aacb45-abc9-4020-a585-dd1207330d06"  >
<rect style="stroke: none; stroke-width: 1; stroke-dasharray: none; stroke-linecap: butt; stroke-dashoffset: 0; stroke-linejoin: miter; stroke-miterlimit: 4; fill: rgb(255,255,255); fill-rule: nonzero; opacity: 1; visibility: hidden;" vector-effect="non-scaling-stroke"  x="-540" y="-540" rx="0" ry="0" width="1080" height="1080" />
</g>
<g transform="matrix(1.95 0 0 1.95 483.55 540)"  >
<path style="stroke: rgb(0,0,0); stroke-width: 0; stroke-dasharray: none; stroke-linecap: butt; stroke-dashoffset: 0; stroke-linejoin: miter; stroke-miterlimit: 4; fill: rgb(0,0,0); fill-rule: nonzero; opacity: 1;" vector-effect="non-scaling-stroke"  transform=" translate(-200, -190)" d="M 151.35 307.2 L 264.35 307.2 C 264.35 291.14 263.20000000000005 287.95 236.60000000000002 287.95 C 240.85000000000002 275.2 258.12 244.35999999999999 267.72 244.35999999999999 C 276.22 244.35999999999999 286.35 244.82999999999998 286.35 264.2 C 286.35 286.2 323.37 321.68 332.35 307.2 C 345.73 285.64 309.35 292.21999999999997 309.35 240.2 C 309.35 169.04999999999998 350.87 179.17999999999998 350.87 139.2 C 350.87 119.19999999999999 345.35 116.49999999999999 345.35 102.19999999999999 C 345.35 83.30699999999999 362 84.404 358.76000000000005 68.73499999999999 C 356.52000000000004 57.911999999999985 354.77000000000004 49.231999999999985 353.47 36.143999999999984 C 352.54 26.856999999999985 352.24 16.958999999999985 342.6 17.356999999999985 C 331.27000000000004 17.824999999999985 326.97 37.77399999999999 309.35 39.204999999999984 C 291.77000000000004 40.631999999999984 276.78000000000003 24.237999999999985 269.97 26.579999999999984 C 263.23 28.900999999999986 265.35 47.204999999999984 269.35 60.204999999999984 C 275.64000000000004 80.63699999999999 289.35 107.19999999999999 264.35 111.19999999999999 C 239.35000000000002 115.19999999999999 196.35000000000002 119.19999999999999 165.35000000000002 160.2 C 134.35000000000002 201.2 135.49 249.32 123.35000000000002 264.2 C 82.59100000000002 314.15999999999997 40.82400000000003 293.65 40.82400000000003 335.2 C 40.82400000000003 353.81 72.34900000000002 367.2 77.34900000000002 361.2 C 82.34900000000002 355.2 34.86400000000002 337.33 87.99500000000002 316.2 C 133.39000000000001 298.15999999999997 137.44000000000003 294.48 151.35000000000002 307.2 z" stroke-linecap="round" />
</g>
</svg>