<?xml version="1.0" encoding="UTF-8" standalone="no" ?>
<!DOCTYPE svg PUBLIC "-//W3C//DTD SVG 1.1//EN" "http://www.w3.org/Graphics/SVG/1.1/DTD/svg11.dtd">
<svg xmlns="http://www.w3.org/2000/svg" xmlns:xlink="http://www.w3.org/1999/xlink" version="1.1" width="1080" height="1080" viewBox="0 0 1080 1080" xml:space="preserve">
<desc>Created with Fabric.js 5.2.4</desc>
<defs>
</defs>
<rect x="0" y="0" width="100%" height="100%" fill="transparent"></rect>
<g transform="matrix(1 0 0 1 540 540)" id="0507b213-61a7-4543-8f3e-f0cbfca08f97"  >
<rect style="stroke: none; stroke-width: 1; stroke-dasharray: none; stroke-linecap: butt; stroke-dashoffset: 0; stroke-linejoin: miter; stroke-miterlimit: 4; fill: rgb(255,255,255); fill-rule: nonzero; opacity: 1; visibility: hidden;" vector-effect="non-scaling-stroke"  x="-540" y="-540" rx="0" ry="0" width="1080" height="1080" />
</g>
<g transform="matrix(1 0 0 1 540 540)" id="a6abc4c6-beeb-41fd-91e7-fffec60de1ff"  >
</g>
<g transform="matrix(0.04 0 0 0.04 521.79 501.42)" id="path16"  >
<path style="stroke: rgb(0,0,0); stroke-width: 0; stroke-dasharray: none; stroke-linecap: butt; stroke-dashoffset: 0; stroke-linejoin: miter; stroke-miterlimit: 4; fill: rgb(35,31,32); fill-rule: nonzero; opacity: 1;" vector-effect="non-scaling-stroke"  transform=" translate(-8149.89, -4764.62)" d="M 5391.25 4162.69 C 6504.64 4817.51 7699.44 5248.99 8971.93 5467.28 C 7630.96 5436.77 6486.12 4868.24 5391.25 4162.69 Z M 11265.1 4669.25 C 11123.4 4732.12 10997.6 4762.52 10871.5 4788.66 C 10172.8 4933.51 9467.07 4959.88 8756.75 4914.38 C 8276.19 4883.61 7801.92 4812.36 7332.07 4708.57 C 6660.35 4560.22 6054.5 4266.5 5492.07 3877.09 C 4819.62 3411.54 4148.9 2943.44 3474.53 2480.66 C 3396.6600000000003 2427.25 3374.65 2369.7799999999997 3374.7000000000003 2279.94 C 3375.0800000000004 1694.3600000000001 3217.9100000000003 1158.27 2855.9300000000003 690.4750000000001 C 2629.32 397.6250000000001 2344.76 179.2430000000001 2000.1500000000003 42.76850000000013 C 1933.7600000000002 16.453800000000133 1849.2200000000003 -34.78379999999987 1791.6600000000003 35.50930000000013 C 1737.9300000000003 101.14500000000012 1805.6100000000004 170.41000000000014 1836.7600000000002 231.99300000000014 C 1905.7400000000002 368.34700000000015 1987.9200000000003 497.8030000000001 2042.8000000000002 641.5960000000001 C 2179.1000000000004 998.6290000000001 2186.7200000000003 1352.7600000000002 2029.2800000000002 1706.4 C 1933.4800000000002 1921.52 1815.13 2123.1400000000003 1670.0800000000002 2307.95 C 1413.8300000000002 2634.4399999999996 1068.5 2735.16 669.6030000000002 2688.7 C 505.4710000000002 2669.58 342.31300000000016 2641.9399999999996 178.0570000000002 2624.21 C 115.46500000000019 2617.44 36.21350000000018 2602.8 6.961490000000197 2682.35 C -21.992699999999804 2761.11 45.398600000000194 2801.46 98.15560000000019 2838.18 C 405.31200000000024 3052.1499999999996 745.9480000000002 3185.5299999999997 1113.5500000000002 3250.81 C 1559.9300000000003 3330.11 2002.3100000000002 3290.19 2443.34 3204.83 C 2581.13 3178.15 2720.4 3161.33 2861.27 3157.58 C 2959.81 3154.98 3019.15 3193.15 3064.88 3285.29 C 3587.36 4337.83 4250.67 5288.59 5119.1900000000005 6087.08 C 5882.31 6788.68 6748.55 7318.94 7727.6900000000005 7669.38 C 8109.950000000001 7806.1900000000005 8438.98 8043.62 8725.900000000001 8333.64 C 8758.45 8366.529999999999 8785.36 8406.38 8809.020000000002 8446.46 C 8905.200000000003 8609.33 8880.100000000002 8766.589999999998 8739.510000000002 8893.31 C 8648.040000000003 8975.769999999999 8539.940000000002 9032.029999999999 8430.630000000003 9085.97 C 8315.810000000003 9142.599999999999 8200.270000000002 9197.63 8085.760000000003 9254.76 C 8041.480000000003 9276.87 8010.020000000003 9310.12 8012.680000000003 9364.67 C 8015.400000000003 9420.31 8044.980000000003 9458.57 8093.500000000003 9481.63 C 8165.310000000003 9515.769999999999 8242.860000000002 9524.869999999999 8321.260000000002 9527.589999999998 C 8863.640000000001 9546.359999999999 9364.050000000003 9406.099999999999 9831.840000000002 9135.179999999998 C 10169.600000000002 8939.559999999998 10463.900000000001 8687.96 10746.100000000002 8423.149999999998 C 10936.800000000003 8244.359999999997 11144.900000000001 8141.169999999998 11408.800000000003 8099.079999999998 C 12301.400000000003 7956.739999999998 13145.000000000004 7664.189999999998 13922.100000000002 7195.5999999999985 C 14371.000000000002 6924.829999999998 14784.400000000001 6609.899999999999 15113.100000000002 6194.659999999998 C 15355.500000000002 5888.549999999998 15518.400000000001 5550.749999999998 15534.300000000003 5153.999999999998 C 15537.400000000003 5079.589999999998 15531.500000000004 5004.149999999998 15522.200000000003 4930.149999999998 C 15513.300000000003 4860.299999999997 15537.500000000002 4810.419999999998 15589.000000000002 4766.309999999998 C 15679.300000000001 4689.029999999998 15773.000000000002 4616.619999999998 15872.000000000002 4550.889999999998 C 15978.700000000003 4480.069999999998 16084.600000000002 4408.129999999997 16173.800000000001 4314.629999999997 C 16210.7 4275.909999999997 16243.7 4234.439999999998 16267.1 4186.389999999998 C 16352.9 4010.0799999999977 16263.9 3872.1599999999976 16068.9 3875.8899999999976 C 15982.199999999999 3877.5499999999975 15904.1 3908.5599999999977 15826 3939.7399999999975 C 15163.4 4204.059999999998 14485.2 4413.909999999997 13782.3 4542.499999999997 C 13566.9 4581.919999999997 13353.199999999999 4571.389999999998 13139.3 4547.379999999997 C 13010.5 4532.929999999998 12882.599999999999 4533.479999999998 12757 4556.129999999997 C 12686.3 4568.879999999997 12651.1 4546.019999999998 12608.7 4495.769999999998 C 12222.800000000001 4038.319999999998 11762.6 3682.0599999999977 11187.2 3496.7899999999977 C 10740.2 3352.859999999998 10283.400000000001 3315.589999999998 9821.44 3425.3899999999976 C 9736.87 3445.5299999999975 9637.36 3465.439999999998 9632.09 3575.1799999999976 C 9626.95 3681.4699999999975 9724.23 3707.3899999999976 9802.02 3735.2299999999977 C 9961.12 3792.1599999999976 10119.300000000001 3848.2499999999977 10256 3952.549999999998 C 10385.5 4051.409999999998 10488.7 4170.419999999998 10547.8 4322.909999999998 C 10608.599999999999 4479.969999999998 10720.9 4570.899999999998 10884.4 4601.109999999998 C 11002.8 4622.959999999998 11121.3 4643.559999999998 11265.1 4669.249999999998" stroke-linecap="round" />
</g>
</svg>