<?xml version="1.0" encoding="UTF-8"?>
<svg version="1.1" viewBox="0 0 1111.3 913.99" xmlns="http://www.w3.org/2000/svg" xmlns:xlink="http://www.w3.org/1999/xlink">
 <defs>
  <linearGradient id="fb">
   <stop stop-color="#7acef2" offset="0"/>
   <stop stop-color="#67adcc" offset="1"/>
  </linearGradient>
  <linearGradient id="d">
   <stop stop-color="#9a7117" offset="0"/>
   <stop stop-color="#698c00" offset="1"/>
  </linearGradient>
  <linearGradient id="fc">
   <stop stop-color="#e52e17" offset="0"/>
   <stop stop-color="#991e00" offset="1"/>
  </linearGradient>
  <linearGradient id="fa">
   <stop offset="0"/>
   <stop stop-opacity="0" offset="1"/>
  </linearGradient>
  <linearGradient id="c">
   <stop stop-color="#688b00" offset="0"/>
   <stop stop-color="#4caed9" offset="1"/>
  </linearGradient>
  <linearGradient id="b">
   <stop stop-color="#59ccff" offset="0"/>
   <stop stop-color="#4cadd9" offset="1"/>
  </linearGradient>
  <linearGradient id="a">
   <stop stop-color="#334dff" offset="0"/>
   <stop stop-color="#2132a6" offset=".88096"/>
   <stop stop-color="#192680" offset="1"/>
  </linearGradient>
  <linearGradient id="fw" x1="858.26" x2="840.03" y1="551.77" y2="490.64" gradientTransform="translate(-23.31 -17.662)" gradientUnits="userSpaceOnUse">
   <stop stop-color="#b2b2b2" offset="0"/>
   <stop stop-color="#fff" offset="1"/>
  </linearGradient>
  <radialGradient id="gc" cx="908.05" cy="504.56" r="10.424" gradientTransform="matrix(1.0684 .20004 -.37738 2.0156 105.16 -714.6)" gradientUnits="userSpaceOnUse">
   <stop stop-color="#847139" offset="0"/>
   <stop stop-color="#4d4121" offset="1"/>
  </radialGradient>
  <linearGradient id="fx" x1="826.54" x2="814.13" y1="558.69" y2="496.14" gradientTransform="translate(-23.31 -17.662)" gradientUnits="userSpaceOnUse" xlink:href="#fa"/>
  <linearGradient id="fy" x1="710.71" x2="730.86" y1="538.53" y2="582.44" gradientTransform="translate(-23.31 -17.662)" gradientUnits="userSpaceOnUse" xlink:href="#fa"/>
  <linearGradient id="fz" x1="611.06" x2="736.21" y1="584.13" y2="525.7" gradientTransform="translate(-23.31 -17.662)" gradientUnits="userSpaceOnUse" xlink:href="#fa"/>
  <radialGradient id="gd" cx="704.11" cy="574.67" r="27.204" gradientTransform="matrix(1.0788 -.6372 .37827 .64045 -297.04 638.9)" gradientUnits="userSpaceOnUse" xlink:href="#d"/>
  <radialGradient id="ge" cx="715.98" cy="592.72" r="32.251" gradientTransform="matrix(1.6468 -.63428 .31059 .80639 -670.51 549.58)" gradientUnits="userSpaceOnUse" xlink:href="#c"/>
  <radialGradient id="gf" cx="703.92" cy="601.77" r="43.666" gradientTransform="matrix(1.29 -.54627 .236 .55731 -367.3 634.15)" gradientUnits="userSpaceOnUse" xlink:href="#c"/>
  <radialGradient id="gg" cx="732.05" cy="607.86" r="16.957" gradientTransform="matrix(2.4094 -1.783 .82911 1.1204 -1559.4 1214.6)" gradientUnits="userSpaceOnUse" xlink:href="#c"/>
  <radialGradient id="gh" cx="739.37" cy="614.89" r="15.891" gradientTransform="matrix(2.0958 -1.6211 .79754 1.0311 -1324.1 1160.8)" gradientUnits="userSpaceOnUse" xlink:href="#c"/>
  <radialGradient id="gi" cx="745.31" cy="621.04" r="16.189" gradientTransform="matrix(1.9298 -1.7498 .78495 .86574 -1204.3 1371)" gradientUnits="userSpaceOnUse" xlink:href="#c"/>
  <radialGradient id="gj" cx="761.53" cy="625.3" r="22.028" gradientTransform="matrix(.80157 .80499 -1.5801 1.5733 1115.8 -989.2)" gradientUnits="userSpaceOnUse" xlink:href="#c"/>
  <radialGradient id="gk" cx="777.17" cy="630.54" r="17.941" gradientTransform="matrix(1.163 .53873 -.93349 2.0152 438.64 -1076.5)" gradientUnits="userSpaceOnUse" xlink:href="#c"/>
  <radialGradient id="gl" cx="790.26" cy="628.74" r="15.689" gradientTransform="matrix(1.3095 .6882 -1.1262 2.143 440.16 -1280.2)" gradientUnits="userSpaceOnUse" xlink:href="#c"/>
  <radialGradient id="gm" cx="808.47" cy="639.76" r="11.954" gradientTransform="matrix(1.735 .25419 -.55674 3.8001 -261.34 -2016.8)" gradientUnits="userSpaceOnUse" xlink:href="#c"/>
  <radialGradient id="gn" cx="820.08" cy="640.19" r="15.003" gradientTransform="matrix(1.488 .36928 -.60099 2.4216 -38.736 -1230.6)" gradientUnits="userSpaceOnUse" xlink:href="#c"/>
  <radialGradient id="go" cx="837.06" cy="635.04" r="14.586" gradientTransform="matrix(1.4632 .30121 -.49494 2.4043 -96.752 -1162)" gradientUnits="userSpaceOnUse" xlink:href="#c"/>
  <radialGradient id="gp" cx="853.56" cy="636.81" r="8.5287" gradientTransform="matrix(1.8251 .28466 -.46591 2.9873 -430.9 -1527)" gradientUnits="userSpaceOnUse" xlink:href="#c"/>
  <radialGradient id="gq" cx="863.97" cy="634.63" r="8.2934" gradientTransform="matrix(1.4512 .12408 -.19294 2.2565 -290.67 -923.26)" gradientUnits="userSpaceOnUse" xlink:href="#c"/>
  <radialGradient id="gr" cx="874.65" cy="633.33" r="8.6297" gradientTransform="matrix(1.3717 .28876 -.39495 1.8762 -98.323 -825.69)" gradientUnits="userSpaceOnUse" xlink:href="#c"/>
  <radialGradient id="gs" cx="887.27" cy="629.66" r="12.432" gradientTransform="matrix(1.4149 -.21018 .16686 1.1233 -496.51 91.322)" gradientUnits="userSpaceOnUse" xlink:href="#c"/>
  <radialGradient id="gt" cx="877.42" cy="655.34" r="18.475" gradientTransform="matrix(.70579 .135 -.27803 1.4536 417.52 -433.74)" gradientUnits="userSpaceOnUse" xlink:href="#b"/>
  <radialGradient id="gu" cx="902.77" cy="639.29" r="9.9486" gradientTransform="matrix(.99941 -.034446 .066741 1.9364 -65.441 -584.46)" gradientUnits="userSpaceOnUse" xlink:href="#b"/>
  <radialGradient id="gv" cx="916.8" cy="648.63" r="16.633" gradientTransform="matrix(.77478 -.11996 .22718 1.4673 35.811 -209.99)" gradientUnits="userSpaceOnUse" xlink:href="#b"/>
  <radialGradient id="gw" cx="948.04" cy="650.87" r="35.776" gradientTransform="matrix(.1976 -.3042 1.0931 .71004 25.946 458.44)" gradientUnits="userSpaceOnUse" xlink:href="#b"/>
  <radialGradient id="gx" cx="684.46" cy="568.04" r="20.971" gradientTransform="matrix(1.2837 -.53561 .22482 .53884 -345.21 611.63)" gradientUnits="userSpaceOnUse" xlink:href="#d"/>
  <radialGradient id="gy" cx="676.38" cy="582.9" r="15.061" gradientTransform="matrix(1.6611 -.81468 .46852 .95527 -743.53 559.8)" gradientUnits="userSpaceOnUse" xlink:href="#d"/>
  <radialGradient id="gz" cx="665.38" cy="590.46" r="26.202" gradientTransform="matrix(1.3143 -.77682 .49639 .83983 -525.53 594.24)" gradientUnits="userSpaceOnUse" xlink:href="#d"/>
  <radialGradient id="ha" cx="647.88" cy="602.23" r="37.013" gradientTransform="matrix(1.3997 -.62829 .26229 .58433 -440.23 640.15)" gradientUnits="userSpaceOnUse" xlink:href="#d"/>
  <radialGradient id="hb" cx="709.97" cy="609.85" r="36.836" gradientTransform="matrix(1.4344 -.49546 .19549 .56597 -450.97 602.7)" gradientUnits="userSpaceOnUse" xlink:href="#c"/>
  <radialGradient id="hc" cx="715.81" cy="614.59" r="30.295" gradientTransform="matrix(1.3311 -.4903 .15798 .4289 -357.42 691.07)" gradientUnits="userSpaceOnUse" xlink:href="#c"/>
  <radialGradient id="hd" cx="720.91" cy="623.6" r="26.709" gradientTransform="matrix(.97277 -.61938 .36467 .57274 -231.08 698.55)" gradientUnits="userSpaceOnUse" xlink:href="#c"/>
  <radialGradient id="he" cx="730.17" cy="629.76" r="25.217" gradientTransform="matrix(.92554 -.71349 .31762 .41202 -168.96 877.43)" gradientUnits="userSpaceOnUse" xlink:href="#c"/>
  <radialGradient id="hf" cx="742.41" cy="638.43" r="28.729" gradientTransform="matrix(.82403 -.65678 .36904 .46302 -128.28 814.73)" gradientUnits="userSpaceOnUse" xlink:href="#c"/>
  <radialGradient id="hg" cx="746.4" cy="657.28" r="29.446" gradientTransform="matrix(.7796 -.62628 .20721 .25794 5.0028 937.54)" gradientUnits="userSpaceOnUse" xlink:href="#b"/>
  <radialGradient id="hh" cx="764.17" cy="662.42" r="31.851" gradientTransform="matrix(.32678 .27907 -.6477 .75844 920.19 -70.677)" gradientUnits="userSpaceOnUse" xlink:href="#b"/>
  <radialGradient id="hi" cx="784.11" cy="664.45" r="25.993" gradientTransform="matrix(.3947 .30127 -.78491 1.0283 972.85 -272.71)" gradientUnits="userSpaceOnUse" xlink:href="#b"/>
  <radialGradient id="hj" cx="783.79" cy="669.55" r="30.462" gradientTransform="matrix(.23683 .16866 -.8022 1.1264 1115.1 -235.16)" gradientUnits="userSpaceOnUse" xlink:href="#b"/>
  <radialGradient id="hk" cx="796.72" cy="675.2" r="26.807" gradientTransform="matrix(.29226 .20621 -.69237 .98131 1008 -169.33)" gradientUnits="userSpaceOnUse" xlink:href="#b"/>
  <radialGradient id="hl" cx="814.66" cy="676.41" r="23.55" gradientTransform="matrix(.50592 .23897 -.60849 1.2882 790.79 -407.3)" gradientUnits="userSpaceOnUse" xlink:href="#b"/>
  <radialGradient id="hm" cx="836.35" cy="674.32" r="29.116" gradientTransform="matrix(.43441 .19599 -.47257 1.0474 769.19 -213.94)" gradientUnits="userSpaceOnUse" xlink:href="#b"/>
  <radialGradient id="hn" cx="858.02" cy="673.41" r="21.925" gradientTransform="matrix(.53984 .25938 -.75389 1.5691 879.2 -621.96)" gradientUnits="userSpaceOnUse" xlink:href="#b"/>
  <radialGradient id="ho" cx="873.7" cy="682.31" r="16.237" gradientTransform="matrix(.75543 .3616 -.64973 1.3574 633.69 -576.32)" gradientUnits="userSpaceOnUse" xlink:href="#b"/>
  <radialGradient id="hp" cx="892.32" cy="678.97" r="14.947" gradientTransform="matrix(.7459 .16303 -.37837 1.7312 460.34 -656.31)" gradientUnits="userSpaceOnUse" xlink:href="#b"/>
  <radialGradient id="hq" cx="914.27" cy="681.72" r="16.937" gradientTransform="matrix(.87568 -.07538 .15984 1.8569 -18.617 -532.57)" gradientUnits="userSpaceOnUse" xlink:href="#b"/>
  <radialGradient id="hr" cx="943.6" cy="688.42" r="18.599" gradientTransform="matrix(.79794 -.16002 .31557 1.5736 -50.236 -261.8)" gradientUnits="userSpaceOnUse" xlink:href="#b"/>
  <radialGradient id="hs" cx="958.1" cy="682.19" r="28.475" gradientTransform="matrix(.47283 -.23107 .56136 1.1487 100.56 102.9)" gradientUnits="userSpaceOnUse" xlink:href="#b"/>
  <radialGradient id="ht" cx="982" cy="690.89" r="25.821" gradientTransform="matrix(.30958 -.21481 .72012 1.0378 157.16 167.07)" gradientUnits="userSpaceOnUse" xlink:href="#b"/>
  <radialGradient id="hu" cx="998.19" cy="695.62" r="21.049" gradientTransform="matrix(1.4306 1.3343 -.36688 .39336 -197.91 -927.17)" gradientUnits="userSpaceOnUse" xlink:href="#b"/>
  <radialGradient id="hv" cx="1008" cy="688.35" r="33.609" gradientTransform="matrix(.14526 -.27227 .98513 .52559 155.43 581.77)" gradientUnits="userSpaceOnUse" xlink:href="#b"/>
  <radialGradient id="hw" cx="600.65" cy="512.67" r="144.49" gradientTransform="matrix(.9261 -.45219 .14171 .29023 -53.713 652.62)" gradientUnits="userSpaceOnUse" xlink:href="#fb"/>
  <radialGradient id="hx" cx="635.15" cy="483.74" r="27.418" gradientTransform="matrix(1.1312 -.49783 .27115 .6161 -237.79 485.52)" gradientUnits="userSpaceOnUse" xlink:href="#d"/>
  <linearGradient id="ga" x1="682.31" x2="681.52" y1="306.09" y2="317.54" gradientTransform="translate(-23.31 -17.662)" gradientUnits="userSpaceOnUse" xlink:href="#fc"/>
  <radialGradient id="hy" cx="637.07" cy="303.48" r="33.502" gradientTransform="matrix(.96601 .34098 -.11039 .31273 31.845 -27.367)" gradientUnits="userSpaceOnUse" xlink:href="#b"/>
  <radialGradient id="hz" cx="666.54" cy="300.29" r="23.513" gradientTransform="matrix(.28067 -.35078 .85579 .68475 199.17 310.48)" gradientUnits="userSpaceOnUse" xlink:href="#b"/>
  <radialGradient id="ia" cx="679.2" cy="290.57" r="24.548" gradientTransform="matrix(.50588 -.37602 .72894 .98069 100.49 243.45)" gradientUnits="userSpaceOnUse" xlink:href="#b"/>
  <radialGradient id="ib" cx="689.15" cy="281.09" r="21.816" gradientTransform="matrix(.63422 -.36276 .83993 1.4685 -7.3244 100.49)" gradientUnits="userSpaceOnUse" xlink:href="#b"/>
  <radialGradient id="ic" cx="699.22" cy="278.36" r="18.039" gradientTransform="matrix(.88758 -.46064 1.0411 2.006 -234.5 23.607)" gradientUnits="userSpaceOnUse" xlink:href="#b"/>
  <radialGradient id="id" cx="642.86" cy="459.63" r="28.436" gradientTransform="matrix(1.7303 -.79626 .57144 1.2418 -755.47 383.09)" gradientUnits="userSpaceOnUse" xlink:href="#c"/>
  <radialGradient id="ie" cx="641" cy="450.9" r="21.727" gradientTransform="matrix(2.0421 -1.0502 .73355 1.4263 -1022.1 462.61)" gradientUnits="userSpaceOnUse" xlink:href="#c"/>
  <radialGradient id="if" cx="626.46" cy="443.88" r="21.511" gradientTransform="matrix(2.3609 -1.5117 .84663 1.3223 -1251.7 786.28)" gradientUnits="userSpaceOnUse" xlink:href="#c"/>
  <radialGradient id="ig" cx="617.4" cy="435.04" r="19.701" gradientTransform="matrix(2.5353 -1.3686 .76668 1.4203 -1304.7 644.45)" gradientUnits="userSpaceOnUse" xlink:href="#c"/>
  <radialGradient id="ih" cx="613.45" cy="415.56" r="16.3" gradientTransform="matrix(2.8892 .23241 -.14771 1.8362 -1120.8 -506.7)" gradientUnits="userSpaceOnUse" xlink:href="#c"/>
  <radialGradient id="ii" cx="614.3" cy="403.69" r="19.519" gradientTransform="matrix(2.9747 -.52844 .27121 1.5267 -1345.9 93.446)" gradientUnits="userSpaceOnUse" xlink:href="#c"/>
  <radialGradient id="ij" cx="617.5" cy="384.18" r="16.365" gradientTransform="matrix(2.8372 .1097 -.092229 2.3853 -1122.3 -617.61)" gradientUnits="userSpaceOnUse" xlink:href="#c"/>
  <radialGradient id="ik" cx="630.57" cy="367.43" r="9.1915" gradientTransform="matrix(3.3 .60201 -.33406 1.8312 -1350.9 -702.66)" gradientUnits="userSpaceOnUse" xlink:href="#c"/>
  <radialGradient id="il" cx="619.8" cy="367.99" r="18.43" gradientTransform="matrix(1.5405 .28838 -.22274 1.1899 -276.34 -267.61)" gradientUnits="userSpaceOnUse" xlink:href="#c"/>
  <radialGradient id="im" cx="624.24" cy="356.96" r="16.576" gradientTransform="matrix(2.134 .31553 -.19282 1.3041 -662.4 -323.35)" gradientUnits="userSpaceOnUse" xlink:href="#c"/>
  <radialGradient id="in" cx="634.27" cy="340.06" r="17.499" gradientTransform="matrix(2.2489 .73157 -.45698 1.4048 -660.07 -618.09)" gradientUnits="userSpaceOnUse" xlink:href="#c"/>
  <radialGradient id="io" cx="645.94" cy="325.08" r="17.32" gradientTransform="matrix(2.5125 .55139 -.334 1.5219 -891.71 -543.2)" gradientUnits="userSpaceOnUse" xlink:href="#c"/>
  <radialGradient id="ip" cx="619.98" cy="454.99" r="35.655" gradientTransform="matrix(1.2692 -1.0999 .41614 .48017 -379.54 907.38)" gradientUnits="userSpaceOnUse" xlink:href="#c"/>
  <radialGradient id="iq" cx="607.38" cy="451.85" r="30.425" gradientTransform="matrix(1.1895 -.99812 .46747 .55709 -349.61 791.79)" gradientUnits="userSpaceOnUse" xlink:href="#c"/>
  <radialGradient id="ir" cx="604.93" cy="440.92" r="30.653" gradientTransform="matrix(1.0228 -.67605 .52367 .79223 -267.97 485.86)" gradientUnits="userSpaceOnUse" xlink:href="#c"/>
  <radialGradient id="is" cx="601.86" cy="423.62" r="31.499" gradientTransform="matrix(1.0796 -.6163 .26389 .46225 -182.98 587.21)" gradientUnits="userSpaceOnUse" xlink:href="#c"/>
  <radialGradient id="it" cx="589.9" cy="426.73" r="27.532" gradientTransform="matrix(.8957 -.54455 .37231 .6124 -122.63 463.62)" gradientUnits="userSpaceOnUse" xlink:href="#c"/>
  <radialGradient id="iu" cx="583.02" cy="410.3" r="32.639" gradientTransform="matrix(.91508 -.35129 .13651 .3556 -29.81 452.08)" gradientUnits="userSpaceOnUse" xlink:href="#b"/>
  <radialGradient id="iv" cx="581.98" cy="395.17" r="39.804" gradientTransform="matrix(.92804 -.26893 .082359 .28421 -13.975 422.95)" gradientUnits="userSpaceOnUse" xlink:href="#b"/>
  <radialGradient id="iw" cx="590.88" cy="380.47" r="33.348" gradientTransform="matrix(1.0751 -.26293 .096526 .3947 -104.42 367.99)" gradientUnits="userSpaceOnUse" xlink:href="#b"/>
  <radialGradient id="ix" cx="583.21" cy="370.4" r="39.823" gradientTransform="matrix(.9631 -.17617 .040482 .22131 -16.784 376.05)" gradientUnits="userSpaceOnUse" xlink:href="#b"/>
  <radialGradient id="iy" cx="578.32" cy="360.27" r="35.152" gradientTransform="matrix(.99282 -.11007 .032773 .2956 -30.968 301.02)" gradientUnits="userSpaceOnUse" xlink:href="#b"/>
  <radialGradient id="iz" cx="593.45" cy="339.76" r="40.453" gradientTransform="matrix(.96099 -.063489 .020589 .31164 -7.154 256.86)" gradientUnits="userSpaceOnUse" xlink:href="#b"/>
  <radialGradient id="ja" cx="602.43" cy="322.68" r="47.453" gradientTransform="matrix(.94061 .032995 -.0095 .27083 15.534 197.75)" gradientUnits="userSpaceOnUse" xlink:href="#b"/>
  <radialGradient id="jb" cx="603.21" cy="306.91" r="43.188" gradientTransform="matrix(.97991 .092603 -.022814 .24141 -4.1895 161.81)" gradientUnits="userSpaceOnUse" xlink:href="#b"/>
  <radialGradient id="jc" cx="604.39" cy="291.72" r="31.839" gradientTransform="matrix(.87175 .25706 -.090697 .30758 80.663 27.031)" gradientUnits="userSpaceOnUse" xlink:href="#b"/>
  <radialGradient id="jd" cx="613.5" cy="273.15" r="36.954" gradientTransform="matrix(.85703 .42209 -.14508 .29458 104.48 -83.724)" gradientUnits="userSpaceOnUse" xlink:href="#b"/>
  <radialGradient id="je" cx="623.49" cy="262.65" r="33.992" gradientTransform="matrix(.91083 .58848 -.21393 .33112 88.473 -209.08)" gradientUnits="userSpaceOnUse" xlink:href="#b"/>
  <radialGradient id="jf" cx="634.19" cy="242.95" r="31.262" gradientTransform="matrix(.36583 -.36696 .99791 .99481 136.44 216.3)" gradientUnits="userSpaceOnUse" xlink:href="#b"/>
  <radialGradient id="jg" cx="641.44" cy="234.81" r="28.805" gradientTransform="matrix(.37947 -.31766 .9934 1.1867 141.46 141.71)" gradientUnits="userSpaceOnUse" xlink:href="#b"/>
  <radialGradient id="jh" cx="648.46" cy="223.92" r="25.747" gradientTransform="matrix(.4561 -.27889 .89062 1.4565 128.23 59.488)" gradientUnits="userSpaceOnUse" xlink:href="#b"/>
  <radialGradient id="ji" cx="662.08" cy="219.07" r="22.881" gradientTransform="matrix(.45064 -.21221 .81134 1.7229 162.67 -34.516)" gradientUnits="userSpaceOnUse" xlink:href="#b"/>
  <radialGradient id="jj" cx="677.65" cy="216.51" r="13.901" gradientTransform="matrix(.93088 -.36532 .96862 2.4682 -186.19 -85.552)" gradientUnits="userSpaceOnUse" xlink:href="#b"/>
  <linearGradient id="gb" x1="671.39" x2="651.75" y1="520.08" y2="478.44" gradientTransform="translate(-23.31 -17.662)" gradientUnits="userSpaceOnUse" xlink:href="#fa"/>
  <radialGradient id="jk" cx="633.19" cy="508.15" r="11.388" gradientTransform="matrix(1.3138 -.4448 .28471 .84091 -366.65 344.63)" gradientUnits="userSpaceOnUse" xlink:href="#d"/>
  <radialGradient id="jl" cx="439.84" cy="664.79" r="92.284" gradientTransform="matrix(.82089 -.57108 .10949 .15739 -17.322 792.38)" gradientUnits="userSpaceOnUse" xlink:href="#fb"/>
  <radialGradient id="jm" cx="470.21" cy="673.14" r="40.448" gradientTransform="matrix(.42443 .21473 -.75661 1.4955 756.63 -452.32)" gradientUnits="userSpaceOnUse" xlink:href="#fb"/>
  <radialGradient id="jn" cx="516.9" cy="652.94" r="42.686" gradientTransform="matrix(1.0588 -.92306 .30361 .34825 -251.94 884.94)" gradientUnits="userSpaceOnUse" xlink:href="#fb"/>
  <radialGradient id="jo" cx="79.977" cy="895.73" r="57.167" gradientTransform="matrix(2.2205 -.95078 .40688 .95024 -485.37 102.95)" gradientUnits="userSpaceOnUse" xlink:href="#a"/>
  <radialGradient id="jp" cx="579.19" cy="525" r="29.61" gradientTransform="matrix(1.1237 -.34 .19241 .63592 -198 371.52)" gradientUnits="userSpaceOnUse" xlink:href="#d"/>
  <radialGradient id="jq" cx="559.23" cy="539.53" r="22.391" gradientTransform="matrix(1.3645 -.72196 .32395 .61228 -400.42 595.4)" gradientUnits="userSpaceOnUse" xlink:href="#d"/>
  <radialGradient id="jr" cx="611.22" cy="506.99" r="32.232" gradientTransform="matrix(1.2449 -.56268 .25435 .56271 -301.92 548.41)" gradientUnits="userSpaceOnUse" xlink:href="#d"/>
  <radialGradient id="js" cx="389.52" cy="756.88" r="216.78" gradientTransform="matrix(1.0888 -.66559 .11304 .18492 -146.41 812.42)" gradientUnits="userSpaceOnUse" xlink:href="#fc"/>
  <radialGradient id="jt" cx="554.31" cy="520.61" r="49.881" gradientTransform="matrix(-.50094 -.37257 .85734 -1.1527 362.34 1309.7)" gradientUnits="userSpaceOnUse" xlink:href="#a"/>
  <radialGradient id="ju" cx="532.23" cy="509.69" r="44.164" gradientTransform="matrix(-.47075 -.33558 .89446 -1.2548 303.56 1310.1)" gradientUnits="userSpaceOnUse" xlink:href="#a"/>
  <radialGradient id="jv" cx="525.4" cy="491.08" r="46.718" gradientTransform="matrix(-.50047 -.39761 .86884 -1.0936 338.36 1219.1)" gradientUnits="userSpaceOnUse" xlink:href="#a"/>
  <radialGradient id="jw" cx="525.62" cy="476.4" r="52.737" gradientTransform="matrix(-.39465 -.39493 .93461 -.93395 256.35 1108.5)" gradientUnits="userSpaceOnUse" xlink:href="#a"/>
  <radialGradient id="jx" cx="509.72" cy="451.15" r="57.788" gradientTransform="matrix(-.3399 -.36533 .88681 -.8251 259.58 993.2)" gradientUnits="userSpaceOnUse" xlink:href="#a"/>
  <radialGradient id="jy" cx="508.59" cy="428.53" r="57.759" gradientTransform="matrix(-.24913 -.35709 1.0374 -.72378 167.42 903.21)" gradientUnits="userSpaceOnUse" xlink:href="#a"/>
  <radialGradient id="jz" cx="494.7" cy="402.31" r="61.152" gradientTransform="matrix(-.17454 -.28734 .93244 -.56641 192.64 760.02)" gradientUnits="userSpaceOnUse" xlink:href="#a"/>
  <radialGradient id="ka" cx="496.13" cy="371.75" r="61.885" gradientTransform="matrix(-.18692 -.33953 1.0192 -.56109 196.45 742.22)" gradientUnits="userSpaceOnUse" xlink:href="#a"/>
  <radialGradient id="kb" cx="500.98" cy="356.92" r="63.147" gradientTransform="matrix(-.17369 -.38129 .92392 -.42088 234.93 684.97)" gradientUnits="userSpaceOnUse" xlink:href="#a"/>
  <radialGradient id="kc" cx="505.6" cy="330.86" r="66.025" gradientTransform="matrix(-.12662 -.36458 .97533 -.33874 223.61 618.11)" gradientUnits="userSpaceOnUse" xlink:href="#a"/>
  <radialGradient id="kd" cx="527.57" cy="305.34" r="70.623" gradientTransform="matrix(-.042952 -.37393 .96566 -.11092 209.18 526.01)" gradientUnits="userSpaceOnUse" xlink:href="#a"/>
  <radialGradient id="ke" cx="519.65" cy="295.91" r="85.079" gradientTransform="matrix(.021921 -.3202 1.0286 .070418 180.57 414.62)" gradientUnits="userSpaceOnUse" xlink:href="#a"/>
  <radialGradient id="kf" cx="519.67" cy="251.12" r="81.796" gradientTransform="matrix(.099666 -.3675 1.0225 .2773 187.8 354.8)" gradientUnits="userSpaceOnUse" xlink:href="#a"/>
  <radialGradient id="kg" cx="538.98" cy="220.71" r="76.247" gradientTransform="matrix(.15886 -.35454 1.0133 .45405 201.84 289.59)" gradientUnits="userSpaceOnUse" xlink:href="#a"/>
  <radialGradient id="kh" cx="539.18" cy="185.35" r="68.52" gradientTransform="matrix(.15172 -.24337 .98894 .61653 250.77 184.63)" gradientUnits="userSpaceOnUse" xlink:href="#a"/>
  <radialGradient id="ki" cx="562.87" cy="148.57" r="68.929" gradientTransform="matrix(.23378 -.24188 1.0486 1.0135 241.67 112.73)" gradientUnits="userSpaceOnUse" xlink:href="#a"/>
  <radialGradient id="kj" cx="580.06" cy="118.29" r="65.966" gradientTransform="matrix(.25077 -.17673 1.0757 1.5263 284.05 25.985)" gradientUnits="userSpaceOnUse" xlink:href="#a"/>
  <radialGradient id="kk" cx="624.95" cy="156.98" r="30.7" gradientTransform="matrix(.35997 -.21398 .65487 1.1017 273.26 97.641)" gradientUnits="userSpaceOnUse" xlink:href="#a"/>
  <radialGradient id="kl" cx="643.75" cy="156.29" r="27.505" gradientTransform="matrix(.48831 -.3981 1.2039 1.4767 117.93 165.43)" gradientUnits="userSpaceOnUse" xlink:href="#a"/>
  <radialGradient id="km" cx="640.92" cy="114.5" r="35.782" gradientTransform="matrix(.3785 -.13088 .92541 2.6763 269.06 -125.72)" gradientUnits="userSpaceOnUse" xlink:href="#a"/>
  <radialGradient id="kn" cx="606.36" cy="623.98" r="50.167" gradientTransform="matrix(1.2102 -.35995 .25457 .8559 -309.61 289.08)" gradientUnits="userSpaceOnUse" xlink:href="#a"/>
  <radialGradient id="ko" cx="620.05" cy="640.54" r="57.319" gradientTransform="matrix(1.1063 -.24016 .076962 .35453 -138.52 544.7)" gradientUnits="userSpaceOnUse" xlink:href="#a"/>
  <radialGradient id="kp" cx="635.19" cy="655.99" r="64.09" gradientTransform="matrix(1.0682 -.31554 .11972 .40527 -145.16 572.9)" gradientUnits="userSpaceOnUse" xlink:href="#a"/>
  <radialGradient id="kq" cx="648.42" cy="672" r="62.414" gradientTransform="matrix(1.0104 -.37412 .12466 .33667 -113.84 670.68)" gradientUnits="userSpaceOnUse" xlink:href="#a"/>
  <radialGradient id="kr" cx="658.89" cy="686.01" r="62.053" gradientTransform="matrix(1.0138 -.44444 .13269 .30267 -123.71 756.68)" gradientUnits="userSpaceOnUse" xlink:href="#a"/>
  <radialGradient id="ks" cx="680.64" cy="701.97" r="63.026" gradientTransform="matrix(1.0098 -.58818 .16439 .28223 -145.75 888.11)" gradientUnits="userSpaceOnUse" xlink:href="#a"/>
  <radialGradient id="kt" cx="702" cy="701.39" r="63.352" gradientTransform="matrix(.94285 -.62554 .17767 .26778 -109.15 946.07)" gradientUnits="userSpaceOnUse" xlink:href="#a"/>
  <radialGradient id="ku" cx="709.77" cy="726.51" r="55.997" gradientTransform="matrix(.20091 .23818 -.91729 .77377 1214.5 -24.52)" gradientUnits="userSpaceOnUse" xlink:href="#a"/>
  <radialGradient id="kv" cx="724.92" cy="735.54" r="53.077" gradientTransform="matrix(.26745 .31938 -.8797 .73666 1158.4 -57.785)" gradientUnits="userSpaceOnUse" xlink:href="#a"/>
  <radialGradient id="fd" cx="754.1" cy="737.02" r="56.135" gradientTransform="matrix(.27519 .29722 -.88706 .82131 1178.1 -110.05)" gradientUnits="userSpaceOnUse" xlink:href="#a"/>
  <radialGradient id="fe" cx="777.39" cy="737.59" r="55.982" gradientTransform="matrix(.36522 .30665 -.78303 .93258 1049.9 -207.42)" gradientUnits="userSpaceOnUse" xlink:href="#a"/>
  <radialGradient id="ff" cx="800.42" cy="744.43" r="48.511" gradientTransform="matrix(.53756 .35047 -.69788 1.0704 868.93 -352.33)" gradientUnits="userSpaceOnUse" xlink:href="#a"/>
  <radialGradient id="fg" cx="822.05" cy="750.65" r="43.669" gradientTransform="matrix(.42809 .25197 -.78524 1.3341 1039.7 -476.85)" gradientUnits="userSpaceOnUse" xlink:href="#a"/>
  <radialGradient id="fh" cx="862.93" cy="754.87" r="38.032" gradientTransform="matrix(.69585 .21473 -.52985 1.717 638.34 -743.86)" gradientUnits="userSpaceOnUse" xlink:href="#a"/>
  <radialGradient id="fi" cx="901.62" cy="753.38" r="31.337" gradientTransform="matrix(.98682 .1618 -.35543 2.1677 255.49 -1042.1)" gradientUnits="userSpaceOnUse" xlink:href="#a"/>
  <radialGradient id="fj" cx="945.24" cy="754.87" r="26.889" gradientTransform="matrix(1.2191 -.091576 .17315 2.3052 -360.75 -916)" gradientUnits="userSpaceOnUse" xlink:href="#a"/>
  <radialGradient id="fk" cx="985.14" cy="753.48" r="38.539" gradientTransform="matrix(.57613 1.6762 -.86825 .29843 1048.5 -1146.4)" gradientUnits="userSpaceOnUse" xlink:href="#a"/>
  <radialGradient id="fl" cx="1024.5" cy="745.88" r="45.738" gradientTransform="matrix(.9513 1.1039 -.43936 .37861 356.14 -684.91)" gradientUnits="userSpaceOnUse" xlink:href="#a"/>
  <radialGradient id="fm" cx="1052.4" cy="737.22" r="42.879" gradientTransform="matrix(.94805 .64072 -.2587 .38279 222.78 -238.55)" gradientUnits="userSpaceOnUse" xlink:href="#a"/>
  <radialGradient id="fn" cx="1085.4" cy="757.23" r="53.715" gradientTransform="matrix(1.1014 .32255 -.10295 .35154 -55.376 101.88)" gradientUnits="userSpaceOnUse" xlink:href="#a"/>
  <radialGradient id="fo" cx="446.56" cy="580.63" r="75.243" gradientTransform="matrix(1.1728 -.07424 .027336 .43182 -116.34 344.31)" gradientUnits="userSpaceOnUse" xlink:href="#a"/>
  <radialGradient id="fp" cx="396.57" cy="626.96" r="112.69" gradientTransform="matrix(1.1207 -.27944 .087549 .35111 -126.06 489.09)" gradientUnits="userSpaceOnUse" xlink:href="#a"/>
  <radialGradient id="fq" cx="360.22" cy="657.81" r="120.61" gradientTransform="matrix(1.269 -.57649 .11433 .25169 -195.44 682.25)" gradientUnits="userSpaceOnUse" xlink:href="#a"/>
  <radialGradient id="fr" cx="281.46" cy="731.31" r="117.05" gradientTransform="matrix(1.5515 -.79457 .27081 .52882 -376.6 544.93)" gradientUnits="userSpaceOnUse" xlink:href="#a"/>
  <radialGradient id="fs" cx="195.64" cy="809.06" r="108.33" gradientTransform="matrix(2.0471 -1.2201 .16799 .28186 -364.09 798.31)" gradientUnits="userSpaceOnUse" xlink:href="#a"/>
  <radialGradient id="ft" cx="493.44" cy="720.36" r="98.992" gradientTransform="matrix(.66209 .64363 -1.4217 1.4625 1167.6 -668.4)" gradientUnits="userSpaceOnUse" xlink:href="#a"/>
  <radialGradient id="fu" cx="350.99" cy="804.23" r="100.73" gradientTransform="matrix(1.5507 -1.0696 .19602 .28418 -374.23 933.45)" gradientUnits="userSpaceOnUse" xlink:href="#a"/>
  <radialGradient id="fv" cx="266.45" cy="832.22" r="125.61" gradientTransform="matrix(1.3741 -.94549 .24226 .35208 -324.6 773.48)" gradientUnits="userSpaceOnUse" xlink:href="#a"/>
 </defs>
 <path d="m368.25 726.68c-94.552 41.399-164.35 96.671-246.97 164.24-6.3442 5.3131-2.9808 14.527 6.3829 10.556 91.45-44.24 176.75-102.18 240.59-174.79z" fill="url(#fv)"/>
 <path d="m427.91 703.6c-13.912 21.031-25.986 42.674-45.417 61.865-42.921 44.627-96.376 72.7-148.03 103.6-7.3212 2.084-7.2486-3.2258-6.8739-8.8378 15.729-13.819 41.158-38.807 45.908-42.471 51.881-35.61 102.54-75.417 154.42-114.16z" fill="url(#fu)"/>
 <path d="m546.73 620.87c-17.506 56.284-66.597 104.63-114.16 133.3-5.9077 3.4473-9.22 2.3264-9.5743-2.7004-20.352 17.952-42.436 34.444-65.056 43.453-4.4922 2.0272-10.727-1.8648-7.1194-4.9099 56.814-49.896 106.87-101.14 160.31-151.72l26.023-27.25z" fill="url(#ft)"/>
 <path d="m293.62 715.33c-23.363 21.986-59.294 38.246-85.917 57.012-1.0888 3.0832-1.8848 6.2836-6.1374 8.1013-36.304 22.895-74.064 46.974-115.87 67.266-6.1137 1.534-11.068-6.4022-4.9099-9.8198 52.087-28.026 99.465-59.534 146.81-93.534 4.1734-1.8004 8.3468-5.437 12.52-1.7185 16.285-12.457 35.092-23.456 53.512-27.307z" fill="url(#fs)"/>
 <path d="m389.11 631.77c-30.646 30.153-71.378 56.152-110.42 82.849l-54.854 33.666c-21.346 8.4773-47.106 20.613-64.406 19.954-2.531-0.0454-0.94796-2.6342 0.19757-3.9513-3.1935 0.98674-4.538-1.0895-2.9635-2.7659 21.606-19.655 72.912-39.87 109.45-64.209 37.249-28.542 82.449-58.188 122.99-65.543z" fill="url(#fr)"/>
 <path d="m452.22 579.11-53.05 18.855-48.576 27.484c-43.73 22.098-92.788 44.111-127.19 61.359-8.8725 5.3407-9.1393 14.44 1.2783 14.381 11.869-0.47844 30.988-4.4253 40.587-2.5566l95.235-60.081 66.851-37.844 29.662-18.722z" fill="url(#fq)"/>
 <path d="m491.85 553.54-43.782 4.4741c-35.104 19.686-104.73 34.626-107.06 36.752-2.5598 2.6593-11.937 4.9964-18.216 5.1133-4.5155 0.14087-12.567 3.4026-18.536 4.4741-49.222 10.788-44.414 27.292-12.783 27.164 17.908-0.48785 35.153-0.47899 63.277-8.6287 22.636-7.8717 66.776-27.511 99.07-44.102z" fill="url(#fp)"/>
 <path d="m488.02 543.96-47.298 1.9175-1.2783 1.9175c-29.029-0.48275-57.438 2.1384-85.967 4.1545-8.3579 0.0736-16.311 8.1189-4.4741 16.618 3.7284 0.19805 7.4569 0.32233 11.185 0 9.1368 9.0422 22.092 13.06 41.226 8.9482l50.813-18.216 40.267-5.4329z" fill="url(#fo)"/>
 <path d="m1003.5 686.26c45.831 14.437 59.091 48.852 107.81 27.073l-30.099 10.113c-11.638 2.6277-24.485 1.5201-36.124-0.96316z" fill="url(#fn)"/>
 <path d="m1082.2 723.22c14.164 1.5853 30.282-3.2998 28.992-9.8079z"/>
 <path d="m1075.1 737.29c9.4876-4.7975 23.141-1.7846 0.2099 1.5388z"/>
 <path d="m1025.1 741.02c18.292 4.7935 35.312 4.4153 50.807-2.1671l-0.4816-1.9263c-14.321-3.9403-25.499-11.604-36.118-19.987 24.416 6.7176-19.85-17.123-31.063-26.968-0.9631-0.24079-20.032-9.3327-20.032-9.3327l7.2701 24.984z" fill="url(#fm)"/>
 <path d="m1050.9 773.77c-46.542-53.238-24.684-52.806-42.379-59.475 2.0066-1.2144 4.0132-1.0828 6.0198-0.96316-3.05-2.4013-6.1-2.7232-9.15-3.1303 0.7458-2.2573 2.4922-1.5128 3.8526-1.9263-2.5574-2.4267-5.4196-2.1111-8.1869-2.6487 0.9525-1.458 3.0018-1.5452 4.8158-1.9263-2.0868-1.4766-4.1737-2.033-6.2605-1.6855 0.078-3.108-0.942-6.0163-3.3711-8.6685l-20.949-6.983-14.688 11.558 26.246 59.235c17.632 15.554 36.475 21.83 56.345 20.226 4.8152 0.2003 8.7863-0.12703 7.7053-3.6119z" fill="url(#fl)"/>
 <path d="m961.04 692.62c27.913 28.563 25.766 63.273 36.6 98.243 2.432 8.3123-4.908 8.3559-14.207 6.7422-16.899-2.7445-30.217-9.6677-41.657-18.782l-18.881-99.017z" fill="url(#fk)"/>
 <path d="m942.74 778.1c1.3858 27.652-29.185 19.823-52.733 5.779l10.563-109.67 26.037 14.321c8.0971 14.146 16.06 29.065 16.133 89.574z" fill="url(#fj)"/>
 <path d="m891.7 783.64c-7.6372 22.132-38.084 12.447-52.011 0.24079l28.895-111.97 32.507 7.9461c0.0156 25.606 2.737 43.48-9.3909 103.78z" fill="url(#fi)"/>
 <path d="m869.78 676.25c3.1814 17.417-0.73212 44.59-33.711 111.73-13.583 15.441-34.62 5.8229-40.453-3.3711l48.64-108.6z" fill="url(#fh)"/>
 <path d="m796.34 783.4c-21.788 13.555-32.932 4.7935-37.323-11.317l67.422-97.761 18.782 0.24079c1.9472 22.833-17.451 56.84-48.881 108.84z" fill="url(#fg)"/>
 <path d="m761.67 771.12c-19.773 18.754-33.769 7.1479-31.784-10.354l79.22-86.926 16.615 6.5014c-5.1527 18.326-25.498 44.84-64.05 90.778z" fill="url(#ff)"/>
 <path d="m729.16 761.73c-8.3237 8.3442-23.151 7.8254-28.413 1.204l87.166-91.26 23.797 5.5766c-13.511 24.36-46.256 55.258-82.55 84.479z" fill="url(#fe)"/>
 <path d="m702.19 763.18c-12.562 10.475-27.227 4.2691-26.969-4.8158l93.427-86.203 17.84 10.316c-15.856 27.994-52.079 54.945-84.298 80.703z" fill="url(#fd)"/>
 <path d="m675.47 757.88c-8.06 6.5663-28.556-1.8792-20.467-8.9093 31.587-24.857 63.105-49.817 93.427-76.572l9.8724 8.6685c-24.234 25.942-52.152 51.515-82.832 76.812z" fill="url(#kv)"/>
 <path d="m655.72 748.97c-13.572 2.9932-22.076-4.8617-16.615-12.04l101.61-73.682 7.7053 9.8724c-27.911 27.152-59.664 51.903-92.705 75.849z" fill="url(#ku)"/>
 <path d="m638.38 736.21c-16.155 1.4345-19.462-5.8916-21.671-13.966l102.1-60.198 23.609 1.45c-32.683 32.311-66.114 54.099-104.03 72.714z" fill="url(#kt)"/>
 <path d="m618.4 723.2c-15.747 0.84231-28.523-12.391-21.43-19.745l99.447-53.937 23.598 13.484c-31.266 23.105-62.772 45.931-101.61 60.198z" fill="url(#ks)"/>
 <path d="m597.21 703.94c-15.006 1.8527-26.826-9.3912-19.986-22.153l111.73-47.436 9.3909 18.3c-31.53 24.263-65.09 41.855-101.13 51.289z" fill="url(#kr)"/>
 <path d="m565.42 662.52 106.43-37.804 15.17 13.966c-33.756 19.98-67.612 39.783-109.56 45.269-10.433-1.5922-18.3-14.376-12.04-21.43z" fill="url(#kq)"/>
 <path d="m675.47 630.02c-39.943 16.444-78.989 31.479-110.04 33.952-15.942-1.349-20.972-15.416-14.207-22.634l105.47-28.654z" fill="url(#kp)"/>
 <path d="m653.55 621.59c-38.218 11.57-76.379 23.084-101.37 21.43-11.408-5.2848-15.779-11.324-9.1501-18.541l98.724-21.912z" fill="url(#ko)"/>
 <path d="m637.66 610.27c-30.568 7.9814-60.914 15.146-89.574 16.133-12.281-2.8034-11.466-10.284-5.779-19.504l49.362-26.005z" fill="url(#kn)"/>
 <path d="m652.9 193.68s-11.294-51.045-24.726-91.035c-19.349-57.607-40.46-102.65-40.46-102.65-6.7503 8.1193-8.8061 54.63 3.7463 82.419 4.3081 6.2834 8.6165 29.221 8.6165 29.221z" fill="url(#km)"/>
 <path d="m638.38 176.92c-3.0161-10.529-5.7093-21.599-10.227-30.999-12.087-26.25-28.346-37.003-43.782-50.813-0.12062 3.9008 7.7613 10.315 8.9482 18.855l34.674 60.081z" fill="url(#kl)"/>
 <path d="m627.67 173.72c-8.4051-22.56-20.559-42.776-34.355-60.081-10.84-4.6085-18.071-5.607-26.046-7.3503l45.221 62.158z" fill="url(#kk)"/>
 <path d="m613.93 168.93c-9.2234-26.611-36.593-53.076-57.54-79.692-24.6-35.124-45.854-65.08-65.339-86.969-3.0554-2.4618-8.7132-1.2505-7.9895 4.7937 1.4118 30.723 17.179 66.366 36.911 99.549l69.349 75.9z" fill="url(#kj)"/>
 <path d="m596.56 183.73c-12.303-18.359-42.737-49.809-48.779-54.111-30.705-24.672-55.202-51.678-85.008-72.225-3.4562-1.7822-7.9143-0.91921-7.1906 6.2318-0.74625 17.188 5.3007 33.965 11.185 50.653l112.1 88.555z" fill="url(#ki)"/>
 <path d="m577.82 197.21c-11.983-14.792-35.405-32.681-49.056-42.504-19.163-13.107-50.538-37.018-64.076-41.865-14.677-5.4622-21.944 14.925-12.783 45.221l114.89 63.277 17.098 2.0773z" fill="url(#kh)"/>
 <path d="m567.11 218.3c-12.055-9.8004-30.621-21.304-48.736-29.401-13.107-5.3295-44.046-22.338-67.011-33.312-21-9.6225-30.842 39.281-6.1898 47.828l124.81 40.452 12.144-6.871z" fill="url(#kg)"/>
 <path d="m560.88 240.19c-20.994-8.7206-39.654-14.718-57.642-19.932-18.405-5.4206-45.515-14.895-68.272-22.093-18.823-6.217-33.756 45.117 1.1185 46.978l120.32 24.128 26.683-10.832z" fill="url(#kf)"/>
 <path d="m555.45 267.84c-12.105-8.2396-31.516-11.322-52.092-13.582-7.6571-0.25405-54.802-9.3874-79.895-9.5874-15.212-0.83892-19.334 34.308 0.79895 42.504l167.26-2.4383c-11.267-6.2629-30.032-13.432-36.071-16.896z" fill="url(#ke)"/>
 <path d="m553.69 285.57c-13.884-4.5215-40.395-3.0205-58.323-3.036-11.622-0.46662-59.472-0.72059-71.426 4.6339-10.732 4.597-15.044 27.372 7.6699 41.545l123.84-26.046z" fill="url(#kd)"/>
 <path d="m550.18 298.36c-20.932 0.42814-41.865 3.7246-62.797 7.6699-29.611 6.1894-50.193 15.75-62.478 28.922-6.1989 8.7857-8.5346 22.944-1.2783 25.886l125.12-47.458z" fill="url(#kc)"/>
 <path d="m564.89 313.87c-17.346 0.55062-64.602 6.8975-82.948 12.448-20.267 7.883-36.148 14.82-49.215 23.649-13.35 10.519-19.991 25.255-5.9122 32.118l117.45-42.824z" fill="url(#kb)"/>
 <path d="m541.23 336.55c-17.822 3.8039-35.366 6.8423-55.128 15.979-20.305 8.938-41.884 17.799-59.442 30.36-12.577 14.356-9.3865 24.709 0.79895 28.283l111.85-57.524z" fill="url(#ka)"/>
 <path d="m531.48 355.56c-18.855 5.5748-38.467 12.81-56.566 21.412-17.154 8.2133-35.269 19.49-46.789 33.396-6.4506 8.7514-5.985 27.023 4.924 26.685l112.17-63.596z" fill="url(#jz)"/>
 <path d="m536.59 368.99c-18.773 9.0607-35.908 18.941-51.654 29.515-11.527 7.9741-39.929 21.274-51.251 37.757-5.1126 7.7722-4.8187 18.476 4.6339 21.572l102.74-67.591 3.835-17.577z" fill="url(#jy)"/>
 <path d="m533.4 393.43c-17.748 7.9805-34.778 16.535-50.014 26.525-16.621 10.977-33.222 23.851-45.221 38.19-5.2406 6.0586-5.961 22.028 7.1906 29.721l103.86-83.41z" fill="url(#jx)"/>
 <path d="m544.74 405.74c-19.504 10.59-38.295 21.892-55.287 34.994-10.82 7.0523-37.86 29.475-44.422 47.777-4.2348 17.791 6.9383 20.253 14.381 22.85l89.163-85.807z" fill="url(#jw)"/>
 <path d="m544.1 424.75c-18.479 12.181-37.241 25.916-56.725 43.623-13.333 12.602-25.203 27.509-27.803 42.984-0.87369 8.8357 5.8055 11.594 10.386 15.34l81.972-85.967z" fill="url(#jv)"/>
 <path d="m546.82 440.25c-11.844 14.256-28.986 26.999-42.344 41.066-12.781 12.833-25.776 29.371-34.355 45.7-3.8547 8.1735 5.4981 21.302 16.778 16.299l69.668-90.281z" fill="url(#ju)"/>
 <path d="m548.74 459.59c-12.535 13.458-24.855 26.809-38.35 40.746-11.454 11.899-25.245 35.316-24.767 44.422 0.5497 13.278 13.653 12.472 22.211 9.108l82.06-84.484z" fill="url(#jt)"/>
 <path d="m436.75 594.36-80.296 45.845c-11.776 7.4197-21.195 14.839-29.355 22.259l50.377-24.825c-46.319 36.659-109.91 72.893-148.62 105.24-4.217 4.5239-1.7719 7.0883 10.698 0.53759 16.873-11.198 31.115-18.704 40.958-20.422-20.468 13.93-44.763 27.643-68.165 45.94-4.7636 0.70207-19.453 2.0442-27.793 8.5824 6.5147 0.61523 14.654-2.7246 17.921 1.3514 0 0-85.648 48.911-116.78 68.842l11.293 30.441c29.483-13.67 69.528-26.436 103.6-45.171 11.699-7.7931 22.336-16.435 32.405-25.532 1.2058 2.9718 0.8515 6.3337 0 9.8198 2.9699-3.3946 4.5274-7.3542 4.9099-11.784 6.0076-5.6351 12.679-11.049 21.604-15.712 0.36108 2.8689-0.28451 6.4089-1.473 10.311 6.0144-4.7192 9.8445-10.894 12.766-17.676 7.9271-6.1836 16.63-11.979 26.514-17.185 2.5236 4.1324 2.6889 8.6372-0.98198 13.748-14.572 12.39-53.135 31.113-49.099 53.148 26.222-18.143 53.66-36.051 81.504-52.657l87.396-66.775-42.225 59.41 144.35-132.57-19.149-59.41z" fill="url(#js)"/>
 <path d="m599.37 460.57-44.879 31.93c-18.351 11.641-6.4252 17.209 5.7524 16.299 4.0937 0.12954 13.591 3.244 28.762-4.7937l19.494-7.6699z" fill="url(#jr)"/>
 <path d="m522.85 516.79c-5.9471 3.2188-10.102 8.6783-14.062 14.381-2.0833 4.9068-1.4184 10.764 8.6161 11.055 12.462-5.3763 22.43-12.938 34.208-19.044z" fill="url(#jq)"/>
 <path d="m548.42 499.85c-9.2428 1.558-17.178 6.6036-24.927 12.144-4.9018 5.1434-5.0597 13.022 5.1133 14.381 8.412 0.448 17.849-2.4144 26.525-5.1133l23.329-13.103z" fill="url(#jp)"/>
 <path d="m98.583 877.5c-1.4601-2.8581 0.19391-3.3807 0.5823-4.8524 12.015-7.1827 13.309-18.264 14.169-29.503-8.5482-1.9103-15.841-0.99618-22.321 1.7469l-12.228 7.958c-9.7994 3.2869-15.623 6.353-16.11 9.1226-6.427 2.6246-13.152 5.2195-14.557 8.3462-14.395 5.7893-29.362 13.295-44.254 20.574-7.3164 8.6077-3.5732 11.686 5.6288 12.034-11.416 6.6366-11.935 10.119-3.6879 11.064 30.579-8.3453 61.698-22.633 92.779-36.49z" fill="url(#jo)"/>
 <path d="m116.44 862.94c12.986-14.972 26.095-29.33 39.596-41.731-9.5447 12.936-22.293 26.726-39.596 41.731z" fill="#192780"/>
 <path d="m207.86 797.53c7.858-5.8229 13.997-11.646 16.692-17.469-5.9058 4.1147-11.29 10.837-16.692 17.469z" fill="#192780"/>
 <path d="m235.42 784.92c6.3994-6.6837 11.228-12.844 11.452-17.469-3.8173 3.9426-7.6345 11.099-11.452 17.469z" fill="#192780"/>
 <path d="m251.53 764.73c-5.4347 7.0942-10.869 18.166-16.304 29.309 7.3154-9.9786 13.613-19.844 16.304-29.309z" fill="#192780"/>
 <path d="m272.11 752.7c-4.0466 5.5877-7.5125 12.918-11.064 19.992 5.0574-6.664 10.511-13.328 11.064-19.992z" fill="#192780"/>
 <path d="m274.82 754.64c-1.4691 7.9707-6.428 13.615-10.869 19.604 3.2899-6.7012 6.5701-13.407 10.869-19.604z" fill="#192780"/>
 <path d="m281.42 747.26c-4.6534 9.3814-8.862 18.763-13.005 28.144 6.9656-10.434 11.215-19.781 13.005-28.144z" fill="#192780"/>
 <path d="m330.97 708.67c-9.352 11.224-16.338 25.159-24.311 36.843 10.956-13.14 22.415-26.864 29.891-39.016z" fill="#192780"/>
 <path d="m379.05 702.23c-0.25365 4.374-0.839 8.6059-4.6583 11.452 0.59076-4.4586 2.5369-8.0136 4.6583-11.452z" fill="#192780"/>
 <path d="m379.44 692.91c0.43269 2.2353 0.16446 4.2404-2.5233 7.958-0.12989-3.3 1.1249-5.6769 2.5233-7.958z" fill="#192780"/>
 <path d="m340.14 683.65c-7.2833-0.64238-14.368 0.87185-20.678 2.6621 5.0222 0.55943 11.265 0.0283 13.44 2.9603z" fill="#192780"/>
 <path d="m323.06 696.7c-9.3478 0.57755-18.053 4.3147-25.334 10.575 6.6105-1.9671 15.282-5.4874 20.486-4.1712z" fill="#192780"/>
 <path d="m140.51 832.08c-4.1841 8.6697-15.759 17.339-26.98 26.009 9.4044-9.2865 19.507-19.62 26.98-26.009z" fill="#192780"/>
 <path d="m479.35 614.67c-17.032 18.896-23.43 37.792-29.402 56.687-3.1918 10.992 6.0796 15.14 18.112 0.70565-1.0415 3.0475-1.3884 6.1126 3.293 1.1761 17.476-15.145 36.649-27.745 55.276-41.163l7.0565-15.524-36.459-24.698z" fill="url(#jn)"/>
 <path d="m484.41 617.03-3.3736-14.338-28.394 21.647c-18.043 18.303-34.247 40.642-47.511 73.656-1.9904 6.1522 0.79464 12.007 8.9962 11.245 14.814-9.4863 30.723-20.976 38.234-33.454z" fill="url(#jm)"/>
 <path d="m428.75 653.86-3.9358 1.9679c-12.056 23.085-56.18 38.842-94.46 53.134-9.5886 0.10818-19.218 0.24022-7.5905-12.089 56.054-42.957 112.81-83.457 170.36-121.17l7.8716 14.056z" fill="url(#jl)"/>
 <path d="m614.25 481.32-13.103 5.1133c-2.3087 2.6595-7.6274 5.6358-0.95874 7.3503-0.98026 3.4699 0.6383 5.0835 6.7112 3.5154l11.824-3.1958z" fill="url(#jk)"/>
 <path d="m666.68 461.84-10.526-5.6387c-13.705-0.68964-28.152 1.5895-42.854 4.8869l-5.0748 32.141c12.87-6.0419 25.566-12.214 36.464-19.736-11.509 5.9317-22.304 9.479-30.825 5.4508l0.56387-13.157 9.7738-0.37591c-4.7232 11.621 4.5091 10.159 15.6 6.9544 5.8868-5.9665 16.042-8.5186 26.878-10.526z" fill="url(#gb)"/>
 <path d="m660.27 226.93c1.1486-10.7-1.5708-22.173-5.4329-33.875-7.4856-18.634-15.17-26.092-18.536-26.845-3.4485 0.93279-2.817 10.829-1.5979 16.618l18.855 44.741z" fill="url(#jj)"/>
 <path d="m652.92 223.74c-3.7401-11.363-7.5839-22.416-11.824-32.278-6.2357-18.507-18.054-28.581-23.649-29.721-3.0177 0.54674-6.1928 5.099-4.7937 12.144l31.638 58.164 12.783 6.072z" fill="url(#ji)"/>
 <path d="m643.65 231.73c-4.2996-11.679-8.6276-23.33-13.422-34.515-5.1835-11.206-11.416-18.741-17.577-26.525-11.255-8.0583-18.324-5.6505-19.494 11.505l46.659 65.514z" fill="url(#jh)"/>
 <path d="m641.74 240.67c-4.3105-10.993-7.8216-22.085-15.979-32.597-7.8948-11.567-15.505-19.917-27.803-26.845-12.834-3.0532-13.576 5.1226-12.464 15.02l51.772 60.72z" fill="url(#jg)"/>
 <path d="m637.26 250.9c-2.8988-9.9473-8.3537-20.207-16.299-29.082-17.2-21.109-31.371-25.99-39.628-27.803-5.3724-1.4056-6.3631 6.2213-5.1133 15.979 0.54587 4.6186 5.0712 9.579 9.2678 14.701l45.7 33.236z" fill="url(#jf)"/>
 <path d="m629.91 257.61c-6.5301-7.7582-12.469-15.611-21.731-22.051-12.08-8.7053-22.019-13.907-34.834-18.855-7.8385-2.4595-14.293 1.9306-7.6699 12.464 2.5775 3.5358 8.2966 8.7692 9.2678 14.062l54.009 28.443z" fill="url(#je)"/>
 <path d="m629.91 270.39c-8.2864-6.9888-17.509-14.55-27.803-19.494-9.9529-5.438-20.949-10.395-32.278-12.464-15.18-2.4732-17.16 6.3224-4.4741 18.855l54.009 21.092z" fill="url(#jd)"/>
 <path d="m616.49 276.47c-8.1871-4.4134-15.216-9.5993-26.206-12.144-9.7701-2.9678-19.175-4.4735-28.443-5.4329-9.2073-0.30238-12.109 5.8912 0 16.938 4.0205 3.8275 18.37 6.0108 27.803 7.0308z" fill="url(#jc)"/>
 <path d="m621.6 297.88c-10.036-9.2952-24.805-13.219-38.989-15.247-10.278-1.3895-21.791-2.1043-31.188 1.0428-12.661 3.0124-18.939 6.2754-5.2436 16.761l77.658 3.5154z" fill="url(#jb)"/>
 <path d="m618.73 300.76c-8.4152-4.7517-18.803-7.4992-29.721-7.9895-15.102-0.57996-29.968 1.0713-42.185 5.7524-9.9275 4.969-21.005 15.314-10.227 18.855l89.482-2.2371z" fill="url(#ja)"/>
 <path d="m634.87 318.25c-16.922-5.6444-58.639-3.8014-74.947-1.8333-9.2893 1.9968-18.203 0.90045-24.465 5.231-8.8572 7.7969-10.393 12.223 6.2486 16.181l57.524-2.2371z" fill="url(#iz)"/>
 <path d="m585.49 333.35c-14.462-0.37097-29.409 0.22859-45.38 2.8762-5.5027 1.6695-10.527 3.5784-15.02 5.7524-7.2354 5.3652-4.6685 9.8902 5.7524 13.742l59.442-11.505z" fill="url(#iy)"/>
 <path d="m581.34 343.9c-10.322 0.94516-19.534 2.6303-28.35 4.5793-6.627 2.3562-17.729 4.5232-25.02 8.2039-13.589 8.2241-8.0513 12.85 2.8762 12.464l67.751-18.536z" fill="url(#ix)"/>
 <path d="m578.56 349.76c-14.947 2.1888-29.189 6.489-43.131 11.694-11.308 6.1486-1.8835 13.27 9.7892 14.406l50.813-13.422 4.5709-11.824z" fill="url(#iw)"/>
 <path d="m581.97 363.07c-8.7352 1.2927-16.903 3.6312-26.206 7.3503-11.227 5.6854-23.154 8.5183-31.638 14.701-10.938 9.0307 4.3644 11.056 11.185 11.185l63.596-21.412z" fill="url(#iv)"/>
 <path d="m588.69 376.82c-12.783 2.5542-25.566 6.1105-38.35 11.185-7.9536 3.3735-14.738 7.3315-21.731 11.185-6.8906 12.172 0.83188 12.891 12.464 10.546l49.215-23.329z" fill="url(#iu)"/>
 <path d="m577.12 391.59c-14.965 6.1014-32.738 15.538-44.676 25.17-7.2781 7.4929-10.304 16.644 6.7112 12.464l41.545-29.082z" fill="url(#it)"/>
 <path d="m578.77 401.38c-11.757 6.0863-25.852 15.035-36.099 24.646-7.4772 8.2479-9.9721 15.884 3.835 14.381l53.523-32.367z" fill="url(#is)"/>
 <path d="m584.21 412.29c-13.104 7.8774-26.068 16.593-38.669 27.484-7.7801 8.0995-10.031 20.01 6.072 14.701l48.257-33.236z" fill="url(#ir)"/>
 <path d="m580.7 425.71c-11.766 8.3394-22.901 20.464-34.195 31.638-7.4701 10.569-5.9159 18.115 1.5979 15.34l53.37-43.143z" fill="url(#iq)"/>
 <path d="m588.07 432.18c-14.175 10.966-29.148 25.555-40.295 39.548-6.9549 14.531 4.1599 10.126 7.9895 9.2678 3.9078-0.74472 13.032 1.2028 19.967-1.9689l46.657-31.372z" fill="url(#ip)"/>
 <path d="m635.34 302.67c-2.705-5.9824-10.786-6.0671-14.701-3.835-3.863 2.0912-8.56 2.6523-13.103 2.2371-5.9571 0.12203-8.5716 3.9024-1.9175 8.6287 7.2254 4.5412 16.931 6.7162 26.525 9.2678z" fill="url(#io)"/>
 <path d="m634.95 318.05c-5.3204-1.5358-19.564-3.4755-24.444-2.3627-9.5911 2.1071-25.321 5.5058-12.556 13.834 4.6959 3.1784 14.479 6.739 20.184 7.8997z" fill="url(#in)"/>
 <path d="m613.29 334.63c-7.9797-2.3142-15.577-3.4797-22.051-1.2783-7.9544 2.6112-14.7 6.0093-6.072 7.9895l26.525 4.4741z" fill="url(#im)"/>
 <path d="m609.78 344.86c-8.3091-2.6731-17.943-3.8679-24.927-3.835-6.5601 1.2648-16.76 7.463-6.7112 10.546 10.656 2.9048 21.395 5.2962 28.173 5.7775-0.17549-3.6927-1.3876-9.2988 3.4653-12.489z" fill="url(#il)"/>
 <path d="m608.71 344.06c-11.809-5.1806-18.795 11.752-8.2625 12.925 24.394 2.2904 26.26-5.6554 8.2625-12.925z" fill="url(#ik)"/>
 <path d="m611.22 356.48c-9.887-1.338-22.205 0.90787-30.845 4.359-5.695 4.1714-7.8979 7.6748 4.4615 12.914 6.3814 3.1799 13.39 3.3505 20.466 2.7459z" fill="url(#ij)"/>
 <path d="m605.94 372.02c-8.7728 2.7446-17.026 5.8358-24.288 9.5874-9.6528 3.5707-14.274 7.6708-11.824 13.742l37.391-5.1133z" fill="url(#ii)"/>
 <path d="m605.37 390.49c-8.2026-1.0497-17.618 0.24329-25.631 2.6216-6.7777 2.2023-11.143 11.062-0.95874 11.505 8.2707-0.0913 18.552 2.8707 26.537 5.3435z" fill="url(#ih)"/>
 <path d="m604.03 402.7-24.288 11.505c-5.7892 4.4906-6.3449 16.494-1.9175 17.838 11.751 0.48918 24.03-10.707 35.473-18.157z" fill="url(#ig)"/>
 <path d="m609.14 414.21-23.329 14.381c-9.8259 11.168 1.8822 10.101 13.742 8.9482l24.608-15.02z" fill="url(#if)"/>
 <path d="m630.55 419.64c-12.816 5.4094-31.155 15.009-32.088 17.304-0.81313 3.183 1.9864 6.7887 7.4807 6.6649l34.834-17.257z" fill="url(#ie)"/>
 <path d="m640.15 421.9c-7.9131 3.0904-17.168 6.5628-25.259 12.438-8.4478 6.0805-15.486 12.725-21.412 19.814-1.892 2.7721-4.0754 7.0362 3.0654 7.2663l50.944-16.214z" fill="url(#id)"/>
 <path d="m681.59 302.28c5.6405-33.403-7.2482-57.064-23.56-77.261-9.2046-6.9766-12.519 1.0346-7.3504 7.3503l26.206 65.514z" fill="url(#ic)"/>
 <path d="m680.41 299.48c-3.5918-40.453-15.461-54.642-29.721-68.071-8.8969-6.7521-16.765-5.3336-10.866 17.896l32.917 47.937z" fill="url(#ib)"/>
 <path d="m675.29 296.92c-8.7977-28.178-21.707-43.083-35.473-50.174-8.893-4.6828-16.089 2.203-10.847 19.603l37.053 31.849z" fill="url(#ia)"/>
 <path d="m667.3 298.52c-13.292-22.213-27.786-32.467-38.669-34.515-5.3724-0.62542-8.3962 5.1222-7.0308 12.783l29.721 19.175z" fill="url(#hz)"/>
 <path d="m649.09 292.45c-23.357-19.26-34.291-19.218-59.122-20.453-4.9568 0.61891-9.212 3.4371-5.4329 10.546l44.98 23.373z" fill="url(#hy)"/>
 <path d="m681.36 308.42c0.47293-4.7744 2.266-8.2771-4.1545-10.866-1.1947-1.8525-2.8582-1.5078-4.1545-1.5979-3.9173-5.1426-5.7794-0.69409-8.3091 0.63916-5.5191-4.3656-8.0585-2.1758-11.185-1.2783-16.303-13.375-21.979-9.5833-20.642 6.2738 17.318-0.0302 34.134 1.848 48.446 6.8289z" fill="url(#ga)"/>
 <path d="m617.39 453.02c-10.574 4.1545-30.748 9.4444-21.992 13.599-4.0824 2.323-8.8431 4.2389-10.546 7.9895-5.2732 7.3566 2.3888 9.2405 9.907 11.185l42.185-4.4741z" fill="url(#hx)"/>
 <path d="m647.46 550.97 55.768-67.607h-67.918c-52.974 17.679-96.485 41.771-145.5 70.722-19.346 10.099-35.696 21.947-50.16 34.894 0.91433 1.1804 6.6748-2.3464 8.1004-1.5578-11.082 6.9844-23.48 13.823-31.155 21.186-3.4954 2.6456 0.51597 6.246 3.7386 4.3617l24.613-15.266c3.8425 0.33406 7.685-1.229 11.527-3.7386 1.9388 2.3438 6.825 0.89801 11.527-0.31155l-45.175 30.221c0.70835 2.5296 2.6583 2.576 4.9848 1.8693-0.18899 1.369 0.67855 2.3418 3.7386 2.4924-5.0582 1.9144-8.8135 4.8713-11.839 8.4119 0.69785 0.9264 1.4459 1.7775 3.7386 0.31156-0.35105 1.1836-0.49491 2.3326 1.5578 3.1155 3.6324-2.8257 7.0941-5.7197 8.7235-9.3466 2.9078 1.7008 5.8156 1.9229 8.7235-1.2462 2.2364 2.8957 6.2358-0.085 10.904-5.2964 8.5581-3.7367 16.555-8.8767 24.301-14.643-1.2278 3.5309-2.2007 7.0618-0.62311 10.593 7.478-4.3087 14.825-8.8141 21.497-14.331-2.2289 2.8958-3.4483 6.044-4.0502 9.3466 2.8324-2.294 5.455-4.9027 7.4773-8.4119 1.5362-0.0761 3.6689-0.91918 2.4924 2.4924-4.3282 3.0758-8.4434 6.182-9.9697 9.6581l2.804-0.31155c0.88685 5.9053 3.6452 8.3014 7.7888 8.1004 3.2984-2.5655 5.7977-6.3218 8.7235-9.6581-2.0595 4.1149-5.9055 9.5697-3.4271 10.281 4.3042-3.9183 8.6579-7.7177 14.955-6.8542 10.157 1.7568 14.167-5.5033 18.382-12.462 6.2769-2.5214 10.799-5.9205 14.643-9.6581 32.749-11.823 60.115-30.644 89.104-47.356z" fill="url(#hw)"/>
 <path d="m623.94 487.49-31.562 11.406-56.094 28.594-46.469 26.594c-19.346 10.099-35.692 21.928-50.156 34.875 0.91433 1.1804 6.6682-2.3199 8.0938-1.5312-11.082 6.9844-23.481 13.825-31.156 21.188-3.4954 2.6456 0.52734 6.228 3.75 4.3438l24.594-15.25c3.8425 0.33406 7.6888-1.2404 11.531-3.75 1.9388 2.3438 6.8288 0.89706 11.531-0.3125l-45.156 30.219c0.70835 2.5296 2.6422 2.5817 4.9688 1.875-0.18899 1.369 0.68992 2.3494 3.75 2.5-5.0582 1.9144-8.8182 4.8656-11.844 8.4062 0.69785 0.9264 1.4572 1.7785 3.75 0.3125-0.35105 1.1836-0.52142 2.3108 1.5312 3.0938 3.6324-2.8257 7.1206-5.7169 8.75-9.3438 2.9078 1.7008 5.8109 1.9503 8.7188-1.2188 2.2364 2.8957 6.2377-0.1011 10.906-5.3125 8.5581-3.7367 16.535-8.89 24.281-14.656-1.2278 3.5309-2.2026 7.0628-0.625 10.594 4.0964-2.3603 8.1654-4.7627 12.094-7.375 0.27973-1.531 0.64885-3.3369 1-4.1562 0.5828-1.3598 6.2297-3.6782 6.8125-4.8438s-0.19007-6.0152 0.78125-7.375 9.5-7.7812 9.5-7.7812l-3.5 5.8438s0.97551 1.5287 0.78125 2.5-3.8953 2.1646-3.3125 3.7188c0.58279 1.5541 1.9662 4.0625 2.9375 4.0625s1.5464-0.96875 2.9062-0.96875c0.76774 0-0.85749 1.6776-2.4375 3.1875 5e-3 7e-3 -5e-3 0.0243 0 0.0312 0.26825 0.35353 0.30769 0.99525-0.125 2.25-3.6077 2.5637-7.033 5.1662-8.9688 7.9688 0.98539 0.0783 2.1721 0.08 2.9688-0.21875 1.5541-0.58279 6.4214-4.2964 7.7812-5.6562s1.7474-2.9062 2.7188-2.9062 2.3479 1.9359 3.125 0.1875c0.77705-1.7484-2.1469-3.2812-3.3125-3.2812s-1.1562-3.7052-1.1562-4.0938c0-0.38853-0.78125-3.0938-0.78125-3.0938l4.6562-6.8125s-0.57441 5.4578 1.5625 4.875c2.1369-0.58279 1.3547-5.8412 1.9375-6.8125 0.58279-0.97132-1.1656-3.7026 0-5.0625 0 0 4.2568 2.3344 4.0625 3.5s-1.337 2.1469-1.5312 3.3125c-0.19427 1.1656 1.75 2.7188 1.75 2.7188s0.38339-2.7052 1.9375-3.0938c1.5541-0.38853 3.2787-0.78125 4.25-0.78125s4.674-0.20265 5.0625-1.5625c0.38852-1.3598-2.7162-2.125-3.6875-2.125s-5.25 1.7188-5.25 1.7188 0.98904-1.9214 0.40625-3.2812-2.538-1.1604-2.3438-1.9375c0.19427-0.77706 2.9214-0.96875 4.2812-0.96875s1.9198-0.80317 1.5312-1.9688c-0.38853-1.1656-3.8776-1.3479-2.9062-2.125 0.97132-0.77705 5.0599-0.375 6.0312-0.375s2.1292-1.3776 2.9062-0.40625c0.77705 0.97132-1.9459 1.9552-3.5 2.3438-1.5541 0.38853-0.1875 3.0938-0.1875 3.0938s2.1292-1.3438 2.9062-1.3438 1.7652 1.1562 3.125 1.1562 2.7146-5.8277 1.9375-7.1875c-0.77705-1.3598-6.6021-0.375-8.1562-0.375s-3.1073-1.9594-2.7188-3.125c0.38853-1.1656 2.9104-0.37243 3.6875-1.3438 0.77705-0.97132-1.1604-2.3479-1.9375-3.125-0.77706-0.77705-1.5599-0.19846-2.5312-0.78125-0.97132-0.5828 1.3547-4.462 1.9375-4.6562 0.5828-0.19426 3.7026 0 5.0625 0s3.6849-2.913 4.6562-2.7188c0.10442 0.0209 0.17957 0.0638 0.25 0.125 0.61183-0.47105 1.1969-0.84564 1.5-0.90625 0.97132-0.19427 5.2339-0.17655 6.5938 0.40625 1.3598 0.58279 0.58022 2.7162 0.96875 3.6875 0.38852 0.97132 3.1292-0.7922 3.9062-1.375 0.77705-0.58279 4.25-1.9375 4.25-1.9375s-2.7094-0.17817-3.875-1.3438c-1.1656-1.1656 0-2.5312 0-2.5312l4.6562-1.75s0.59794 1.9324 1.375 3.875c0.77705 1.9426 3.6875 1.9375 3.6875 1.9375s-3.3167 0.39949-4.0938 0.59375-4.2474 2.1292-5.2188 2.9062-3.125 2.5312-3.125 2.5312-2.3438 1.1782-2.3438 2.3438 2.3438 2.3125 2.3438 2.3125-2.5177 1.549-2.9062 1.9375-0.96875 2.1469-0.96875 3.3125-0.78125 5.4375-0.78125 5.4375-3.5042 1.1672-4.2812 1.75c-0.77705 0.5828-4.8573 3.1157-4.4688 4.2812 0.38853 1.1656 1.7584 3.4974 3.3125 4.4688s7.5625-2.9375 7.5625-2.9375-7.1807 0.20617-7.375-2.125c-0.19426-2.3312 5.4375-3.875 5.4375-3.875l2.5312 0.96875s-0.98228-5.0532-0.59375-6.2188c0.38852-1.1656 2.1562-0.375 2.1562-0.375l0.75-2.3438s-2.326-0.97294-1.9375-1.75c0.38852-0.77706 2.7188-2.3438 2.7188-2.3438s0.99486 2.5219 2.9375 3.6875c1.6237 0.97419 3.2824 0.33488 3.8125 0.0937 0.0375-0.90475-0.12897-1.8028-0.53125-2.4062-0.77706-1.1656-3.299-0.59118-3.6875-1.5625-0.38852-0.97132 1.375-1.3438 1.375-1.3438s-0.96713-4.0776 0.78125-5.4375c1.7484-1.3598 7.1604-2.3505 7.9375-2.1562 0.77706 0.19427 0.19846 1.3724 0.78125 2.3438s3.6875 0.78125 3.6875 0.78125-2.1334 1.1537-3.6875 2.125-0.77449 3.8969-0.96875 5.0625c-0.19427 1.1656-2.913 1.1469-2.7188 2.3125 0.19427 1.1656 1.3792 0.41044 2.1562 1.1875 0.77705 0.77705-2.7188 3.2812-2.7188 3.2812s-1.5599 1.1875-2.5312 1.1875-0.98904-1.9594-0.40625-3.125c0.26357-0.52713 0.44927-1.3055 0.5-2.0938-0.70163 0.6627-3.7524 3.6611-3.4062 5.2188 0.38853 1.7484 2.5312 0.96875 2.5312 0.96875s-0.19007 1.1469 0.78125 2.3125 3.0938 0.1875 3.0938 0.1875l-1.1562-2.5 3.875-2.3438 2.5312 0.96875v-3.5s-2.1208-1.5422-1.3438-2.125c0.77706-0.5828 2.125-1.1562 2.125-1.1562s1.3412-3.326 2.3125-2.9375 0.79221 3.1292 1.375 3.9062c0.58279 0.77706 3.6875 1.1562 3.6875 1.1562s-1.538-4.6714-1.3438-6.0312c0.19426-1.3598 1.3438-2.9062 1.3438-2.9062l3.125 3.0938c0.77706 0.77705 5.0312 0.40625 5.0312 0.40625s-2.5152-1.1604-3.875-1.9375c-1.3598-0.77705-1.9375-1.9375-1.9375-1.9375s1.3657-0.61147 2.5312-1c1.1656-0.38852 1.7188-2.3125 1.7188-2.3125s1.3834 2.3344 2.9375 3.5 5.0312-0.1875 5.0312-0.1875l-5.0312-2.75c-2.5254-1.3598-1.1875-4.0625-1.1875-4.0625s-3.087-0.95942-3.2812-2.125c-0.19426-1.1656 1.3438-3.7188 1.3438-3.7188s2.1469 0.59375 3.3125 0.59375 4.4688-2.125 4.4688-2.125-0.39786 3.4881 1.1562 5.625c1.5541 2.1369 3.125 2.9062 3.125 2.9062s-3.1208 4.4771-2.3438 6.0312 7.5938 0.78125 7.5938 0.78125-3.9104-0.78288-4.6875-2.5312c-0.77706-1.7484-0.1875-4.0938-0.1875-4.0938s2.1334 0.98647 3.6875 1.375 5.0625-0.1875 5.0625-0.1875-6.7964-2.5464-8.1562-3.9062 0.96875-4.4688 0.96875-4.4688-3.2922-1.5532-3.875-2.7188c-0.58279-1.1656 3.8834-2.125 5.4375-2.125s3.6714 2.7136 5.0312 4.6562 0.59375 5.8209 0.59375 7.375 2.9062 2.5312 2.9062 2.5312-1.5406-5.636-0.375-6.2188 7.9688-0.96875 7.9688-0.96875-7.3834 0.19102-8.9375-3.5c-1.5541-3.691 8.9375-5.625 8.9375-5.625s-7.7854 1.1588-8.5625 0.1875c-0.77706-0.97132 0.96875-4.0625 0.96875-4.0625s-7.5844-0.59537-8.75-2.3438c-1.1656-1.7484 0.40625-7.375 0.40625-7.375s2.3386 3.1115 4.2812 3.5 4.6562 0.375 4.6562 0.375 0.56412 1.9375 2.3125 1.9375h5.6562s-6.8235-2.5016-7.4062-4.25 0.99067-7.5938 2.1562-7.5938c1.1656 0 6.0084 3.1208 7.5625 2.3438 1.5541-0.77705 1.7474-4.848 2.7188-5.625 0.97132-0.77706 5.6469 0.76353 6.8125 0.375 1.1656-0.38852 5.4375-5.8438 5.4375-5.8438s-3.8808-0.9578-6.4062-0.375c-2.5254 0.58279-7.375 2.125-7.375 2.125s-11.091 5.6614-12.062 3.7188 5.4526-5.0557 6.8125-5.25c1.3598-0.19427 7.75-0.96618 7.75-1.9375s-1.3547-0.78545-1.9375-1.5625c-0.5828-0.77706 1.9333-1.1604 1.1562-1.9375 1.6214-0.16796 3.5615-1.2105 4.6875-0.40625 1.3598 0.97132-2.3531 1.1849-1.1875 2.1562 1.1656 0.97132 10.5-3.3125 10.5-3.3125l-0.1875-18.844-5.0938-3.9688zm-87.906 71.5c-1.3491 1.0387-2.9688 2.5938-2.9688 2.5938s1.5736-0.83066 3.1875-1.4062c-0.10165 0.598-0.36952 1.2151-0.65625 1.4062-0.58279 0.38853-3.5152 1.174-4.875 1.5625s-3.6875 1.7474-3.6875 2.7188 3.1021 0.17397 4.6562 0.5625 2.538 1.3589 2.3438 2.7188c-0.19427 1.3598-2.7188 0.99743-2.7188 1.9688s4.2854 1.337 5.0625 1.5312c0.77705 0.19426 2.1224 1.364 3.0938 0.78125 0.97132-0.58279-2.7078-2.5287-2.125-3.5 0.58279-0.97132 3.2896 0.96875 4.8438 0.96875 1.5541 0 1.951-2.1334 1.5625-3.6875-0.38853-1.5541-3.8902-0.375-5.25-0.375s-4.0718-1.3521-2.9062-2.9062 3.1089-0.97294 4.4688-1.75c1.3598-0.77705 0.38014-2.5312-1.5625-2.5312-0.64333 0-1.4492 0.21501-2.25 0.5 0.0762-0.47655 0.0384-0.93281-0.21875-1.1562zm76.281-49.844c0.96734 0 0.48144 1.5755 1.2812 2.3438-0.8719 0.0338-1.8102 0.18864-2.25-0.0312-0.77706-0.38853-0.19683-2.3125 0.96875-2.3125zm-23.531 26.125c0.73987-0.0137 1.2604 0.21936 1.1875 0.875-0.19426 1.7484 1.7474 6.1943 2.7188 6s5.6562 0.40625 5.6562 0.40625 1.3598 2.3302 0 2.7188c-1.3598 0.38853-3.3167 0.38853-4.0938 0-0.77706-0.38852-0.97294-2.9062-1.75-2.9062-0.77705 0 0.0161 2.1182-1.3438 2.3125-1.3598 0.19427-3.1292 0.40368-3.9062 1.375-0.77705 0.97132-1.9282 3.5-3.0938 3.5s-5.25 1.1588-5.25 0.1875 0.39692-2.1495 1.5625-2.3438c1.1656-0.19427 3.875-0.96875 3.875-0.96875s2.5312-0.77868 2.5312-1.75-0.60214-1.3615-2.1562-1.75c-1.5541-0.38853-3.6875-1.1562-3.6875-1.1562s-1.1656-2.8995 0-3.0938c1.1656-0.19427 1.3589 1.538 2.7188 1.3438 1.3598-0.19427 0.40368-3.1047 1.375-3.6875 0.60708-0.36424 2.4231-1.0397 3.6562-1.0625zm-11.25 2.8125c0.77706 0-0.7661 3.0979 0.59375 3.875 1.3598 0.77705 5.652 0.59538 4.875 2.3438-0.77706 1.7484-2.1402 1.9443-3.5 1.75-1.3598-0.19426-3.3125 2.7188-3.3125 2.7188s0.39529-2.1469-0.1875-3.3125-2.152-1.5641-1.375-3.3125c0 0 2.1292-4.0625 2.9062-4.0625zm-8.3438 2.9062s-1.924 2.5287-2.3125 3.5c-0.38852 0.97132 1.9172 3.1224 2.5 4.0938 0.58279 0.97132 3.6985 1.7339 4.2812 3.0938 0.5828 1.3598 0 3.6875 0 3.6875-0.58279 1.3598-5.8209-0.95522-7.375-1.3438-1.5541-0.38852-5.25-0.96875-5.25-0.96875s0.38596-3.1089 0.96875-4.4688c0.5828-1.3598 7.1875-7.5938 7.1875-7.5938z" fill="#fff" fill-opacity=".25"/>
 <path d="m967.79 669.75 42.861 23.838c-10.024-15.904-38.551-30.884-63.569-44.787l-2.6487 3.8527z" fill="url(#hv)"/>
 <path d="m966.24 663.09-10.996 4.0934s34.405 34.83 41.752 30.246c9.341-5.829-30.755-34.339-30.755-34.339z" fill="url(#hu)"/>
 <path d="m963.69 691.66c14.586 17.456 21.645 9.3571 15.892-2.6487-5.0284-11.536-11.659-17.465-19.263-19.986 1.5519-1.2506 4.2966-1.0102 8.4277 0.96316-10.058-7.5572-16.069-13.091-23.838-19.504l-13.966-3.8527z" fill="url(#ht)"/>
 <path d="m928.15 674.74c18.266 29.437 42.235 32.13 37.097 11.563-7.1991-15.056-22.244-29.92-34.302-43.761l-23.257-16.897c-3.8878 16.25 6.8438 33.363 20.462 49.095z" fill="url(#hs)"/>
 <path d="m907.11 676.01c14.847 29.082 28.57 31.989 27.387-1.4448-0.20597-9.3702-18.996-28.83-27.784-37.598l-9.7164 5.3321z" fill="url(#hr)"/>
 <path d="m873.84 675.9c8.7877 14.811 29.9 33.385 35.443 0.93159 1.5888-12.341-3.404-23.953-8.1918-35.019l-28.774-10.014z" fill="url(#hq)"/>
 <path d="m856.3 670.47c1.6574 12.692 13.19 16.748 20.949 6.2606 5.5201-11.209 0.11481-14.908-4.3342-19.263 3.7668 2.5106 7.4161 5.4912 11.799 5.5382 0.0556-10.657-2.344-11.493-4.0934-14.929 1.0267-0.34893 1.7006-1.2858 4.575 1.4448-1.1996-6.9851-12.139-14.109-15.817-19.854z" fill="url(#hp)"/>
 <path d="m836.56 671.92c-1.5839 17.938 10.016 26.448 20.681 5.8155 5.1846-8.3366 6.869-16.658 10.14-24.356l-3.6119-5.2974 5.1297 2.1987 1.3135-16.693c-11.264 11.253-25.495 25.216-33.653 38.332z" fill="url(#ho)"/>
 <path d="m812.48 678.66c-1.72 10.092 6.4602 14.707 17.096 3.1303 8.512-8.2658 15.305-17.105 21.912-26.005l3.6119-37.563-16.855 8.6685z" fill="url(#hn)"/>
 <path d="m789.84 678.42c-8.4763 19.211 10.761 9.4691 23.116 0 13.911-15.427 22.376-34.744 32.025-53.215l-27.55-2.3596z" fill="url(#hm)"/>
 <path d="m792.97 674.56c-12.912 16.406-33.642 22.497-22.639-1.4132l30.826-45.06 13.244 4.3342c-5.3163 14.046-8.7832 28.092-21.43 42.138z" fill="url(#hl)"/>
 <path d="m748.43 679.86c-4.7299 8.5687 7.0505 10.874 14.976 2.7583 15.412-15.069 23.265-32.849 36.313-48.509 0 0-11.558-5.779-12.521-5.779-0.96317 0-38.767 51.529-38.767 51.529z" fill="url(#hk)"/>
 <path d="m749.15 679.86c-7.2508 8.2566-17.581 1.1096-13.484-5.2974l46.232-54.419 12.762 5.5382z" fill="url(#hj)"/>
 <path d="m750.83 670.95c-12.684 9.4614-18.808 1.2558-12.762-9.1501l34.674-43.342 13.966 6.2606c-11.161 15.867-20.546 32.749-35.878 46.232z" fill="url(#hi)"/>
 <path d="m714.23 660.12 35.637-37.804 23.598-3.3711c-11.69 14.713-17.503 31.517-34.91 44.515-22.085 22.574-33.741 7.8532-24.325-3.3395z" fill="url(#hh)"/>
 <path d="m717.02 659.26c-20.385 9.1676-28.737 3.8818-17.96-10.464l37.563-32.266 15.411 7.4645c-9.9647 12.662-20.548 25.819-35.014 35.265z" fill="url(#hg)"/>
 <path d="m699.3 649.28c-29.13 18.162-21.653-3.2778-14.929-11.799l38.045-28.173 12.28 9.8724c-6.3425 11.982-22.055 21.55-35.396 30.099z" fill="url(#hf)"/>
 <path d="m716.64 615.09c-10.645 9.3783-21.836 18.62-37.563 26.728-13.722 2.9361-14.221-3.8287-8.1869-10.113l38.527-23.838z" fill="url(#he)"/>
 <path d="m708.45 609.79c-11.671 7.9934-23.508 15.822-37.082 21.912-14.141 7.7416-19.162-4.4873-12.28-9.8724 16.263-6.1849 31.729-13.326 44.787-23.357z" fill="url(#hd)"/>
 <path d="m699.79 603.77c-11.5 6.9755-23.043 13.937-40.212 19.023-24.361 7.935-20.774-3.9569-15.651-6.983 19.344-4.7892 38.203-10.709 55.623-19.986z" fill="url(#hc)"/>
 <path d="m696.17 599.68c-16.683 6.9372-33.342 12.89-51.289 16.615-18.024 3.2347-15.129-10.818-10.113-12.521l68.866-21.19z" fill="url(#hb)"/>
 <path d="m630.71 560.11-45.441 26.278c-23.413 18.86-13.412 27.749 15.311 22.676l45.269-4.8158z" fill="url(#ha)"/>
 <path d="m655.72 583.06c-10.473 7.2481-20.791 15.196-32.507 16.855-11.477 1.6876-32.392 1.7061-6.5014-30.34l23.598-15.411z" fill="url(#gz)"/>
 <path d="m650.42 580.41 12.205-24.954-15.817 2.3198c-19.634 10.682-16.791 27.103 3.6119 22.634z" fill="url(#gy)"/>
 <path d="m681.01 540.92c-7.4509 14.923-36.255 22.61-40.217 19.991-10.167-8.1516 23.103-17.83 40.217-19.991z" fill="url(#gx)"/>
 <path d="m929.5 645.19c13.341 10.436 16.73 8.4316 22.875 9.8724-13.511-22.299-41.152-37.251-70.552-51.289z" fill="url(#gw)"/>
 <path d="m877.01 633.63c11.879 17.986 32.37 19.186 32.266-6.0198-0.95077-7.546-14.311-14.129-22.875-19.986z" fill="url(#gv)"/>
 <path d="m870.01 635.96c13.008 3.455 22.764-2.886 16.459-29.906-4.9501-3.4971-8.4357-5.229-13.386-7.1261-5.5167 9.6484-3.5449 24.189-3.0733 37.032z" fill="url(#gu)"/>
 <path d="m839.2 653.13c-1.0624 10.075 9.9488 11.487 16.855 3.1303 12.816-10.864 15.577-26.42 19.023-41.657l-28.173 2.6487z" fill="url(#gt)"/>
 <path d="m850.04 608.59c7.9461-6.859 14.428-13.075 22.374-9.6537 3.546 26.9-13.751 25.773-22.374 9.6537z" fill="url(#gs)"/>
 <path d="m859.91 605.94-13.484-0.48159c-8.472 33.945 4.3106 27.766 13.484 0.48159z" fill="url(#gr)"/>
 <path d="m834.39 605.94c-2.6984 32.515 8.323 35.036 15.17 0.48158z" fill="url(#gq)"/>
 <path d="m824.03 603.29c-0.43849 8.6685-4.0808 17.337-1.6224 26.005 1.9822 11.14 11.12 9.3278 13.18-2.1671 2.5498-5.8592 3.1431-11.719 3.1303-17.578z" fill="url(#gp)"/>
 <path d="m806.88 593.14-4.9941 39.283c0.35317 9.9388 8.0384 7.7898 13.225 2.343 6.4742-8.4006 10.113-18.195 14.947-31.479z" fill="url(#go)"/>
 <path d="m793.45 602.33c-7.1861 10.541-9.6362 22.134-11.076 33.952-0.90632 7.2805 3.8364 13.637 11.558 2.8895 5.2486-4.4877 10.005-9.7132 13.966-16.133l3.6373-29.399z" fill="url(#gn)"/>
 <path d="m780.06 600.46c-5.7286 14.164-5.5194 26.118-5.0785 39.903-1.4492 12.841 6.4591 13.564 11.124 3.8693 6.7269-16.157 10.027-31.886 11.608-47.399z" fill="url(#gm)"/>
 <path d="m752.28 617.74c-2.769 18.618 8.3106 20.938 23.058 1.8632 4.9847-6.1529 5.1606-12.909 6.8003-20.163l-10.624-14.45z" fill="url(#gl)"/>
 <path d="m738.07 616.53c-6.663 23.744 8.4407 18.706 16.374 10.113 7.9732-11.087 11.898-22.984 16.855-34.674l-14.688 1.6855z" fill="url(#gk)"/>
 <path d="m718.57 612.92c-6.4926 12.847 4.8266 18.848 18.541 5.5382 9.5886-6.5523 15.357-14.06 22.634-21.19l-17.096-7.9461z" fill="url(#gj)"/>
 <path d="m708.94 609.31c-5.1548 5.9984 1.9805 9.4534 8.9093 4.3342 9.0819-5.3086 14.74-11.987 20.708-18.541l-2.1648-8.1441c-7.4645 5.9102-19.988 15.179-27.453 22.351z" fill="url(#gi)"/>
 <path d="m723.14 585.23c-8.1163 5.231-16.171 10.544-22.394 18.3-3.0171 6.7966 1.8202 7.4218 7.7053 7.2237 8.2819-4.9141 20.163-15.08 27.212-21.844z" fill="url(#gh)"/>
 <path d="m724.35 587.16c-7.444 6.3681-15.203 12.317-24.561 16.133-13.612 5.4364-8.097-9.5261-0.96317-14.447l22.875-9.8724z" fill="url(#gg)"/>
 <path d="m721.94 579.21c-23.63 10.931-47.256 21.886-71.515 28.413-16.412 2.9801-16.136-5.1794-14.898-12.285l34.134-21.645c17.426 1.8388 51.644-9.1657 52.278 5.5166z" fill="url(#gf)"/>
 <path d="m721.5 573.43c-14.048 5.6984-31.783 12.763-48.2 16.374-12.3 2.4026-16.658-4.2209-10.354-10.113l54.9-28.654c5.0798 6.9974 10.642 14.126 3.6534 22.394z" fill="url(#ge)"/>
 <path d="m700.98 560.55-43.772 22.007c-12.85 5.5303-12.528-12.622-2.9364-21.005 7.5775-6.9842 15.673-9.8964 23.251-15.029z" fill="url(#gd)"/>
 <path d="m682 300.12c-33.172-1.3089-57.74-11.059-49.854 18.536-17.027 1.7182-19.769 7.3877-13.103 15.659-15.905-0.3873-14.641 5.9763-6.072 13.103 3.3982 2.3815 7.3638 4.6368 6.3916 7.9895-13.922 0.63651-26.317 1.4765-10.546 6.072-14.097 4.2374-10.979 7.3265-2.4978 13.069-4.5615 1.5003-9.9123 5.0796 0.2607 13.456-2.9583 2.9417-11.359 3.1622-2.2371 12.144-2.4866 1.8759-4.4305 3.8422-0.95874 6.7112-1.0797 2.6196-1.1087 5.089 4.7937 6.7112-0.74946 4.4754 0.84109 8.125 8.6287 9.5874l23.968 3.1958c-3.2116 4.8994-3.9116 9.9382 1.9175 15.34-7.9717 3.1247-16.132 7.0039-24.608 12.144-0.55571 4.4202-0.44489 8.7192 4.4741 12.144-8.8199 3.0499-13.44 6.7299-2.2371 12.783-10.736 5.2592-10.345 10.856-4.4741 16.618 22.38-7.5873 43.637-12.229 61.999-9.2678 5.6508 1.3353 11.213 2.7102 7.9895 7.9895-9.2139 9.0156-28.598 15.489-31.638 22.051-3.8533 7.6608-12.073 13.138-19.814 18.855-5.0653 5.3806-15.06 10.041-1.5979 14.062 4.4943 0.66793 8.7551 1.4137 14.701 1.5979 10.434-4.6001 21.158-8.1851 32.597-9.2678-10.53 10.454-10.886 21.587 2.2371 11.824 2.7973 13.572 14.43 10.398 30.68 0.31958 5.0973 3.9926 14.805 7.3621 2.2371 13.742 5.0582 0.98629 5.175 4.4433 3.1958 8.9482-1.8331 16.071 5.5835 16.972 16.299 12.464-2.6235 9.2762-3.0655 15.498 9.2678 3.835-4.0608 9.1891-3.3593 13.298 7.6699 6.3916-1.6854 4.4988-0.48201 4.6645 2.8762 1.5979 6.3434 1.7121 13.425-3.2229 20.773-10.546-5.24 11.591-3.5163 25.217 8.6287 12.144 0.32542 9.8122 14.475 0.56266 26.206-7.6699-5.9117 20.659 3.5701 28.516 16.618 11.505 9.9983 14.687 31.939 6.0343 46.978-7.0308-35.489-13.582-60.377-35.879-85.967-52.731 14.368-2.5574 24.435-8.4633 35.793-14.701l48.257-45.061c2.0667-0.76679 3.8707-2.059 5.4329-3.835 1.0863-0.39451 1.1757-2.2844 1.2783-4.1545 1.0606-0.66267 2.11-1.3809 4.1545 2.8762-0.48943-6.0672-0.58173-11.274 1.9175-10.866 5.1735-3.4243 5.9656-8.309 5.1133-13.742-11.899-12.611-25.347-15.7-45.061-16.299-41.863 1.2324-93.253 20.713-99.898 20.466-10.564-1.0294-16.711-4.8568-22.821-10.878-2.3489-5.0861-6.0936-7.9605-8.3091-11.505-3.4212-4.2758-21.838-59.937-30.36-90.441-1.5316-3.8377-0.97096-14.298-3.1958-21.731-1.8208-5.7693 2.2245-16.629 1.9175-26.206z" fill="#e52e17"/>
 <path d="m647.52 550.76c22.269-9.1538 39.271-16.683 65.962-33.1-1.6424-3.8692 0.41722-8.4789 3.7592-13.345-7.1904-2.3036-15.427-5.6534-24.622-9.9618-19.457 22.44-32.145 26.65-44.827 30.268-19.138 15.411-37.235 23.782-0.27243 26.138z" fill="url(#fz)"/>
 <path d="m746.75 541.35c-11.438 4.6759-26.624 8.8614-33.61 12.274-19.463 12.133-28.551 10.757-30.845-0.15706-2.7654 1.629-8.1178 5.4127-9.7594 2.3732 9.1141-3.3096 18.185-6.6589 21.586-15.242 0.38872 3.2234 0.67252 6.473 3.0073 9.2099 13.819-7.75 23.094-9.8214 33.081-12.781-15.829 12.705-3.5679 9.5092 16.54 4.323z" fill="url(#fy)"/>
 <path d="m888.88 460.18c-24.072 15.578-61.709 11.995-80 13.031-15.115 0.36063-48.051 16.972-77.906 16.469 10.778 4.1391 22.322 7.511 28.781 15.969-1.5517-2.9129-0.36395-3.9996 1.9375-4.3438 10.182 6.8958 12.771 15.961 14.031 25.406l-12.594-10.406c11.553 9.1147 8.4634 19.523 23.654 29.152l1.0673 0.84924c12.064-2.2402 24.252-7.8591 35.716-14.814l48.281-45.062c2.0667-0.76679 3.8441-2.0678 5.4062-3.8438 1.0863-0.39451 1.1787-2.2861 1.2812-4.1562 1.0606-0.66267 2.1117-1.3821 4.1562 2.875-0.48943-6.0672-0.56171-11.252 1.9375-10.844 3.309-2.1902 4.8096-4.9786 5.25-8.125z" fill="url(#fx)"/>
 <path d="m884.8 469.52c6.6503 9.0182 5.2626 27.179-3.2962 33.168-0.16373 4.6199-2.8135 8.3998-7.0045 6.7984-0.73394-4.6455 0.99129-2.9189-5.3564-5.7684 2.9165-6.6611 2.5689-13.322 2.8842-19.983z" fill="url(#gc)"/>
 <path d="m832.49 524.66c10.485-1.527 19.753-1.3608 32.756-12.361 1.1674 8.368 5.837 8.234 9.0646-1.8541 2.1038-1.3297 4.354-2.5131 7.0045-3.2962-4.4415-0.8354-5.2635-2.1232-5.3564-3.5022-3.2532 0.7457-4.9709-0.21465-3.2962-4.9443 0.0304-4.4484 0.51966-8.6674 1.6481-12.567l-3.5022-3.9143c-13.066 13.561-25.802 27.78-38.319 42.439z" fill="#000002"/>
 <path d="m872.22 471.84c-2.4387 0.25796-4.2829 0.16536-7.8125 0.96875-2.6782-0.57699-5.3531-0.91571-8.0312 2.2812-12.037-1.069-14.418 3.6799-16.5 4.125-4.639 0.75946-9.3814 4.9482-12.406 5.375 2.0251 1.501 5.6435 2.6227 7.7812 2.9688 1.7614 1.5603 3.8435 2.9639 5.7812 4.8125-2.6696 1.1853-5.5447-3.6281-7.4062-2.875 3.0788 2.0472 0.75231 2.5817 6.2812 6.0938-6.6896-0.41356-6.3432-8.1347-12.469-8.5625-2.5012 0.0463-8.6984 1.6199-1.1562 2.75 1.1627 3.4234 7.0556 8.1661 8.7188 9.0312-1.3625-0.0131-3.1447-0.19611-5.4375-2.0938-1.1896-1.2661-3.2832-1.8524-4.75-4.0312-0.35769 4.1562 3.498 5.204 5.4375 6 0.71595 1.6102 1.7106 2.8503 4.0938 3-5.0292 3.5956-9.4368-5.8827-9.0938 1.4062 0.43222 1.9266 5.9962 1.9741 14.031-1.125-3.7708 2.8143-11.757 4.5156-13.812 5.875-1.3344 1.7207 1.5018 1.4728 2.875 1.8438-3.1541 0.76249-3.332 2.081-3.9062 3.3125 3.7242 0.50327 14.495-4.9395 22.906-8.875-7.5634 4.8161-15.266 9.4083-24.75 11.344l0.59375 6.1875c-2.9718-1.1417-5.9899 2.3862-7.5312 7.9062 2.3075 0.59325 4.653-6.8986 8.2812-6.2812-5.4851 5.5145-5.1653 7.9339-3.8438 9.9062 1.5478 1.2453 3.2714 1.1076 5.0625 0.40625 5.9942-4.6031 25.79-29.124 28.688-33.25 3.5004-5.2212 7.5248-4.3193 9.125-6.3125 2.4433-1.783 4.2901-5.4941 4.7188-8.4375 4.6589-4.7383 4.157-9.0117 4.5312-13.75zm-7.875 1.2812c0.53224 2.6656 1.209 5.2478-3.75 10.375 1.5537-3.3403 3.1431-6.656 3.75-10.375zm2.5 0.8125c0.73172 3.904-0.80364 7.4919-4.1562 10.812 1.6117-3.2241 3.1223-6.6254 4.1562-10.812zm3.3125 0.40625c0.0624 3.5352-0.8692 6.8039-3.7188 9.5625 1.1836-3.0599 2.3453-6.123 3.7188-9.5625zm-42.312 14.438c3.3188 1.6644 5.6044 4.1198 6.9688 7.25-3.2678-1.6012-5.4069-4.1866-6.9688-7.25zm16.969 18.781c-4.4206 5.3218-13.826 15.394-15.219 14.031-1.4358-1.0664 8.9328-10.243 15.219-14.031z" fill="url(#fw)"/>
 <path transform="matrix(.54286 0 0 .54286 438.32 216.47)" d="m760.6 491.82a3.6052 3.6052 0 1 1 -7.2105 0 3.6052 3.6052 0 1 1 7.2105 0z"/>
 <path d="m857.63 492.91c-1.2697 0.36927-1.8713-0.28314-2.0157-1.3743 4.0744-5.4698 4.4195-8.779 5.4973-16.95-3.641 16.733-11.556 20.56-20.248 12.369 1.7245 3.0813 2.6304 5.2875 7.971 5.5889-2.9504 7.2475-9.5841 12.413-18.141 16.492 12.053-2.8485 20.801-15.415 26.937-16.125z" fill="#999"/>
 <path d="m855.46 485.23c2.0199-2.7916 2.9196-5.5832 3.3793-8.3748-10.283-1.3487-16.643 1.7396-16.015 9.2564 1.7206-6.098 7.1625-9.5334 14.105-6.9056 0.34248 1.1758-0.69608 3.7326-1.4693 6.024z" fill="#666"/>
 <path d="m851.19 478.49c3.457 6.5306 1.746 9.701-5.9841 8.2539 3.9139 3.3644 11.659 1.9517 8.6666-7.4285z" fill="#666"/>
 <path d="m532.25 628.94c2.295-2.6067 4.3166-5.7058 7.6566-6.4316-4.6118-2.4501-1.0108-5.2316-0.2736-7.6817-4.7194 3.5776-7.2085 5.8046-11.671 5.8441-2.217 4.2877-2.8821 8.5754-2.4501 12.863 2.4735-2.3279 5.1082-5.2197 6.7378-4.594z"/>
</svg>
