<?xml version="1.0" encoding="UTF-8" standalone="no"?>
<!-- Created with Inkscape (http://www.inkscape.org/) -->

<svg
   xmlns:dc="http://purl.org/dc/elements/1.1/"
   xmlns:cc="http://creativecommons.org/ns#"
   xmlns:rdf="http://www.w3.org/1999/02/22-rdf-syntax-ns#"
   xmlns:svg="http://www.w3.org/2000/svg"
   xmlns="http://www.w3.org/2000/svg"
   xmlns:sodipodi="http://sodipodi.sourceforge.net/DTD/sodipodi-0.dtd"
   xmlns:inkscape="http://www.inkscape.org/namespaces/inkscape"
   id="svg4590"
   version="1.1"
   inkscape:version="0.91 r13725"
   width="795.9375"
   height="1032.1875"
   viewBox="0 0 795.9375 1032.1875"
   sodipodi:docname="SecretaryBirdSilhouette.svg">
  <metadata
     id="metadata4596">
    <rdf:RDF>
      <cc:Work
         rdf:about="">
        <dc:format>image/svg+xml</dc:format>
        <dc:type
           rdf:resource="http://purl.org/dc/dcmitype/StillImage" />
        <dc:title></dc:title>
      </cc:Work>
    </rdf:RDF>
  </metadata>
  <defs
     id="defs4594" />
  <sodipodi:namedview
     pagecolor="#ffffff"
     bordercolor="#666666"
     borderopacity="1"
     objecttolerance="10"
     gridtolerance="10"
     guidetolerance="10"
     inkscape:pageopacity="0"
     inkscape:pageshadow="2"
     inkscape:window-width="1600"
     inkscape:window-height="837"
     id="namedview4592"
     showgrid="false"
     inkscape:zoom="0.64910687"
     inkscape:cx="397.96875"
     inkscape:cy="516.09375"
     inkscape:window-x="-8"
     inkscape:window-y="-8"
     inkscape:window-maximized="1"
     inkscape:current-layer="svg4590" />
  <path
     style="fill:#000000"
     d="m 467.48248,1030.8047 c -0.33411,-0.8707 -0.60748,-2.8338 -0.60748,-4.3625 0,-2.0633 -0.67928,-3.1693 -2.63667,-4.2926 -1.64735,-0.9455 -5.78063,-6.5881 -11.01563,-15.0383 -7.50744,-12.11818 -8.83889,-13.76021 -12.80091,-15.78689 -2.79903,-1.43175 -6.06776,-2.2741 -8.90625,-2.2951 -2.46636,-0.0187 -5.53898,-0.63619 -6.82804,-1.37306 -1.28906,-0.73688 -3.36848,-1.35478 -4.62094,-1.37306 -1.25245,-0.0178 -3.6062,-0.51375 -5.23055,-1.1011 -4.6934,-1.69715 -11.04237,-0.28003 -15.5254,3.46547 -5.11742,4.27547 -6.92733,4.1491 -9.37815,-0.65494 -2.65083,-5.19609 -1.83879,-10.47028 2.95505,-19.19296 6.84065,-12.44691 14.14731,-14.36279 22.89374,-6.00282 4.40356,4.209 5.07186,4.51725 11.03264,5.08838 3.48983,0.3344 7.42238,1.09884 8.73902,1.69875 1.93021,0.87937 2.55486,0.83015 3.22505,-0.25416 1.47435,-2.38556 2.05253,-10.7804 1.00287,-14.56097 -0.63625,-2.29162 -1.03076,-15.14522 -1.04798,-34.14384 -0.0152,-16.75781 -0.44982,-38.0625 -0.96587,-47.34375 -0.65105,-11.70934 -0.59841,-33.08944 0.17197,-69.84375 0.85521,-40.8017 0.85526,-57.84055 2.3e-4,-74.17794 -1.50508,-28.75853 -2.60765,-34.61425 -8.04307,-42.71656 -2.34911,-3.50171 -4.27111,-7.14112 -4.27111,-8.08758 0,-0.94646 -1.83624,-4.55939 -4.08055,-8.02873 -3.93024,-6.07553 -7.63,-15.49399 -16.9373,-43.11725 -3.42959,-10.17872 -4.1219,-13.55446 -4.74345,-23.12944 -0.40028,-6.16619 -0.65313,-13.21516 -0.56189,-15.66437 0.0912,-2.44922 -0.22921,-4.45313 -0.7121,-4.45313 -0.48289,0 -5.18717,5.66859 -10.45396,12.59689 -10.76949,14.16689 -9.91454,13.79195 -18.29748,8.02434 -2.24529,-1.5448 -4.63915,-2.8103 -5.31969,-2.81224 -0.68053,-0.002 -2.66937,-0.87654 -4.41965,-1.94358 l -3.18232,-1.94008 -4.7914,4.73189 c -3.22748,3.18737 -6.22271,5.16264 -9.17642,6.05158 -3.97978,1.19774 -5.12485,1.13951 -12.39118,-0.63011 l -8.00619,-1.9498 -1.12197,-5.01349 c -0.61708,-2.75741 -1.48269,-5.23642 -1.92358,-5.50891 -1.7868,-1.1043 -6.42002,0.92339 -12.90767,5.64893 -7.87731,5.73776 -8.97393,5.77806 -18.39385,0.67601 -3.65085,-1.97738 -6.71166,-2.93143 -9.4047,-2.93143 -3.82126,0 -4.16349,0.24391 -7.98384,5.69019 -2.19529,3.1296 -4.92047,6.1882 -6.05595,6.79688 -2.03578,1.09128 -8.69139,9.73219 -17.59697,22.84595 -2.50572,3.68976 -6.72447,9.2369 -9.375,12.32699 -2.65052,3.09007 -15.29153,18.09945 -28.09112,33.35416 -19.86815,23.6791 -23.63899,27.73497 -25.78125,27.7299 -1.80286,-0.005 -2.95886,-0.79603 -4.10629,-2.8125 -0.87836,-1.54362 -2.21477,-2.80657 -2.96981,-2.80657 -1.69604,0 -15.99597,22.62643 -17.27074,27.3271 -0.92915,3.42617 -13.59151,25.56267 -37.72661,65.95415 C 87.608198,852.76108 60,900.53973 60,902.49239 c 0,1.19105 -1.187435,3.4945 -2.638744,5.1188 -2.306664,2.5816 -2.895353,2.81593 -4.677796,1.86199 -1.121479,-0.60019 -2.729718,-2.42686 -3.573862,-4.05926 l -1.534811,-2.96799 -3.162393,3.45077 c -1.739317,1.89792 -3.165686,4.40618 -3.169708,5.5739 -0.0046,1.32687 -0.858266,2.51763 -2.276223,3.17495 -1.999361,0.92685 -2.611056,0.69879 -5.148936,-1.91962 -1.584015,-1.6343 -2.880027,-3.67167 -2.880027,-4.5275 0,-0.85584 -2.990243,-3.94194 -6.644986,-6.85799 l -6.644987,-5.30193 -5.673187,1.11613 c -3.1202533,0.61388 -6.5988186,1.46806 -7.7301453,1.89818 -1.1313268,0.43014 -2.612656,0.43862 -3.29184283,0.0189 -1.50267021,-0.9287 2.67674653,-8.89526 8.85778033,-16.88418 8.0315978,-10.38075 54.7199628,-79.44029 58.6270438,-86.71875 2.214302,-4.125 6.42922,-11.29687 9.366483,-15.9375 2.937263,-4.64062 9.493325,-16.03125 14.569027,-25.3125 5.075705,-9.28125 13.895614,-23.91765 19.599804,-32.52532 12.23123,-18.45704 19.43089,-30.6868 18.73151,-31.81843 -0.97477,-1.57719 -4.10346,-0.77592 -9.63965,2.46875 -3.07922,1.80469 -6.05495,3.28125 -6.61272,3.28125 -0.59195,10e-6 -1.01413,-1.95137 -1.01413,-4.68749 l 0,-4.6875 -3.98437,0.004 c -2.20775,0.002 -5.24085,0.76974 -6.8022,1.72192 -3.746958,2.28505 -7.719821,2.97898 -8.901735,1.55486 -0.668824,-0.80589 -0.192434,-2.5022 1.608702,-5.72824 3.033778,-5.43382 28.995803,-37.27047 30.725333,-37.67779 0.65857,-0.1551 4.07525,-3.74103 7.59264,-7.96875 9.81004,-11.79117 16.92927,-19.8546 26.22253,-29.70034 9.06256,-9.60159 16.3516,-18.72732 16.3516,-20.47212 0,-1.97897 -4.21933,-3.8468 -11.26765,-4.988 -9.32176,-1.50929 -10.20406,-2.35485 -7.8931,-7.56434 3.8336,-8.64183 44.86103,-58.07627 67.53943,-81.37905 23.6011,-24.25087 28.38392,-30.3454 30.43355,-38.77996 0.89255,-3.67301 1.91026,-7.38686 2.26159,-8.253 0.35133,-0.86616 15.68704,-15.69206 34.07935,-32.94644 18.39232,-17.2544 34.67966,-32.68245 36.1941,-34.28457 1.51444,-1.60211 3.28356,-2.91293 3.93138,-2.91293 0.64781,0 1.93479,-1.28141 2.85995,-2.84758 0.92516,-1.56616 4.33329,-4.57489 7.57363,-6.68605 3.24034,-2.11117 6.95521,-5.10259 8.25526,-6.64761 1.30005,-1.54503 4.98216,-4.48336 8.18249,-6.52964 3.20032,-2.04628 7.50627,-5.30798 9.56877,-7.24821 2.0625,-1.94024 9.65625,-7.04554 16.875,-11.34512 7.21875,-4.29958 18.60937,-11.39381 25.3125,-15.76496 11.87443,-7.74339 28.50155,-17.36106 42.58918,-24.635 3.8303,-1.97771 7.83811,-4.37503 8.90625,-5.32736 1.06814,-0.95233 7.84832,-3.73451 15.06707,-6.18262 7.21875,-2.44812 16.5,-5.86806 20.625,-7.59988 4.125,-1.73182 11.31475,-4.20768 15.97724,-5.50192 4.66248,-1.29424 13.09998,-4.41107 18.75,-6.9263 5.65001,-2.51523 13.43682,-5.33733 17.30401,-6.27132 3.86719,-0.934 12.41703,-4.23394 18.99964,-7.33319 l 11.96838,-5.635 7.0014,-13.13845 c 6.34157,-11.90027 6.94809,-13.49879 6.43587,-16.96223 -0.31104,-2.10309 -1.18485,-4.31898 -1.94182,-4.92419 -1.18691,-0.94897 -1.03301,-1.65851 1.11839,-5.15625 1.37208,-2.23073 3.51809,-5.48935 4.76891,-7.24138 2.76512,-3.87312 2.87613,-6.57769 0.39923,-9.72656 -2.18472,-2.77742 -2.39164,-7.63044 -0.46875,-10.99418 1.80326,-3.15448 1.76422,-7.16203 -0.0767,-7.86845 -0.8156,-0.31298 -2.5031,-0.56905 -3.75,-0.56905 -1.24688,0 -2.26206,-0.31641 -2.25594,-0.70313 0.0365,-2.30366 2.88876,-10.80564 5.05684,-15.07307 1.39573,-2.74723 2.78941,-7.12037 3.09706,-9.71809 0.51295,-4.33099 0.41127,-4.67888 -1.2247,-4.19019 -0.98124,0.29311 -2.92911,0.80585 -4.32861,1.13941 -1.39949,0.33356 -2.80834,1.43768 -3.13079,2.45359 -0.32243,1.01591 -2.97427,3.36098 -5.89296,5.21125 -2.9187,1.85028 -7.62727,5.30135 -10.46349,7.66906 -8.75073,7.3052 -11.90037,8.21591 -10.63669,3.07559 0.60409,-2.45732 16.70804,-25.01123 19.53188,-27.35481 1.61097,-1.33698 1.90452,-3.75961 0.45558,-3.75961 -1.59551,0 -26.28573,16.79677 -32.31899,21.98662 -7.03582,6.05227 -15.50395,10.82588 -19.20455,10.82588 -2.57661,0 -2.8267,-0.27551 -2.8267,-3.11408 0,-5.10766 8.41642,-16.11608 20.25514,-26.49312 5.61749,-4.92392 11.78663,-10.08522 13.70922,-11.46956 1.92259,-1.38434 3.50462,-2.88201 3.51562,-3.32813 0.0367,-1.4838 -10.66076,0.49742 -15.25446,2.82523 -2.48922,1.26139 -7.98095,3.56488 -12.20382,5.11886 -4.22287,1.55399 -11.96945,5.3309 -17.21461,8.39312 -7.41509,4.32906 -10.38708,5.56768 -13.35938,5.56768 -3.34397,0 -3.82073,-0.26417 -3.80693,-2.10937 0.008,-1.16016 2.25925,-5.69532 5.00126,-10.07813 4.75236,-7.59611 5.61744,-8.42136 18.49985,-17.6477 7.4329,-5.32342 16.36202,-11.176459 19.84248,-13.00675 C 552.15234,92.202758 555,90.402407 555,90.032269 c 0,-1.704426 -7.26606,-2.722583 -13.59375,-1.904825 -8.57245,1.107857 -36.70179,7.065997 -41.88837,8.872465 -7.0298,2.44846 -10.78723,1.312585 -9.19993,-2.781159 1.0924,-2.817372 4.238,-5.257522 14.05705,-10.904528 8.17839,-4.703456 16.47352,-7.843998 33.68237,-12.752183 3.31436,-0.945299 6.182,-2.186426 6.37255,-2.75806 0.5658,-1.697407 -10.76701,-4.991479 -17.17251,-4.991479 -4.49428,0 -6.74325,-0.533353 -9.89609,-2.346902 -2.24404,-1.290796 -5.76757,-2.806604 -7.83007,-3.368463 -4.12534,-1.123808 -7.03125,-3.26968 -7.03125,-5.192222 0,-1.901407 9.31,-6.793384 14.05815,-7.386906 2.3227,-0.290341 7.92962,-1.19969 12.45981,-2.020776 4.62329,-0.837962 10.03337,-1.246624 12.33216,-0.931537 4.48153,0.614262 7.24101,-1.082586 5.46834,-3.362569 -0.50112,-0.644531 -2.77214,-3.492188 -5.04673,-6.328125 -3.33141,-4.153606 -4.477,-6.614641 -5.89133,-12.65625 -0.96566,-4.125 -2.33223,-8.332151 -3.03682,-9.3492244 -0.70459,-1.0170738 -1.28108,-3.4144258 -1.28108,-5.3274493 0,-6.071507 2.36025,-5.6421455 14.30404,2.6020989 5.79684,4.0012908 14.36576,10.0950198 19.04204,13.5416198 4.67628,3.4466 10.58253,7.305503 13.125,8.575342 2.54247,1.269838 6.52111,3.295426 8.84142,4.501305 8.25522,4.290287 9.2264,4.675396 11.8634,4.704317 1.46732,0.01609 4.35535,1.068618 6.41785,2.338947 2.0625,1.270328 5.09619,2.311849 6.74154,2.314491 1.64535,0.0026 3.2441,0.413441 3.55278,0.912886 0.73124,1.183183 56.25904,0.329461 67.04943,-1.030864 6.49318,-0.818583 9.25722,-0.736526 14.92711,0.44315 4.6726,0.972181 7.50934,1.152879 8.63567,0.550083 3.12092,-1.670264 10.38665,3.881744 15.2124,11.624341 2.33194,3.74144 5.0029,7.48189 5.93548,8.312112 1.66622,1.483344 13.09237,3.047186 28.88309,3.953087 11.27437,0.646801 16.94837,2.086319 24.67683,6.260615 7.36457,3.977752 7.44497,4.061904 11.29215,11.819113 3.50502,7.067305 3.87477,8.485443 3.87477,14.86147 0,7.75847 -2.31887,13.85653 -6.89047,18.12028 l -2.38856,2.2277 -0.62159,-4.68578 c -0.34187,-2.57719 -0.89081,-5.07763 -1.21986,-5.55655 -0.76285,-1.11028 -9.61003,-3.11934 -13.73646,-3.11934 -3.24548,0 -50.82902,10.63895 -54.59619,12.20687 -1.4626,0.60874 -2.11361,1.6746 -2.12318,3.47615 -0.0147,2.77073 -2.91967,12.87547 -4.01694,13.97273 -0.36121,0.36121 -0.65675,1.45114 -0.65675,2.42206 0,0.97091 -0.61484,2.95428 -1.36632,4.40748 -1.21901,2.35731 -1.1745,3.43885 0.41291,10.03157 0.97858,4.06416 3.7028,12.98531 6.05382,19.82476 3.36776,9.79726 4.27459,13.73355 4.27459,18.55463 0,3.3656 0.67855,11.6849 1.50789,18.48734 1.40239,11.50265 1.82633,13.00261 6.05847,21.43613 2.5028,4.98743 6.89824,12.70727 9.76764,17.1552 10.00503,15.50906 11.99155,23.02508 6.08564,23.02508 -1.53705,0 -2.79464,0.39227 -2.79464,0.87172 0,0.82881 2.95322,14.10847 7.56336,34.00988 1.74602,7.5374 1.89888,9.35241 0.89004,10.568 -1.10017,1.3256 -1.43206,1.32741 -3.42947,0.0187 l -2.21143,-1.44898 0,6.46625 c 0,3.55643 0.63281,8.25982 1.40625,10.45198 1.0218,2.8961 1.40625,8.02304 1.40625,18.75352 0,13.66596 -0.13865,14.86375 -1.8583,16.05401 -1.64458,1.13829 -1.96905,3.0114 -2.8212,16.28622 -0.78207,12.18302 -2.47282,26.12025 -3.32977,27.44811 -0.0925,0.14333 -1.23611,-0.14542 -2.54135,-0.64168 -5.00195,-1.90173 -5.94493,-0.72963 -7.12259,8.85324 -0.84548,6.87987 -1.71175,9.87666 -3.97631,13.75576 -3.46261,5.93132 -8.1685,11.0624 -9.63561,10.50623 -0.59619,-0.22601 -2.26584,2.54578 -3.82222,6.34526 -1.51998,3.71061 -3.94576,8.09297 -5.39063,9.73859 -1.71581,1.95421 -2.62702,4.04043 -2.62702,6.01459 0,5.971 -7.9926,13.13615 -14.65314,13.13615 -1.38924,0 -4.30036,1.03992 -6.46918,2.31093 -2.16883,1.27101 -4.17782,2.07642 -4.46445,1.7898 -0.28664,-0.28663 -3.35961,1.62763 -6.82885,4.2539 -3.46924,2.62629 -7.99226,5.22867 -10.05117,5.78308 -5.17599,1.39374 -24.52083,14.548 -34.3346,23.34709 -4.47554,4.0128 -12.12378,10.1036 -16.9961,13.53511 -6.12294,4.3123 -12.41172,10.06427 -20.36343,18.62522 -11.23389,12.09458 -11.9755,13.16954 -31.50723,45.66967 -11.00141,18.30594 -21.0939,35.43721 -22.42777,38.06947 -1.33387,2.63227 -3.50327,6.06714 -4.8209,7.63304 -1.31762,1.56591 -2.39568,3.52331 -2.39568,4.34977 0,0.82646 -1.89844,4.0815 -4.21875,7.23342 -3.50265,4.75801 -4.21875,6.4357 -4.21875,9.88373 0,2.28413 -0.79737,5.71819 -1.77194,7.63124 -1.23281,2.42 -2.78824,11.17973 -5.11223,28.79078 -7.56444,57.32265 -10.29294,83.32253 -11.80721,112.51087 -0.53531,10.31849 -2.21644,30.14661 -3.73583,44.0625 -1.51939,13.9159 -3.44317,34.37194 -4.27505,45.45788 -0.83188,11.08594 -1.87805,21.63281 -2.3248,23.4375 -1.19211,4.81552 -2.2014,19.6875 -1.33611,19.6875 0.40846,0 2.09373,-1.3095 3.74503,-2.91 1.65131,-1.6005 7.77434,-5.71493 13.60674,-9.14312 9.2954,-5.46369 11.10867,-6.95603 14.68992,-12.08998 l 4.08556,-5.8569 5.94754,0 c 7.42888,0 8.48969,0.41346 11.16597,4.35196 2.00293,2.94757 2.08,3.53422 1.06216,8.08499 -1.06306,4.7529 -1.22633,4.93834 -5.20525,5.91224 -3.10433,0.75983 -5.0195,2.08114 -7.8402,5.40903 -2.79337,3.29569 -3.4636,4.6725 -2.66392,5.47219 1.83734,1.83731 12.77238,-1.73353 18.02636,-5.88658 5.87534,-4.64419 11.3005,-6.0777 16.39951,-4.33329 3.17257,1.08535 4.23548,2.19048 6.90287,7.17702 2.66389,4.97991 3.0218,6.35053 2.30774,8.83763 -0.8415,2.9309 -0.86939,2.94225 -6.49814,2.63278 l -5.65301,-0.31088 -3.95072,5.23275 c -3.03824,4.02404 -4.52022,5.23266 -6.41641,5.23266 -1.35612,0 -4.53881,1.33031 -7.07262,2.95631 -3.82867,2.45681 -4.49428,3.28828 -3.93996,4.92188 1.06351,3.13406 1.58738,11.66428 0.93118,15.16209 -0.49824,2.65585 -1.01376,3.20972 -2.98751,3.20972 -1.33856,0 -3.14095,-0.92569 -4.10713,-2.10938 l -1.72176,-2.10937 -3.15936,3.04566 -3.15938,3.04565 -10.73382,-2.26847 c -5.90361,-1.24771 -10.8898,-2.11246 -11.08045,-1.92187 -0.19064,0.19069 0.86222,1.40522 2.33969,2.69897 2.63168,2.30456 22.20924,9.20475 26.16086,9.2205 1.37377,0.009 2.39348,1.17169 3.62212,4.14221 l 1.71006,4.1345 -3.53729,7.9386 c -5.74578,12.895 -12.73001,16.3709 -14.0218,6.9784 -0.34233,-2.4889 -1.14524,-5.2404 -1.78424,-6.1142 -1.07654,-1.4723 -1.37617,-1.4781 -4.08136,-0.08 -1.60574,0.8304 -3.52199,1.2786 -4.25832,0.9961 -0.73632,-0.2826 -3.46756,-3.1703 -6.06941,-6.4171 -4.2734,-5.3328 -5.5769,-6.2708 -13.48624,-9.704 -9.43199,-4.09434 -16.72434,-5.83744 -16.72434,-3.99778 0,2.38022 2.06818,4.62618 7.45776,8.09868 l 5.65084,3.6409 0.008,7.5352 0.008,7.5353 -4.51709,4.4492 c -5.06442,4.9882 -10.63205,6.8557 -11.75043,3.9412 z m -1.66451,-82.28907 c 1.34854,-8.5246 7.2932,-68.63811 12.26091,-123.98438 2.08264,-23.20312 4.43406,-45.14062 5.22538,-48.75 1.3124,-5.98619 5.15508,-44.10965 6.52021,-64.6875 0.30786,-4.64062 1.01118,-13.43541 1.56295,-19.54396 l 1.00321,-11.10647 -3.31426,-3.42478 c -1.82284,-1.88363 -5.20256,-6.50298 -7.51049,-10.26521 -3.40005,-5.54254 -4.51296,-8.52203 -5.86549,-15.70313 -0.91809,-4.87448 -1.9615,-8.8627 -2.3187,-8.8627 -1.28445,0 -7.27225,12.84394 -10.27088,22.03125 -1.68295,5.15625 -3.99101,11.27344 -5.12901,13.59375 l -2.06911,4.21875 0.78506,106.40625 c 0.68241,92.49291 1.04308,110.26766 2.75833,135.9375 1.851,27.70116 2.33291,30.86372 4.71217,30.92316 0.31598,0.009 1.05835,-3.04425 1.64972,-6.78254 z"
     id="path4600"
     inkscape:connector-curvature="0" />
</svg>
