<?xml version="1.0" encoding="UTF-8" standalone="no" ?>
<!DOCTYPE svg PUBLIC "-//W3C//DTD SVG 1.1//EN" "http://www.w3.org/Graphics/SVG/1.1/DTD/svg11.dtd">
<svg xmlns="http://www.w3.org/2000/svg" xmlns:xlink="http://www.w3.org/1999/xlink" version="1.1" width="1080" height="1080" viewBox="0 0 1080 1080" xml:space="preserve">
<desc>Created with Fabric.js 5.2.4</desc>
<defs>
</defs>
<rect x="0" y="0" width="100%" height="100%" fill="transparent"></rect>
<g transform="matrix(1 0 0 1 540 540)" id="5d5627ca-a301-429f-9b55-3bc2c2d0b7a1"  >
<rect style="stroke: none; stroke-width: 1; stroke-dasharray: none; stroke-linecap: butt; stroke-dashoffset: 0; stroke-linejoin: miter; stroke-miterlimit: 4; fill: rgb(255,255,255); fill-rule: nonzero; opacity: 1; visibility: hidden;" vector-effect="non-scaling-stroke"  x="-540" y="-540" rx="0" ry="0" width="1080" height="1080" />
</g>
<g transform="matrix(1 0 0 1 540 540)" id="fb81632a-b44c-4ae2-ad1e-2011b0cabcff"  >
</g>
<g transform="matrix(0.66 0 0 0.67 564.55 540)"  >
<g style="" vector-effect="non-scaling-stroke"   >
		<g transform="matrix(-1.33 0 0 1.33 0 0)" id="path4206"  >
<path style="stroke: none; stroke-width: 1; stroke-dasharray: none; stroke-linecap: butt; stroke-dashoffset: 0; stroke-linejoin: miter; stroke-miterlimit: 4; fill: rgb(0,0,0); fill-rule: nonzero; opacity: 1;" vector-effect="non-scaling-stroke"  transform=" translate(-438.17, -299.5)" d="M 565.57719 153.84547 C 508.1364 172.74653 456.9762 165.13483 410.848 165.752 C 389.6 161.68 367.736 160.256 346.112 158.312 C 315.12 160.71200000000002 285.49600000000004 173.728 260.17600000000004 191.27200000000002 C 216.91200000000003 204.16000000000003 173.79200000000003 225.43200000000002 127.28800000000004 221.76800000000003 C 85.51200000000003 226.18400000000003 48.249600000000044 200.86400000000003 7.280000000000044 197.14400000000003 C 4.559680000000044 197.24000000000004 0.46821177000004344 203.49503000000004 3.286772400000044 205.02339000000003 C 24.434877000000043 216.49090000000004 40.87619400000005 219.74728000000005 49.23526400000004 224.12811000000005 C 84.99126400000004 242.36811000000006 143.59754000000004 246.02585000000005 182.43600000000004 243.40800000000004 C 199.69200000000004 242.83200000000005 216.38800000000003 239.21600000000004 232.19600000000003 233.16000000000005 C 239.69200000000004 229.55200000000005 244.04400000000004 240.12000000000006 242.85200000000003 246.20800000000006 C 255.89200000000002 296.37600000000003 270.612 346.14400000000006 283.62800000000004 396.32000000000005 C 291.66800000000006 428.46400000000006 284.04400000000004 462.432 267.04400000000004 490.28000000000003 C 263.60400000000004 500.81600000000003 272.884 509.288 277.04400000000004 517.96 C 287.196 541.152 312.98 560.928 305.80400000000003 588.808 C 301.90000000000003 599.656 330.99600000000004 594.984 313.67600000000004 593.408 C 318.40400000000005 593.496 328.64400000000006 587.504 322.13200000000006 594.376 C 330.79600000000005 592.88 338.03600000000006 599.192 346.45200000000006 597.88 C 348.08400000000006 593.12 335.20400000000006 593.472 341.79600000000005 587.232 C 346.71600000000007 595.656 346.11600000000004 584.672 339.9320000000001 582.304 C 346.03600000000006 580.8159999999999 347.69200000000006 589.1999999999999 350.9560000000001 592.8399999999999 C 347.3960000000001 593.9999999999999 348.4920000000001 596.512 350.18000000000006 598.9999999999999 L 354.57200000000006 598.9999999999999 C 361.43600000000004 596.3679999999999 355.10800000000006 588.4639999999999 354.20400000000006 583.9519999999999 C 349.46 569.312 328.06 573 324.716 557.192 C 312.532 530 297.588 493.952 320.492 468.48 C 334.43600000000004 451.40000000000003 353.892 438.91200000000003 363.244 418.30400000000003 C 382.612 393.37600000000003 385.172 360.024 381.596 329.872 C 395.25247 320.51399000000004 399.7271 326.8121 415.43776 326.8 C 465.41376 332.81503000000004 495.45704 364.57833 537.412 370.272 C 579.3669600000001 375.96567 598.956 372.848 629.78 373.59999999999997 C 638.95985 384.98073999999997 646.73713 467.62506999999994 648.124 498.84 C 649.2280000000001 509.15999999999997 652.4200000000001 523.792 662.58 527.472 C 671.404 520.792 670.532 531.808 664.052 535.232 C 669.996 545.928 671.692 558.512 678.436 568.656 C 685.8760000000001 576.1279999999999 696.98 572.808 703.7800000000001 566.704 C 705.2120000000001 561.512 697.652 559.3439999999999 699.2040000000001 554.2399999999999 C 707.2840000000001 553.7199999999999 713.94 560.4639999999999 714.8520000000001 568.2399999999999 C 712.484 564.7439999999999 710.0200000000001 562.4159999999999 708.916 568.0079999999999 C 714.0920000000001 571.992 722.0600000000001 570.1919999999999 727.436 567.1519999999999 C 728.532 552.5279999999999 714.7080000000001 542.2479999999999 700.9000000000001 542.376 C 689.844 527.848 683.2040000000001 508.688 685.8520000000001 490.304 C 683.1720000000001 455.52 690.3240000000001 420.99199999999996 691.1960000000001 386.224 C 695.1560000000002 360.152 699.6760000000002 333.288 713.2840000000001 310.312 C 734.6840000000001 283.16 728.3640000000001 246.544 734.5160000000001 214.62400000000002 C 737.1287500000001 200.36562000000004 739.7426 193.66740000000001 746.8917000000001 181.32176000000004 C 757.1557000000001 159.16546000000005 760.5678000000001 143.88040000000004 771.1438000000002 128.36040000000003 C 785.2158000000002 115.33640000000003 831.5367900000001 133.85776 840.5699600000002 107.72527000000002 C 849.2899600000002 101.03727000000002 809.2800000000002 110.03200000000002 813.1200000000001 100.40000000000002 C 821.2000000000002 89.92800000000003 840.4936600000001 98.50243500000002 849.9336600000001 96.00643500000002 C 859.9683900000001 90.51316800000002 862.6365800000001 95.83931700000002 866.3200000000002 82.52800000000002 C 866.3200000000002 82.52800000000002 868.8592200000002 74.01286500000002 869.1792200000002 68.18326500000002 C 869.1792200000002 68.18326500000002 874.0000000000002 64.18452800000001 874.0000000000002 55.44960000000002 C 872.4800000000002 50.71040000000002 866.6400000000002 50.40960000000002 862.7200000000003 49.209600000000016 C 844.64 46.0896 828 38.3104 810.24 33.92 C 799.824 32.28 804.8 18.4304 796.88 13.9904 C 774.09397 2.5854342 759.67006 1.0567077 735.352 0 C 713.99385 2.8352671 696.488 4.13 683.912 18.9504 C 666.53307 41.3 646.73463 61.196298 640.03888 86.870487 C 627.59696 110.58996 610.34807 138.71776 565.57719 153.84547 Z" stroke-linecap="round" />
</g>
		<g transform="matrix(-1.33 0 0 1.33 296.25 132.17)" id="path4162"  >
<path style="stroke: none; stroke-width: 1; stroke-dasharray: none; stroke-linecap: butt; stroke-dashoffset: 0; stroke-linejoin: miter; stroke-miterlimit: 4; fill: rgb(0,0,0); fill-rule: nonzero; opacity: 1;" vector-effect="non-scaling-stroke"  transform=" translate(-215.98, -398.63)" d="M 225.84964 286.45464 C 222.59076 322.83864 210.632 349.96 198.36 383.424 C 193.24 410.59999999999997 179.92800000000003 435.768 161.888 456.152 C 161.864 484.448 163.512 511.888 154.344 539.408 C 150.488 548.44 151.072 569.9200000000001 166.352 561.576 C 173.6 552.088 179.872 565.8720000000001 188.12 562.456 C 195.088 561.192 186.952 551.8240000000001 195.952 555.8720000000001 C 189.59199999999998 559.7840000000001 197.24 565.888 200.944 560.4960000000001 C 201.992 546.8960000000001 188.83999999999997 538.7520000000001 185.10399999999998 526.7120000000001 C 182.896 506.4480000000001 188.64 484.7920000000001 202.368 469.3600000000001 C 202.728 454.91200000000015 210.24 440.55200000000013 222.488 432.49600000000015 C 241.008 416.72000000000014 266.42268 399.77155000000016 279.61468 379.43555000000015 C 267.67868000000004 334.75555000000014 254.51019000000002 278.42724000000015 242.31819000000002 233.79524000000015 C 235.67355 251.29517000000016 236.85256 252.50017000000014 225.84964000000002 286.45464000000015 z" stroke-linecap="round" />
</g>
		<g transform="matrix(-1.33 0 0 1.33 -261.68 209.36)" id="path4150"  >
<path style="stroke: none; stroke-width: 1; stroke-dasharray: none; stroke-linecap: butt; stroke-dashoffset: 0; stroke-linejoin: miter; stroke-miterlimit: 4; fill: rgb(0,0,0); fill-rule: nonzero; opacity: 1;" vector-effect="non-scaling-stroke"  transform=" translate(-634.43, -456.52)" d="M 619.392 376.104 C 617.44 376.13599999999997 615.224 376.50399999999996 612.7120000000001 377.272 C 607.248 377.88 609.2320000000001 385.23199999999997 610.4720000000001 388.48 C 617.7200000000001 421.56800000000004 628.128 455.136 627.344 488.704 C 627.504 494.88800000000003 634.4000000000001 494.728 637.768 498.472 C 647.672 499.84 634.6800000000001 499.712 635.5600000000001 504.35999999999996 C 636.44 516.0319999999999 634.7520000000001 531.192 647.344 536.944 C 650.9920000000001 536.1999999999999 662.8480000000001 536.088 659.024 530.072 C 647.152 521.92 647.152 506.032 645.856 493.16 C 642.3679999999999 465.68800000000005 641.328 436.98400000000004 635.528 410.54400000000004 C 634 397.91200000000003 635.312 375.84800000000007 619.392 376.10400000000004 z" stroke-linecap="round" />
</g>
</g>
</g>
</svg>